<svg id="logo" xmlns="http://www.w3.org/2000/svg" viewBox="0 0 422.69 415.41"><defs><style>.cls-1{fill:#fa8a3b;stroke:#fa8a3b;stroke-miterlimit:10;}.cls-2{fill:#53241a;}.cls-3{fill:#ee3e80;}</style></defs><title>Latitude Masthead</title><path class="cls-1" d="M437,173.57c-1.2-22.2-16.21-59.42-36-77.42s-40.81-40.82-69.62-40.82c-48.33,0-77.08,12.93-111,24-27.61,9-75.63,49.82-93.63,90s-14.22,56.42-13.81,74.42c0.6,25.81,22.21,85.83,58.82,107.44s70.83,28.21,99,28.21,65.42-25.81,90.63-37.21S428,272,429.78,257.6,438.18,195.78,437,173.57ZM409.37,272c-9.6,23.41-44.42,52.82-58.82,61.22s-27.61,24-77.43,24c-26.46,0-64.83-9-92.43-40.21-20.81-23.53-39.89-41.59-39.61-80.43,0.6-82.83,61.82-124.25,80.43-138.05s56.42-25.21,70.23-27.61,16.81-6,43.22-6c29.41,0,48,24,60.62,40.81s28.21,32.41,31.81,63.63C432.76,216.06,419,248.6,409.37,272Z" transform="translate(-14.93 -11.23)"/><path class="cls-1" d="M397.36,121.35c-14.41-20.4-44.41-48-69.62-48-22.81,0-55.82,7.2-82.83,25.81s-46.82,42-63.62,79.23-15,54.62-15,72,16.2,40.21,31.81,52.82,19.41,7.53,23.41,12c15,16.8,42,15.6,54.62,19.2s11.4,6,30,6,41.41-13.81,54-24,26.41-30.61,33-43.21,14.41-50.42,18-67.23S411.77,141.76,397.36,121.35ZM386.56,224c-3.6,36-15,66-28.81,73.83s-39,27.61-54,27.61-32.41-6.6-49.82-12.6-39.61-12.6-46.22-18-19.21-30-19.21-37.21,1.2-19.81,5.4-36.61c12.54-50.15,22.81-79.23,81.63-105,9.74-4.27,13.81-7.2,40.22-7.2s48,18,58.22,33.61S390.16,188,386.56,224Z" transform="translate(-14.93 -11.23)"/><path class="cls-1" d="M366.15,203.58c-3.6-15-17.41-47.42-25.81-54.62s-16.21-16.21-34.21-16.21c-28.21,0-40.22,2.4-55.22,10.8s-28.81,27-32.41,37.21-16.2,40.22-12,69.63,10.2,34.81,21,42.61,39,19.21,47.42,20.41,32.41,2.4,37.21-.6,42-19.21,45.62-26.41,10.8-27.61,10.21-39S369.75,218.59,366.15,203.58Zm-21,63.62c-5.4,8.41-24.61,25.21-53.42,25.21S229.3,264.8,229.3,243.2s9-57,18-73.83,36.7-23.62,51-25.21c5.4-.6,5.4,0,16.21,0s25.21,23.41,30,34.81,8.4,25.21,11.4,35.42S350.55,258.8,345.14,267.2Z" transform="translate(-14.93 -11.23)"/><path class="cls-1" d="M286.32,154.36c-8.36,1-36.61,5.4-36.61,51.62s19.81,55.82,42.62,53.42,54-16.81,54-28.21-10.8-34.21-14.4-43.81-4.82-27.5-24.61-31.21C297.73,154.36,291.12,153.76,286.32,154.36Z" transform="translate(-14.93 -11.23)"/><path class="cls-2" d="M178.32,165.74c6.25-16.06,25-46.66,56.63-46.66s36.7,25.16,36.7,39.86c0,22.77-15.23,48.12-57.15,89l97.88,4.48,0.33,16.23c-37.1,1.17-92.45,6.88-125.43,12.59L186,250.94c19.55-16,55-48.52,55-80.31,0-15.21-9.47-22-19.27-22s-20.62,3.91-33.81,24.17Z" transform="translate(-14.93 -11.23)"/><path class="cls-2" d="M322.72,138.66c-19.57,0-47.47,22.05-47.47,54.43,0,33.27,21,49.82,39.78,49.82,14.31,0,23.07-5.59,29.33-14.55-4.94,46.12-17,73.14-45.46,73.14-16.23,0-23-3.74-33.45-11.21L257,300.1c6.42,7.27,22.7,18.26,48.22,18.26,47.74,0,70.45-52.4,70.45-94.5C375.67,170.38,360.06,138.66,322.72,138.66ZM324.78,225c-9.8,0-17.41-12.34-17.41-32.62s8.45-36.74,18.43-36.74c10.82,0,15.72,15.71,15.72,35.89C341.51,206.62,334.59,225,324.78,225Z" transform="translate(-14.93 -11.23)"/><path class="cls-2" d="M21.27,388.41l1.48-36.56s44.73,8.81,65.3,8.81c9.3,0,24.69-2.67,24.38-25.64-0.14-10.14-2.12-27.9-2.12-27.9l10.43-2.68c0.28,22.12,4.93,58.61,9.15,79.32-31-9.58-55.93-12.4-73.68-12.4s-24.79,6.2-26.76,18.6Z" transform="translate(-14.93 -11.23)"/><path class="cls-2" d="M111.17,262.37c0,26.42-8.81,35.78-39.92,35.78-18.4,0-31.1,3.95-31.1,24.52s19.72,25.08,31.56,25.08L66.36,333.8c-14.51,0-18.18-6.55-18.18-11.8,0-4.22,2.4-9.33,9.86-9.33,18.88,0,14.51,35.22,33.87,35.22,8,0,13.46-6.34,13.46-15.07,0-11.55-8.74-20.42-14.6-23.17,26.75-6.28,29.49-27.7,27.72-47.69ZM91.85,324.64c0,2-1.13,4.86-4.37,4.86-4.37,0-9.37-6.27-9.37-13.45,0-2.27,1.09-3.74,3.06-3.74C85.33,312.3,91.85,318.19,91.85,324.64Z" transform="translate(-14.93 -11.23)"/><path class="cls-2" d="M17.47,339.32c1.83-29,3.1-70.44,1.83-93l13.81-.56c0,21.6,3.14,27.37,21.45,29.51,14.67,1.71,40.94-.11,40.94-0.11L95,289.06c-6.66-1.58-24.87-2.21-35.55-2.21-20.5,0-36.92,5.87-29.63,52.37Z" transform="translate(-14.93 -11.23)"/><path class="cls-2" d="M58.54,265.69c0-6.32-.92-14.45-3.49-19.75,4.13,0.45,17.47,1,25.48,1,8.65,0,16.48-2.47,15.92-8.22l10.07-.21c-1.06,8.81-1.9,21.06-.07,32.54l-7.75-.56c0-5.78-4.49-12.12-14.7-12.12-12.66,0-15.93,4.37-16.28,8.38Z" transform="translate(-14.93 -11.23)"/><path class="cls-2" d="M39.13,256.06c0-5.06,3.09-8,6.23-8,5.27,0,7.54,4.18,7.54,9a6.57,6.57,0,0,1-6,6.91A7.93,7.93,0,0,1,39.13,256.06Z" transform="translate(-14.93 -11.23)"/><path class="cls-2" d="M42.51,231.18l-12.15.42c0.16-6.34-1.42-15.8-4.7-22.4l14.53,1.74-1.06-24.73,10.62,0.53c0,21.21,4.79,28.76,27.1,29.43,37.86,1.12,39-11.88,36.93-30.21l7.32-2.27c2.54,10.91,3.15,24.09,1.1,30.48-5.26,16.3-13.89,15.79-56.65,16.69-8.63.18-9.93,1.29-10.14,10.8l-13,1.24Z" transform="translate(-14.93 -11.23)"/><path class="cls-2" d="M59.31,205.92l9,1.59s-0.71-7.65,6.06-7.65c4.93,0,14.87,2.67,21.5,2.67S106,197.61,106,191.83s-3.3-12.91-11.27-14.93c6.76,0.42,20.61-1.8,23.11-25.5l-6.9-.84c-2,9-4.37,16.2-21.27,16.2s-44-2.68-44-2.68l-4.16,14.23c14-.38,26.49-0.7,32.54-0.7s17.56,1.32,17.56,6.3c0,4.41-9.6,4.23-13.4,4.23s-19.94-2.22-19.94-2.22S59.59,199,59.31,205.92Z" transform="translate(-14.93 -11.23)"/><path class="cls-2" d="M20.29,161.45c0,23.81.56,30.58,0.56,30.58L31,193c0-23.39-2-38.18,30.71-38.18,15.78,0,38.9,1.13,38.9,1.13,0-14.79-2.83-39.31-40.59-39.31S20.29,137.64,20.29,161.45Zm67-20.15c0,4.51-23.93,4.36-29.57,4.36s-24.67,0-24.67-5.21S46.35,133,56.35,133C70.3,133,87.33,135.81,87.33,141.3Z" transform="translate(-14.93 -11.23)"/><path class="cls-2" d="M70.72,56.26L69.51,98.69c-2.51,0-5.19,0-8.08,0C26.88,98.74,27.52,88,28,69.09L17.33,64.5c1,18.6-2.39,48.46-2.39,48.46a315.44,315.44,0,0,1,53.68-4.08c28.07,0,40.25,12.38,43.82,35.16l6.69-.93c-4.23-21-4.37-52.31-3.1-69.64l-11.19.07c-1.18,17.85-5,23.11-22.25,24.61l-4-38.94Z" transform="translate(-14.93 -11.23)"/><path class="cls-3" d="M27.69,39.85H15.2v-25H27.49c4.91,0,8.1,1.5,8.1,5.79a5,5,0,0,1-3.64,5.14c2.44,0.55,5.34,2,5.34,6.34S35.17,39.85,27.69,39.85ZM26.85,17.38H18.42v7.48h8.71c3.51,0,5.11-1.53,5.11-4S30.42,17.38,26.85,17.38Zm0.71,10H18.42v9.92H27.2c5,0,6.76-1.92,6.76-5.23S31.46,27.33,27.56,27.33Z" transform="translate(-14.93 -11.23)"/><path class="cls-3" d="M45.51,36.5v-25H65.32l-0.91,2.6H48.73v7.52H61.93v2.53H48.73v9.76H64.37l1,2.63H45.51Z" transform="translate(-14.93 -11.23)"/><path class="cls-3" d="M90.36,39.85l-2.31-5.73H75.4l-2.31,5.73H69.65l10.24-25h3.68l10.24,25H90.36ZM83.27,22.52c-0.07-.36-1.53-4.1-1.56-4.62,0,0.52-1.56,4.26-1.59,4.62l-3.77,9.14H87.08Z" transform="translate(-14.93 -11.23)"/><path class="cls-3" d="M116.34,18.55c-1.59-3.16-4-4.68-6.86-4.68-4.75,0-8.33,3.12-8.33,10,0,7.38,3.8,10.27,8.23,10.27A7.26,7.26,0,0,0,116.64,29l3.25,0.81c-1.59,4.55-5.07,6.93-10.44,6.93-6.5,0-11.71-3.74-11.71-12.95,0-8.81,5.4-12.55,11.77-12.55,5,0,8.29,2,10.11,6.37Z" transform="translate(-14.93 -11.23)"/><path class="cls-3" d="M145.61,39.85V27.36H130.29V39.85H127v-25h3.29v10h15.32v-10h3.28v25h-3.28Z" transform="translate(-14.93 -11.23)"/><path class="cls-3" d="M170.1,36.5H157.61v-25H169.9c4.91,0,8.1,1.5,8.1,5.79a5,5,0,0,1-3.64,5.14c2.44,0.55,5.33,2,5.33,6.34S177.58,36.5,170.1,36.5ZM169.25,14h-8.42V21.5h8.72c3.51,0,5.1-1.53,5.1-4S172.83,14,169.25,14ZM170,24h-9.13V33.9h8.78c5,0,6.77-1.92,6.77-5.24S173.87,24,170,24Z" transform="translate(-14.93 -11.23)"/><path class="cls-3" d="M197.48,40c-7.41,0-10.34-3.12-10.34-9.92V14.81h3.25V30.09c0,4.85,2,7.32,7.09,7.32s7.05-2.8,7.05-7.38V14.81h3.25V30.32C207.78,36.21,205.06,40,197.48,40Z" transform="translate(-14.93 -11.23)"/><path class="cls-3" d="M239.46,36.5V19.85c0-.49,0-3.94,0-4.42-0.07.39-1.46,3.64-1.53,4.23L231,36.5h-2.73s-7.09-16.85-7.09-16.88c-0.1-.42-1.52-3.77-1.56-4.2V36.5h-3.15v-25h4.46L228,27.68c0.06,0.49,1.59,4.72,1.59,4.72s1.46-4.23,1.53-4.72l7-16.23h4.42v25h-3.15Z" transform="translate(-14.93 -11.23)"/><path class="cls-3" d="M275.23,39.85H262.74v-25H275c4.91,0,8.1,1.5,8.1,5.79a5,5,0,0,1-3.64,5.14c2.44,0.55,5.33,2,5.33,6.34S282.71,39.85,275.23,39.85Zm-0.84-22.47H266v7.48h8.72c3.51,0,5.1-1.53,5.1-4S278,17.38,274.38,17.38Zm0.71,10H266v9.92h8.78c5,0,6.76-1.92,6.76-5.23S279,27.33,275.1,27.33Z" transform="translate(-14.93 -11.23)"/><path class="cls-3" d="M293.05,36.5v-25h19.81l-0.91,2.6H296.27v7.52h13.2v2.53h-13.2v9.76h15.64l1,2.63h-19.9Z" transform="translate(-14.93 -11.23)"/><path class="cls-3" d="M337.83,39.85L331.06,27.4H323.2V39.85h-3.25v-25h13.33c5.5,0,8.17,2.41,8.17,6.37,0,3.64-2.18,5.72-6.8,6l6.89,12.62h-3.71Zm-5.2-22.47H323.2v7.55h9.85c3.68,0,5-1.53,5-3.74C338.06,18.81,336.47,17.38,332.63,17.38Z" transform="translate(-14.93 -11.23)"/><path class="cls-3" d="M367.29,36.5L360.53,24h-7.87V36.5h-3.25v-25h13.33c5.5,0,8.17,2.41,8.17,6.38,0,3.64-2.18,5.72-6.8,6L371,36.5h-3.71ZM362.09,14h-9.43v7.55h9.85c3.67,0,5-1.53,5-3.74C367.52,15.45,365.93,14,362.09,14Z" transform="translate(-14.93 -11.23)"/><path class="cls-3" d="M388.52,31.72v8.13h-3.35V31.69l-9.82-16.88h3.74l6.08,10.5c0.1,0.23,1.69,3.09,1.76,3.41,0.1-.32,1.59-3.06,1.66-3.25l6.21-10.67h3.64Z" transform="translate(-14.93 -11.23)"/><path class="cls-3" d="M403.3,23.1l-0.39-1.5c1.66-.26,2.25-0.88,2.28-2.47h-2.05V14.68h4.52V19C407.65,21.28,406.42,22.91,403.3,23.1Z" transform="translate(-14.93 -11.23)"/><path class="cls-3" d="M425.76,36.69c-7.57,0-10.47-3-11.38-6.6a7.61,7.61,0,0,1-.07-0.91l3.77-.81a5.64,5.64,0,0,0,.1,1.11C419,32,421.12,34.12,426,34.12c5.43,0,7.45-2,7.45-5.1,0-2.63-1.46-4.1-5.59-4.68C426,24.07,425,24,422.71,23.75c-4.94-.55-7.58-2.18-7.58-5.92s3.38-6.6,9.92-6.6c5.69,0,8.68,1.89,10.15,4.81a2,2,0,0,1,.2.52l-3.32.87c-0.07-.19-0.16-0.52-0.23-0.65-1.43-2.05-3.45-3-6.92-3-4.17,0-6.37,1.56-6.37,3.81,0,1.85.75,3.06,5.4,3.58,1,0.13,3.93.46,4.91,0.59,5.37,0.72,8,2.73,8,6.8C436.86,33.77,433.64,36.69,425.76,36.69Z" transform="translate(-14.93 -11.23)"/><path class="cls-2" d="M28.51,426.38H17.57v-19H28.51v3.3H21.6v4.17H28v3.3H21.6v4.9h6.91v3.33Z" transform="translate(-14.93 -11.23)"/><path class="cls-2" d="M53.79,426.38h-4.6l-4.42-7.19-4.42,7.19H36l6.3-9.8-5.9-9.2h4.44L45,414.22l4-6.83h4.34l-6,9.42Z" transform="translate(-14.93 -11.23)"/><path class="cls-2" d="M78,416.85q0,4.72-2.34,7.25a8.67,8.67,0,0,1-6.71,2.53,8.67,8.67,0,0,1-6.7-2.53q-2.34-2.53-2.34-7.28t2.35-7.24a8.77,8.77,0,0,1,6.72-2.5q4.38,0,6.7,2.52T78,416.85Zm-13.86,0a7.94,7.94,0,0,0,1.21,4.79,4.23,4.23,0,0,0,3.61,1.61q4.82,0,4.82-6.41T69,410.44a4.26,4.26,0,0,0-3.62,1.62A7.9,7.9,0,0,0,64.13,416.85Z" transform="translate(-14.93 -11.23)"/><path class="cls-2" d="M94.36,426.38h-4V410.73H85.17v-3.35H99.51v3.35H94.36v15.64Z" transform="translate(-14.93 -11.23)"/><path class="cls-2" d="M107.72,426.38v-19h4v19h-4Z" transform="translate(-14.93 -11.23)"/><path class="cls-2" d="M129.77,410.46a4.11,4.11,0,0,0-3.52,1.71,8,8,0,0,0-1.25,4.76q0,6.35,4.77,6.35a15.07,15.07,0,0,0,4.85-1v3.38a13.46,13.46,0,0,1-5.22,1,8,8,0,0,1-6.34-2.51q-2.2-2.51-2.2-7.22a11.79,11.79,0,0,1,1.08-5.19,7.8,7.8,0,0,1,3.1-3.42,9.16,9.16,0,0,1,4.74-1.19,12.79,12.79,0,0,1,5.56,1.34l-1.3,3.27a21.71,21.71,0,0,0-2.14-.88A6.4,6.4,0,0,0,129.77,410.46Z" transform="translate(-14.93 -11.23)"/><path class="cls-2" d="M172,416.7q0,4.69-2.67,7.19t-7.71,2.5h-5.38v-19h6q4.65,0,7.22,2.46A9,9,0,0,1,172,416.7Zm-4.18.1q0-6.12-5.41-6.12h-2.14v12.37H162Q167.8,423.05,167.8,416.8Z" transform="translate(-14.93 -11.23)"/><path class="cls-2" d="M185,419.09v7.29h-4v-19h5.54q3.87,0,5.73,1.41a5.62,5.62,0,0,1,.94,7.26,6.1,6.1,0,0,1-2.61,2q4.29,6.41,5.59,8.28h-4.47l-4.53-7.29H185Zm0-3.28h1.3a5,5,0,0,0,2.82-.64,2.28,2.28,0,0,0,.91-2,2.08,2.08,0,0,0-.93-1.92,5.64,5.64,0,0,0-2.88-.57H185v5.13Z" transform="translate(-14.93 -11.23)"/><path class="cls-2" d="M204.1,426.38v-19h4v19h-4Z" transform="translate(-14.93 -11.23)"/><path class="cls-2" d="M234.87,426.38h-5.12L221.48,412h-0.12q0.25,3.81.25,5.43v8.94H218v-19h5.08l8.25,14.23h0.09q-0.19-3.7-.19-5.24v-9h3.63v19Z" transform="translate(-14.93 -11.23)"/><path class="cls-2" d="M260,426.38h-4.57l-5-8-1.7,1.22v6.78h-4v-19h4v8.69l1.59-2.24,5.15-6.46H260l-6.63,8.41Z" transform="translate(-14.93 -11.23)"/><path class="cls-2" d="M279.63,421.1a4.91,4.91,0,0,1-1.85,4.05,8,8,0,0,1-5.15,1.48,12.1,12.1,0,0,1-5.38-1.14v-3.74A22.17,22.17,0,0,0,270.5,423a9.65,9.65,0,0,0,2.44.35,3.46,3.46,0,0,0,2-.51,1.73,1.73,0,0,0,.71-1.51,1.66,1.66,0,0,0-.31-1,3.5,3.5,0,0,0-.92-0.84,23.71,23.71,0,0,0-2.46-1.29,11.64,11.64,0,0,1-2.61-1.57,5.9,5.9,0,0,1-1.39-1.75,5,5,0,0,1-.52-2.34,4.91,4.91,0,0,1,1.71-4,7.1,7.1,0,0,1,4.72-1.44,11.13,11.13,0,0,1,2.83.35,19.43,19.43,0,0,1,2.81,1l-1.3,3.13a19,19,0,0,0-2.51-.87,8.12,8.12,0,0,0-2-.25A2.59,2.59,0,0,0,272,411a1.76,1.76,0,0,0-.61,1.39,1.72,1.72,0,0,0,.25.93,2.71,2.71,0,0,0,.79.77,24.15,24.15,0,0,0,2.55,1.33,10.16,10.16,0,0,1,3.65,2.55A5,5,0,0,1,279.63,421.1Z" transform="translate(-14.93 -11.23)"/><path class="cls-2" d="M318.2,426.38h-4.9l-1.49-1.47a9.59,9.59,0,0,1-5.61,1.73,8,8,0,0,1-5-1.46,4.74,4.74,0,0,1-1.86-3.94,5.6,5.6,0,0,1,.79-3,7.45,7.45,0,0,1,2.7-2.34,8.43,8.43,0,0,1-1.42-2.14,5.55,5.55,0,0,1-.44-2.23,3.87,3.87,0,0,1,1.51-3.18,6.3,6.3,0,0,1,4-1.21,6.14,6.14,0,0,1,3.87,1.12,3.61,3.61,0,0,1,1.45,3,4.82,4.82,0,0,1-.9,2.83,8.91,8.91,0,0,1-2.9,2.44l3.69,3.6a15.93,15.93,0,0,0,1.6-3.91h4.13a18.69,18.69,0,0,1-1.29,3.42,15.6,15.6,0,0,1-1.86,3Zm-14.72-5.51a2.15,2.15,0,0,0,.84,1.78,3.36,3.36,0,0,0,2.15.66,5.6,5.6,0,0,0,2.95-.79l-4.31-4.29a5.46,5.46,0,0,0-1.19,1.2A2.46,2.46,0,0,0,303.48,420.87Zm4.67-9.21a1.35,1.35,0,0,0-.47-1.08,1.8,1.8,0,0,0-1.21-.4,2.08,2.08,0,0,0-1.37.42,1.45,1.45,0,0,0-.5,1.18,4,4,0,0,0,1.23,2.52,7.7,7.7,0,0,0,1.72-1.23A1.94,1.94,0,0,0,308.14,411.66Z" transform="translate(-14.93 -11.23)"/><path class="cls-2" d="M346.22,410.46a4.11,4.11,0,0,0-3.52,1.71,8,8,0,0,0-1.25,4.76q0,6.35,4.77,6.35a15.07,15.07,0,0,0,4.85-1v3.38a13.46,13.46,0,0,1-5.22,1,8,8,0,0,1-6.34-2.51q-2.2-2.51-2.2-7.22a11.79,11.79,0,0,1,1.08-5.19,7.8,7.8,0,0,1,3.1-3.42,9.16,9.16,0,0,1,4.74-1.19,12.79,12.79,0,0,1,5.56,1.34l-1.3,3.27a21.71,21.71,0,0,0-2.14-.88A6.4,6.4,0,0,0,346.22,410.46Z" transform="translate(-14.93 -11.23)"/><path class="cls-2" d="M375.75,426.38h-4v-8.2h-7.52v8.2h-4v-19h4v7.45h7.52v-7.45h4v19Z" transform="translate(-14.93 -11.23)"/><path class="cls-2" d="M402.92,416.85q0,4.72-2.34,7.25a10.14,10.14,0,0,1-13.41,0q-2.34-2.53-2.34-7.28t2.35-7.24a8.77,8.77,0,0,1,6.72-2.5q4.38,0,6.7,2.52T402.92,416.85Zm-13.86,0a7.94,7.94,0,0,0,1.21,4.79,4.23,4.23,0,0,0,3.61,1.61q4.82,0,4.82-6.41t-4.79-6.42a4.26,4.26,0,0,0-3.62,1.62A7.9,7.9,0,0,0,389.05,416.85Z" transform="translate(-14.93 -11.23)"/><path class="cls-2" d="M430.44,426.38h-4.59l-2.57-10q-0.14-.53-0.49-2.2T422.4,412q-0.08.7-.39,2.25t-0.48,2.22l-2.56,10h-4.57l-4.85-19h4l2.43,10.37q0.64,2.87.92,5,0.08-.74.36-2.29t0.53-2.41l2.77-10.64h3.81L427.09,418q0.18,0.71.46,2.18t0.42,2.52q0.13-1,.42-2.53t0.52-2.45l2.42-10.37h4Z" transform="translate(-14.93 -11.23)"/></svg>