<?xml version="1.0" encoding="utf-8"?>
<!-- Generator: Adobe Illustrator 18.0.0, SVG Export Plug-In . SVG Version: 6.00 Build 0)  -->
<!DOCTYPE svg PUBLIC "-//W3C//DTD SVG 1.1//EN" "http://www.w3.org/Graphics/SVG/1.1/DTD/svg11.dtd">
<svg version="1.1" xmlns="http://www.w3.org/2000/svg" xmlns:xlink="http://www.w3.org/1999/xlink" x="0px" y="0px"
	 viewBox="0 0 960 509.7" enable-background="new 0 0 960 509.7" xml:space="preserve">
<g id="Layer_8">
	<rect fill="#53241A" stroke="#7A5C51" stroke-width="2" stroke-miterlimit="10" width="960" height="510"/>
</g>
<g id="map_features">
	<polyline fill="#EE3E80" points="609,137 640.8,137 654.1,177 609,177 609,137 	"/>
</g>
<g id="map_lines">
	<g>
		<defs>
			<rect id="SVGID_1_" width="960" height="510"/>
		</defs>
		<clipPath id="SVGID_2_">
			<use xlink:href="#SVGID_1_"  overflow="visible"/>
		</clipPath>
		<g clip-path="url(#SVGID_2_)">
			<polygon fill="none" stroke="#FA8A3B" stroke-width="2" stroke-miterlimit="10" points="609,89 626.2,89 609,42.2 			"/>
			<polygon fill="none" stroke="#FA8A3B" stroke-width="2" stroke-miterlimit="10" points="667.1,218 609,218 609,305 695.2,305 			
				"/>
			<rect x="264" y="108" fill="none" stroke="#FA8A3B" stroke-width="2" stroke-miterlimit="10" width="96" height="92"/>
			<rect x="484" y="108" fill="none" stroke="#FA8A3B" stroke-width="2" stroke-miterlimit="10" width="105" height="92"/>
			<rect x="378" y="108" fill="none" stroke="#FA8A3B" stroke-width="2" stroke-miterlimit="10" width="87" height="92"/>
			<rect x="378" y="-2" fill="none" stroke="#FA8A3B" stroke-width="2" stroke-miterlimit="10" width="87" height="91"/>
			<rect x="484" y="-2" fill="none" stroke="#FA8A3B" stroke-width="2" stroke-miterlimit="10" width="105" height="91"/>
			<rect x="378" y="218" fill="none" stroke="#FA8A3B" stroke-width="2" stroke-miterlimit="10" width="87" height="87"/>
			<polygon fill="none" stroke="#FA8A3B" stroke-width="2" stroke-miterlimit="10" points="609,200 661.2,200 632,108 609,108 			
				"/>
			<polygon fill="none" stroke="#FA8A3B" stroke-width="2" stroke-miterlimit="10" points="681.8,200 762.7,200 738.8,108 
				652.5,108 			"/>
			<rect x="484" y="218" fill="none" stroke="#FA8A3B" stroke-width="2" stroke-miterlimit="10" width="105" height="87"/>
			<rect x="484" y="328" fill="none" stroke="#FA8A3B" stroke-width="2" stroke-miterlimit="10" width="105" height="95"/>
			<path fill="none" stroke="#FA8A3B" stroke-width="2" stroke-miterlimit="10" d="M980,347.8c-43-43.6-94.9-98.6-130.7-149
				C798,126.9,763.2,40,747.2-2H617.4l29.3,91H734h0h20.3l34.5,128.7l-14.9,0.3l0,0h-86.2l28.1,87h158.1l0,0l11.8-0.3L944.9,423H980
				V347.8z"/>
			<rect x="264" y="-2" fill="none" stroke="#FA8A3B" stroke-width="2" stroke-miterlimit="10" width="96" height="91"/>
			<polygon fill="none" stroke="#FA8A3B" stroke-width="2" stroke-miterlimit="10" points="870.7,328 723.1,328 752.9,423 
				918.2,423 			"/>
			<polygon fill="none" stroke="#FA8A3B" stroke-width="2" stroke-miterlimit="10" points="767,466 787.7,532 980,532 980,466 			
				"/>
			<rect x="264" y="466" fill="none" stroke="#FA8A3B" stroke-width="2" stroke-miterlimit="10" width="96" height="66"/>
			<polygon fill="none" stroke="#FA8A3B" stroke-width="2" stroke-miterlimit="10" points="609,328 609,423 732.4,423 702.5,328 			
				"/>
			<rect x="264" y="328" fill="none" stroke="#FA8A3B" stroke-width="2" stroke-miterlimit="10" width="96" height="95"/>
			<rect x="378" y="328" fill="none" stroke="#FA8A3B" stroke-width="2" stroke-miterlimit="10" width="87" height="95"/>
			<rect x="264" y="218" fill="none" stroke="#FA8A3B" stroke-width="2" stroke-miterlimit="10" width="96" height="87"/>
			<polygon fill="none" stroke="#FA8A3B" stroke-width="2" stroke-miterlimit="10" points="746.4,466 609,466 609,532 767.2,532 			
				"/>
			<rect x="484" y="466" fill="none" stroke="#FA8A3B" stroke-width="2" stroke-miterlimit="10" width="105" height="66"/>
			<rect x="378" y="466" fill="none" stroke="#FA8A3B" stroke-width="2" stroke-miterlimit="10" width="87" height="66"/>
		</g>
	</g>
</g>
<g id="map_text">
	<g>
		<path fill="#FFFFFF" d="M560.6,438.7c-1.3,0-2.4,0.5-3.1,1.5s-1.1,2.4-1.1,4.2c0,3.7,1.4,5.6,4.2,5.6c1.2,0,2.6-0.3,4.3-0.9v3
			c-1.4,0.6-2.9,0.9-4.6,0.9c-2.4,0-4.3-0.7-5.6-2.2c-1.3-1.5-1.9-3.6-1.9-6.3c0-1.7,0.3-3.3,0.9-4.6c0.6-1.3,1.5-2.3,2.7-3
			c1.2-0.7,2.6-1,4.2-1c1.6,0,3.3,0.4,4.9,1.2l-1.1,2.9c-0.6-0.3-1.3-0.6-1.9-0.8C561.8,438.9,561.2,438.7,560.6,438.7z"/>
		<path fill="#FFFFFF" d="M579.4,452.7l-1.2-4h-6.1l-1.2,4H567l5.9-16.8h4.3l5.9,16.8H579.4z M577.3,445.8c-1.1-3.6-1.8-5.6-1.9-6.1
			c-0.1-0.5-0.2-0.8-0.3-1.1c-0.3,1-1,3.4-2.2,7.2H577.3z"/>
		<path fill="#FFFFFF" d="M600.6,452.7h-4.5l-7.3-12.6h-0.1c0.1,2.2,0.2,3.8,0.2,4.8v7.9h-3.2V436h4.5l7.3,12.5h0.1
			c-0.1-2.2-0.2-3.7-0.2-4.6V436h3.2V452.7z"/>
		<path fill="#FFFFFF" d="M615.5,452.7l-1.2-4h-6.1l-1.2,4h-3.8L609,436h4.3l5.9,16.8H615.5z M613.4,445.8c-1.1-3.6-1.8-5.6-1.9-6.1
			c-0.1-0.5-0.2-0.8-0.3-1.1c-0.3,1-1,3.4-2.2,7.2H613.4z"/>
		<path fill="#FFFFFF" d="M621.8,452.7V436h3.5v13.8h6.8v2.9H621.8z"/>
	</g>
	<g>
		<path fill="#FFFFFF" d="M506.9,321.9v-10.6h2.2v10.6H506.9z"/>
		<path fill="#FFFFFF" d="M511.9,311.3h3.3c1.5,0,2.6,0.2,3.3,0.6c0.7,0.4,1,1.1,1,2c0,0.6-0.1,1.2-0.4,1.6s-0.7,0.7-1.2,0.7v0.1
			c0.7,0.2,1.2,0.4,1.5,0.8s0.4,1,0.4,1.6c0,1-0.3,1.7-1,2.3s-1.6,0.8-2.8,0.8h-4V311.3z M514.2,315.5h1.3c0.6,0,1.1-0.1,1.3-0.3
			c0.3-0.2,0.4-0.5,0.4-0.9c0-0.4-0.1-0.7-0.4-0.9c-0.3-0.2-0.8-0.3-1.4-0.3h-1.2V315.5z M514.2,317.3v2.8h1.5
			c0.6,0,1.1-0.1,1.4-0.4c0.3-0.2,0.4-0.6,0.4-1.1c0-0.9-0.6-1.3-1.9-1.3H514.2z"/>
		<path fill="#FFFFFF" d="M528.2,321.9h-6.1v-10.6h6.1v1.8h-3.9v2.3h3.6v1.8h-3.6v2.7h3.9V321.9z"/>
		<path fill="#FFFFFF" d="M532.8,317.9v4.1h-2.2v-10.6h3.1c1.4,0,2.5,0.3,3.2,0.8c0.7,0.5,1,1.3,1,2.4c0,0.6-0.2,1.2-0.5,1.7
			c-0.3,0.5-0.8,0.9-1.5,1.1c1.6,2.4,2.6,3.9,3.1,4.6h-2.5l-2.5-4.1H532.8z M532.8,316h0.7c0.7,0,1.2-0.1,1.6-0.4
			c0.3-0.2,0.5-0.6,0.5-1.1c0-0.5-0.2-0.9-0.5-1.1c-0.3-0.2-0.9-0.3-1.6-0.3h-0.7V316z"/>
		<path fill="#FFFFFF" d="M546.5,311.3h2.3l-3.6,10.6h-2.5l-3.6-10.6h2.3l2,6.3c0.1,0.4,0.2,0.8,0.3,1.3c0.1,0.5,0.2,0.8,0.2,1
			c0.1-0.4,0.2-1.2,0.5-2.3L546.5,311.3z"/>
		<path fill="#FFFFFF" d="M550.5,321.9v-10.6h2.2v10.6H550.5z"/>
		<path fill="#FFFFFF" d="M555.5,321.9v-10.6h2.2v8.8h4.3v1.9H555.5z"/>
		<path fill="#FFFFFF" d="M563.9,321.9v-10.6h2.2v8.8h4.3v1.9H563.9z"/>
		<path fill="#FFFFFF" d="M578.5,321.9h-6.1v-10.6h6.1v1.8h-3.9v2.3h3.6v1.8h-3.6v2.7h3.9V321.9z"/>
	</g>
	<g>
		<path fill="#FFFFFF" d="M370.5,459.3h4.1v2.2h-10.6v-3.1c0-1.4,0.3-2.5,0.8-3.2c0.5-0.7,1.3-1,2.4-1c0.6,0,1.2,0.2,1.7,0.5
			c0.5,0.3,0.9,0.8,1.1,1.5c2.4-1.6,3.9-2.6,4.6-3.1v2.5l-4.1,2.5V459.3z M368.7,459.3v-0.7c0-0.7-0.1-1.2-0.4-1.6
			c-0.2-0.3-0.6-0.5-1.1-0.5c-0.5,0-0.9,0.2-1.1,0.5c-0.2,0.3-0.3,0.9-0.3,1.6v0.7H368.7z"/>
		<path fill="#FFFFFF" d="M369.2,442.2c1.8,0,3.1,0.4,4.1,1.3c0.9,0.9,1.4,2.1,1.4,3.7s-0.5,2.9-1.4,3.7c-0.9,0.9-2.3,1.3-4.1,1.3
			s-3.1-0.4-4-1.3c-0.9-0.9-1.4-2.1-1.4-3.8s0.5-2.9,1.4-3.7C366.1,442.6,367.5,442.2,369.2,442.2z M369.2,449.9
			c1.2,0,2.1-0.2,2.7-0.7c0.6-0.5,0.9-1.1,0.9-2c0-1.8-1.2-2.7-3.6-2.7c-2.4,0-3.6,0.9-3.6,2.7c0,0.9,0.3,1.6,0.9,2
			C367.2,449.7,368,449.9,369.2,449.9z"/>
		<path fill="#FFFFFF" d="M368.3,436.9l-4.4-2.2v-2.4l6.5,3.5h4.1v2.2h-4.1l-6.6,3.5v-2.4L368.3,436.9z"/>
		<path fill="#FFFFFF" d="M374.6,425.1l-2.5,0.8v3.9l2.5,0.8v2.4l-10.7-3.7v-2.8l10.7-3.8V425.1z M370.1,426.4
			c-2.3,0.7-3.6,1.1-3.9,1.2c-0.3,0.1-0.5,0.2-0.7,0.2c0.6,0.2,2.2,0.6,4.6,1.4V426.4z"/>
		<path fill="#FFFFFF" d="M374.6,421h-10.6v-2.2h8.8v-4.3h1.9V421z"/>
	</g>
	<g>
		<path fill="#FFFFFF" d="M471,430.1c0,0.8,0.3,1.5,1,2c0.6,0.5,1.5,0.7,2.7,0.7c2.4,0,3.5-0.9,3.5-2.7c0-0.7-0.2-1.6-0.6-2.7h1.9
			c0.4,0.9,0.5,1.8,0.5,2.9c0,1.5-0.5,2.7-1.4,3.5c-0.9,0.8-2.3,1.2-4,1.2c-1.1,0-2.1-0.2-2.9-0.6c-0.8-0.4-1.5-1-1.9-1.7
			c-0.4-0.8-0.7-1.6-0.7-2.6c0-1,0.2-2.1,0.7-3.1l1.8,0.7c-0.2,0.4-0.4,0.8-0.5,1.2C471,429.3,471,429.7,471,430.1z"/>
		<path fill="#FFFFFF" d="M479.9,416.4v2.2h-4.6v4.2h4.6v2.2h-10.6v-2.2h4.2v-4.2h-4.2v-2.2H479.9z"/>
		<path fill="#FFFFFF" d="M479.9,406.9l-2.5,0.8v3.9l2.5,0.8v2.4l-10.7-3.7v-2.8l10.7-3.8V406.9z M475.4,408.2
			c-2.3,0.7-3.6,1.1-3.9,1.2c-0.3,0.1-0.5,0.2-0.7,0.2c0.6,0.2,2.2,0.6,4.6,1.4V408.2z"/>
		<path fill="#FFFFFF" d="M475.8,400.5h4.1v2.2h-10.6v-3.1c0-1.4,0.3-2.5,0.8-3.2c0.5-0.7,1.3-1,2.4-1c0.6,0,1.2,0.2,1.7,0.5
			c0.5,0.3,0.9,0.8,1.1,1.5c2.4-1.6,3.9-2.6,4.6-3.1v2.5l-4.1,2.5V400.5z M474,400.5v-0.7c0-0.7-0.1-1.2-0.4-1.6
			c-0.2-0.3-0.6-0.5-1.1-0.5c-0.5,0-0.9,0.2-1.1,0.5c-0.2,0.3-0.3,0.9-0.3,1.6v0.7H474z"/>
		<path fill="#FFFFFF" d="M479.9,388.7v2.2h-8.7v2.9h-1.9v-8h1.9v2.9H479.9z"/>
		<path fill="#FFFFFF" d="M475.8,381.7h4.1v2.2h-10.6v-3.1c0-1.4,0.3-2.5,0.8-3.2c0.5-0.7,1.3-1,2.4-1c0.6,0,1.2,0.2,1.7,0.5
			c0.5,0.3,0.9,0.8,1.1,1.5c2.4-1.6,3.9-2.6,4.6-3.1v2.5l-4.1,2.5V381.7z M474,381.7V381c0-0.7-0.1-1.2-0.4-1.6
			c-0.2-0.3-0.6-0.5-1.1-0.5c-0.5,0-0.9,0.2-1.1,0.5c-0.2,0.3-0.3,0.9-0.3,1.6v0.7H474z"/>
		<path fill="#FFFFFF" d="M479.9,367.7v6.1h-10.6v-6.1h1.8v3.9h2.3V368h1.8v3.6h2.7v-3.9H479.9z"/>
		<path fill="#FFFFFF" d="M476.9,358.9c1,0,1.7,0.3,2.3,1c0.6,0.7,0.8,1.6,0.8,2.9c0,1.1-0.2,2.1-0.6,3h-2.1
			c0.3-0.7,0.5-1.3,0.7-1.8c0.1-0.5,0.2-1,0.2-1.4c0-0.5-0.1-0.9-0.3-1.1c-0.2-0.3-0.5-0.4-0.8-0.4c-0.2,0-0.4,0.1-0.6,0.2
			s-0.3,0.3-0.5,0.5c-0.1,0.2-0.4,0.7-0.7,1.4c-0.3,0.6-0.6,1.1-0.9,1.5c-0.3,0.3-0.6,0.6-1,0.8s-0.8,0.3-1.3,0.3
			c-0.9,0-1.7-0.3-2.2-1c-0.5-0.6-0.8-1.5-0.8-2.6c0-0.6,0.1-1.1,0.2-1.6c0.1-0.5,0.3-1,0.6-1.6l1.7,0.7c-0.2,0.6-0.4,1-0.5,1.4
			c-0.1,0.4-0.1,0.7-0.1,1.1c0,0.4,0.1,0.8,0.3,1c0.2,0.2,0.5,0.3,0.8,0.3c0.2,0,0.4,0,0.5-0.1s0.3-0.2,0.4-0.4
			c0.1-0.2,0.4-0.7,0.7-1.4c0.5-1,0.9-1.7,1.4-2C475.6,359.1,476.2,358.9,476.9,358.9z"/>
	</g>
	<g>
		<path fill="#FFFFFF" d="M599.6,399.6c1.7,0,3.1,0.5,4,1.5c0.9,1,1.4,2.4,1.4,4.3v3h-10.6v-3.3c0-1.7,0.5-3.1,1.4-4
			C596.7,400.1,597.9,399.6,599.6,399.6z M599.6,402c-2.3,0-3.4,1-3.4,3v1.2h6.9v-1C603.1,403,602,402,599.6,402z"/>
		<path fill="#FFFFFF" d="M605,391.2v6.1h-10.6v-6.1h1.8v3.9h2.3v-3.6h1.8v3.6h2.7v-3.9H605z"/>
		<path fill="#FFFFFF" d="M596.1,384.5c0,0.8,0.3,1.5,1,2c0.6,0.5,1.5,0.7,2.7,0.7c2.4,0,3.5-0.9,3.5-2.7c0-0.7-0.2-1.6-0.6-2.7h1.9
			c0.4,0.9,0.5,1.8,0.5,2.9c0,1.5-0.5,2.7-1.4,3.5c-0.9,0.8-2.3,1.2-4,1.2c-1.1,0-2.1-0.2-2.9-0.6c-0.8-0.4-1.5-1-1.9-1.7
			c-0.4-0.8-0.7-1.6-0.7-2.6c0-1,0.2-2.1,0.7-3.1l1.8,0.7c-0.2,0.4-0.4,0.8-0.5,1.2C596.2,383.7,596.1,384.1,596.1,384.5z"/>
		<path fill="#FFFFFF" d="M605,372.5l-2.5,0.8v3.9l2.5,0.8v2.4l-10.7-3.7v-2.8l10.7-3.8V372.5z M600.6,373.8
			c-2.3,0.7-3.6,1.1-3.9,1.2c-0.3,0.1-0.5,0.2-0.7,0.2c0.6,0.2,2.2,0.6,4.6,1.4V373.8z"/>
		<path fill="#FFFFFF" d="M605,365.2v2.2h-8.7v2.9h-1.9v-8h1.9v2.9H605z"/>
		<path fill="#FFFFFF" d="M594.4,351.9h6.9c0.8,0,1.5,0.2,2.1,0.5c0.6,0.4,1,0.9,1.4,1.5s0.5,1.4,0.5,2.4c0,1.4-0.3,2.4-1,3.2
			s-1.7,1.1-2.9,1.1h-6.8v-2.2h6.5c0.8,0,1.4-0.2,1.8-0.5c0.4-0.3,0.6-0.9,0.6-1.6c0-0.7-0.2-1.3-0.6-1.6c-0.4-0.3-1-0.5-1.8-0.5
			h-6.5V351.9z"/>
		<path fill="#FFFFFF" d="M600.9,346.9h4.1v2.2h-10.6v-3.1c0-1.4,0.3-2.5,0.8-3.2c0.5-0.7,1.3-1,2.4-1c0.6,0,1.2,0.2,1.7,0.5
			c0.5,0.3,0.9,0.8,1.1,1.5c2.4-1.6,3.9-2.6,4.6-3.1v2.5l-4.1,2.5V346.9z M599.1,346.9v-0.7c0-0.7-0.1-1.2-0.4-1.6
			c-0.2-0.3-0.6-0.5-1.1-0.5c-0.5,0-0.9,0.2-1.1,0.5c-0.2,0.3-0.3,0.9-0.3,1.6v0.7H599.1z"/>
	</g>
	<g>
		<path fill="#FFFFFF" d="M740.4,397.1l0.9,2.7l-6.2,6.9l0,0.1c1.3-0.5,2.3-0.9,2.8-1.1l4.8-1.5l0.6,1.9l-10.1,3.3l-0.9-2.7l6.2-6.8
			l0,0c-1.3,0.5-2.2,0.8-2.8,1l-4.8,1.5l-0.6-1.9L740.4,397.1z"/>
		<path fill="#FFFFFF" d="M738.7,395c-0.4,0.1-0.7,0.1-1,0c-0.3-0.1-0.5-0.4-0.6-0.8c-0.1-0.4-0.1-0.7,0-1c0.1-0.3,0.4-0.5,0.8-0.6
			c0.4-0.1,0.7-0.1,1,0c0.3,0.1,0.5,0.4,0.6,0.8c0.1,0.4,0.1,0.7,0,1S739,394.9,738.7,395z"/>
		<path fill="#FFFFFF" d="M727.7,381.5c1.1-0.4,2-0.3,2.8,0.2c0.8,0.5,1.4,1.4,1.8,2.6l0.3,0.9l3.6-1.2l0.7,2.1l-10.1,3.3l-1-3.2
			c-0.4-1.2-0.4-2.2-0.1-3C726,382.4,726.7,381.9,727.7,381.5z M730.9,385.9l-0.2-0.7c-0.2-0.7-0.5-1.1-0.9-1.4
			c-0.4-0.2-0.8-0.3-1.3-0.1c-0.5,0.2-0.8,0.4-1,0.8c-0.2,0.4-0.1,0.8,0.1,1.4l0.3,1L730.9,385.9z"/>
		<path fill="#FFFFFF" d="M732.2,371.6l1.9,5.8l-10.1,3.3l-1.9-5.8l1.8-0.6l1.2,3.7l2.2-0.7l-1.1-3.4l1.8-0.6l1.1,3.4l2.6-0.8
			l-1.2-3.7L732.2,371.6z"/>
		<path fill="#FFFFFF" d="M730.1,365.2l0.7,2.1l-8.3,2.7l0.9,2.7l-1.8,0.6l-2.5-7.6l1.8-0.6l0.9,2.7L730.1,365.2z"/>
		<path fill="#FFFFFF" d="M726.8,354.9l1.9,5.8l-10.1,3.3l-1.9-5.8l1.8-0.6l1.2,3.7l2.2-0.7l-1.1-3.4l1.8-0.6l1.1,3.4l2.6-0.8
			l-1.2-3.7L726.8,354.9z"/>
		<path fill="#FFFFFF" d="M721.5,351.7l3.9-1.2l0.7,2.1l-10.1,3.3l-0.9-2.9c-0.4-1.4-0.5-2.5-0.2-3.3c0.3-0.8,0.9-1.4,2-1.7
			c0.6-0.2,1.2-0.2,1.7,0s1.1,0.5,1.5,1c1.8-2.3,2.9-3.7,3.4-4.4l0.8,2.4l-3.1,3.7L721.5,351.7z M719.8,352.3l-0.2-0.7
			c-0.2-0.7-0.5-1.1-0.8-1.4c-0.3-0.2-0.7-0.3-1.2-0.1c-0.5,0.2-0.8,0.4-0.9,0.8c-0.1,0.4,0,0.9,0.2,1.6l0.2,0.6L719.8,352.3z"/>
		<path fill="#FFFFFF" d="M718.2,337.7c0.9-0.3,1.7-0.2,2.5,0.3c0.7,0.5,1.3,1.3,1.7,2.5c0.3,1.1,0.5,2.1,0.3,3.1l-2,0.6
			c0.1-0.8,0.1-1.4,0.1-1.9c0-0.5-0.1-1-0.2-1.4c-0.2-0.5-0.4-0.8-0.6-1c-0.3-0.2-0.6-0.2-0.9-0.1c-0.2,0.1-0.4,0.2-0.5,0.3
			c-0.1,0.2-0.2,0.4-0.3,0.6c-0.1,0.3-0.2,0.8-0.3,1.5c-0.1,0.7-0.2,1.3-0.4,1.7c-0.2,0.4-0.4,0.7-0.7,1c-0.3,0.3-0.7,0.5-1.2,0.7
			c-0.9,0.3-1.7,0.2-2.4-0.2c-0.7-0.4-1.2-1.2-1.6-2.3c-0.2-0.5-0.3-1-0.3-1.6c0-0.5,0-1.1,0-1.7l1.9,0.2c0,0.6-0.1,1.1,0,1.5
			s0.1,0.7,0.2,1.1c0.1,0.4,0.3,0.7,0.6,0.8c0.3,0.2,0.5,0.2,0.8,0.1c0.2-0.1,0.3-0.2,0.5-0.3c0.1-0.1,0.2-0.3,0.3-0.6
			c0.1-0.2,0.2-0.8,0.3-1.6c0.1-1.1,0.4-1.9,0.7-2.4S717.5,337.9,718.2,337.7z"/>
	</g>
	<g>
		<path fill="#FFFFFF" d="M837,69.2l10.5-0.9l1.9,3.1l-12.1,4.3l-1.3-2.1l5.7-2c1.4-0.5,2.6-0.9,3.7-1.2l0,0l-10.9,0.9l-1.3-2.1
			l8-5.5l0,0c-0.5,0.2-1.1,0.5-1.9,0.8c-0.8,0.3-3.3,1.2-7.5,2.7l-1.2-2l12.1-4.3l1.8,3L837,69.2L837,69.2z"/>
		<path fill="#FFFFFF" d="M839.1,78.7l12.1-4.3l1.4,2.2l-12.1,4.3L839.1,78.7z"/>
		<path fill="#FFFFFF" d="M849.5,88.5c-1,0.6-2.1,0.8-3.1,0.4c-1-0.4-1.9-1.2-2.7-2.4c-0.7-1.1-1-2.1-0.9-3l2-1.2
			c0,1.3,0.3,2.3,0.8,3.1c0.3,0.5,0.7,0.9,1.1,1.1c0.4,0.2,0.8,0.2,1.1-0.1c0.2-0.1,0.4-0.3,0.5-0.4c0.1-0.2,0.2-0.3,0.3-0.6
			c0.1-0.2,0.1-0.7,0.2-1.4c0.1-1,0.3-1.7,0.6-2.3c0.3-0.6,0.7-1,1.3-1.3c0.6-0.4,1.3-0.6,2-0.6c0.7,0,1.3,0.2,2,0.6
			c0.6,0.4,1.2,1,1.6,1.7c0.6,1.1,1,2.2,1.1,3.4l-2.2,0.2c-0.1-1-0.4-1.8-0.8-2.4c-0.2-0.4-0.6-0.7-0.9-0.8s-0.7-0.1-1.1,0.1
			c-0.3,0.2-0.5,0.4-0.6,0.7s-0.2,0.8-0.2,1.6c0,0.8-0.2,1.5-0.5,2.1C850.6,87.6,850.1,88.1,849.5,88.5z"/>
		<path fill="#FFFFFF" d="M854.6,96.8c-1,0.6-2.1,0.8-3.1,0.4c-1-0.4-1.9-1.2-2.7-2.4c-0.7-1.1-1-2.1-0.9-3l2-1.2
			c0,1.3,0.3,2.3,0.8,3.1c0.3,0.5,0.7,0.9,1.1,1.1c0.4,0.2,0.8,0.2,1.1-0.1c0.2-0.1,0.4-0.3,0.5-0.4c0.1-0.2,0.2-0.3,0.3-0.6
			c0.1-0.2,0.1-0.7,0.2-1.4c0.1-1,0.3-1.7,0.6-2.3c0.3-0.6,0.7-1,1.3-1.3c0.6-0.4,1.3-0.6,2-0.6c0.7,0,1.3,0.2,2,0.6
			c0.6,0.4,1.2,1,1.6,1.7c0.6,1.1,1,2.2,1.1,3.4l-2.2,0.2c-0.1-1-0.4-1.8-0.8-2.4c-0.2-0.4-0.6-0.7-0.9-0.8
			c-0.4-0.1-0.7-0.1-1.1,0.1c-0.3,0.2-0.5,0.4-0.6,0.7s-0.2,0.8-0.2,1.6c0,0.8-0.2,1.5-0.5,2.1C855.7,96,855.2,96.4,854.6,96.8z"/>
		<path fill="#FFFFFF" d="M852.5,100.6l12.1-4.3l1.4,2.2l-12.1,4.3L852.5,100.6z"/>
		<path fill="#FFFFFF" d="M862.9,110.4c-1,0.6-2.1,0.8-3.1,0.4c-1-0.4-1.9-1.2-2.7-2.4c-0.7-1.1-1-2.1-0.9-3l2-1.2
			c0,1.3,0.3,2.3,0.8,3.1c0.3,0.5,0.7,0.9,1.1,1.1c0.4,0.2,0.8,0.2,1.1-0.1c0.2-0.1,0.4-0.3,0.5-0.4c0.1-0.2,0.2-0.3,0.3-0.6
			c0.1-0.2,0.1-0.7,0.2-1.4c0.1-1,0.3-1.7,0.6-2.3c0.3-0.6,0.7-1,1.3-1.4c0.6-0.4,1.3-0.6,2-0.6c0.7,0,1.3,0.2,2,0.6
			c0.6,0.4,1.2,1,1.6,1.7c0.7,1.1,1,2.2,1.1,3.4l-2.2,0.2c-0.1-1-0.4-1.8-0.8-2.4c-0.2-0.4-0.6-0.7-0.9-0.8
			c-0.4-0.1-0.8-0.1-1.1,0.1c-0.3,0.2-0.5,0.4-0.6,0.7c-0.1,0.3-0.2,0.8-0.2,1.6c0,0.8-0.2,1.5-0.5,2.1
			C864,109.5,863.5,110,862.9,110.4z"/>
		<path fill="#FFFFFF" d="M868,118.7c-1,0.6-2.1,0.8-3.1,0.4c-1-0.4-1.9-1.2-2.7-2.4c-0.7-1.1-1-2.1-0.9-3l2-1.2
			c0,1.3,0.3,2.3,0.8,3.1c0.3,0.5,0.7,0.9,1.1,1.1c0.4,0.2,0.8,0.2,1.1-0.1c0.2-0.1,0.4-0.3,0.5-0.4c0.1-0.2,0.2-0.3,0.3-0.6
			c0.1-0.2,0.1-0.7,0.2-1.4c0.1-1,0.3-1.7,0.6-2.3c0.3-0.6,0.7-1,1.3-1.4c0.6-0.4,1.3-0.6,2-0.6c0.7,0,1.3,0.2,2,0.6
			c0.6,0.4,1.2,1,1.6,1.7c0.7,1.1,1,2.2,1.1,3.4l-2.2,0.2c-0.1-1-0.4-1.8-0.8-2.4c-0.2-0.4-0.6-0.7-0.9-0.8
			c-0.4-0.1-0.8-0.1-1.1,0.1c-0.3,0.2-0.5,0.4-0.6,0.7c-0.1,0.3-0.2,0.8-0.2,1.6c0,0.8-0.2,1.5-0.5,2.1
			C869.1,117.8,868.6,118.3,868,118.7z"/>
		<path fill="#FFFFFF" d="M865.9,122.4l12.1-4.3l1.4,2.2l-12.1,4.3L865.9,122.4z"/>
		<path fill="#FFFFFF" d="M881.8,131.3c-1.2,0.7-2.4,0.9-3.5,0.5c-1.2-0.4-2.2-1.4-3.1-2.8l-0.4-0.6l-4.3,1.5l-1.4-2.2l12.1-4.3
			l1.5,2.5c0.7,1.2,1,2.2,0.9,3.2C883.5,129.9,882.9,130.7,881.8,131.3z M876.9,127.6l0.3,0.4c0.4,0.7,0.9,1.1,1.5,1.3
			c0.6,0.2,1.2,0.1,1.7-0.2c0.9-0.5,1-1.3,0.4-2.2l-0.3-0.5L876.9,127.6z"/>
		<path fill="#FFFFFF" d="M887.4,140.4c-1.2,0.7-2.4,0.9-3.5,0.5c-1.2-0.4-2.2-1.4-3.1-2.8l-0.4-0.6l-4.3,1.5l-1.4-2.2l12.1-4.3
			l1.5,2.5c0.7,1.2,1,2.2,0.9,3.2S888.4,139.8,887.4,140.4z M882.5,136.7l0.3,0.4c0.4,0.7,0.9,1.1,1.5,1.3s1.2,0.1,1.7-0.2
			c0.9-0.5,1-1.3,0.4-2.2l-0.3-0.5L882.5,136.7z"/>
		<path fill="#FFFFFF" d="M880.2,145.8l12.1-4.3l1.4,2.2l-12.1,4.3L880.2,145.8z"/>
		<path fill="#FFFFFF" d="M892.1,155.9l-4.7,1.6l-1.4-2.2l12.1-4.3l1.6,2.6c0.7,1.2,1,2.2,0.9,3.1c-0.1,0.9-0.7,1.6-1.7,2.2
			c-0.8,0.5-1.6,0.7-2.4,0.6c-0.8-0.1-1.6-0.4-2.3-1l-3.4,4.7l-1.5-2.4l3.2-4L892.1,155.9z M894.2,155.2l0.4,0.6
			c0.4,0.6,0.8,1.1,1.3,1.2c0.5,0.2,1,0.1,1.6-0.2c0.4-0.2,0.6-0.5,0.7-0.9s-0.1-0.8-0.4-1.3l-0.3-0.5L894.2,155.2z"/>
		<path fill="#FFFFFF" d="M891.9,164.8l12.1-4.3l1.4,2.2l-12.1,4.3L891.9,164.8z"/>
		<path fill="#FFFFFF" d="M899.4,172.2c1.3-0.3,2.2-0.4,2.6-0.5l8.4-0.8l1.4,2.3l-14.1,1.1l-1.5-2.5l10.2-7.5l1.3,2.2l-6.2,4.3
			c-0.2,0.2-0.5,0.4-1,0.6C900,171.9,899.6,172.1,899.4,172.2L899.4,172.2z"/>
		<path fill="#FFFFFF" d="M904.4,185.3l-3.7-6l12.1-4.3l3.7,6l-2.1,0.7l-2.3-3.8l-2.7,0.9l2.1,3.5l-2.1,0.7l-2.1-3.5l-3.1,1.1
			l2.3,3.8L904.4,185.3z"/>
		<path fill="#FFFFFF" d="M912,188.4l-4.7,1.6l-1.4-2.2l12.1-4.3l1.6,2.6c0.7,1.2,1,2.2,0.9,3.1c-0.1,0.9-0.7,1.6-1.7,2.2
			c-0.8,0.5-1.6,0.7-2.4,0.6c-0.8-0.1-1.6-0.4-2.3-1l-3.4,4.7l-1.5-2.4l3.2-4L912,188.4z M914.1,187.7l0.4,0.6
			c0.4,0.6,0.8,1.1,1.3,1.2c0.5,0.2,1,0.1,1.6-0.2c0.4-0.2,0.6-0.5,0.7-0.9s-0.1-0.8-0.4-1.3l-0.3-0.5L914.1,187.7z"/>
	</g>
	<g>
		<path fill="#FFFFFF" d="M528.5,203.2h3.3c1.5,0,2.6,0.2,3.3,0.6s1,1.1,1,2c0,0.6-0.1,1.2-0.4,1.6c-0.3,0.4-0.7,0.7-1.2,0.7v0.1
			c0.7,0.1,1.2,0.4,1.5,0.8s0.4,1,0.4,1.6c0,1-0.3,1.7-1,2.3s-1.6,0.8-2.8,0.8h-4V203.2z M530.8,207.4h1.3c0.6,0,1.1-0.1,1.3-0.3
			c0.3-0.2,0.4-0.5,0.4-0.9c0-0.4-0.1-0.7-0.4-0.9c-0.3-0.2-0.8-0.3-1.4-0.3h-1.2V207.4z M530.8,209.2v2.8h1.5
			c0.6,0,1.1-0.1,1.4-0.4c0.3-0.2,0.4-0.6,0.4-1.1c0-0.9-0.6-1.3-1.9-1.3H530.8z"/>
		<path fill="#FFFFFF" d="M538.7,213.8v-10.6h2.2v10.6H538.7z"/>
		<path fill="#FFFFFF" d="M549.8,213.8h-6.1v-10.6h6.1v1.8H546v2.3h3.6v1.8H546v2.7h3.9V213.8z"/>
		<path fill="#FFFFFF" d="M561.6,213.8h-2.9l-4.6-8h-0.1c0.1,1.4,0.1,2.4,0.1,3v5h-2v-10.6h2.8l4.6,7.9h0.1
			c-0.1-1.4-0.1-2.4-0.1-2.9v-5h2V213.8z"/>
		<path fill="#FFFFFF" d="M570.7,203.2h2.3l-3.6,10.6h-2.5l-3.6-10.6h2.3l2,6.3c0.1,0.4,0.2,0.8,0.3,1.3c0.1,0.5,0.2,0.8,0.2,1
			c0.1-0.4,0.2-1.2,0.5-2.3L570.7,203.2z"/>
		<path fill="#FFFFFF" d="M574.6,213.8v-10.6h2.2v10.6H574.6z"/>
		<path fill="#FFFFFF" d="M579.7,213.8v-10.6h2.2v8.8h4.3v1.9H579.7z"/>
		<path fill="#FFFFFF" d="M588.1,213.8v-10.6h2.2v8.8h4.3v1.9H588.1z"/>
		<path fill="#FFFFFF" d="M602.7,213.8h-6.1v-10.6h6.1v1.8h-3.9v2.3h3.6v1.8h-3.6v2.7h3.9V213.8z"/>
	</g>
	<g>
		<path fill="#FFFFFF" d="M537.1,94.8c-0.8,0-1.5,0.3-2,1c-0.5,0.6-0.7,1.5-0.7,2.7c0,2.4,0.9,3.5,2.7,3.5c0.7,0,1.6-0.2,2.7-0.6
			v1.9c-0.9,0.4-1.8,0.5-2.9,0.5c-1.5,0-2.7-0.5-3.5-1.4c-0.8-0.9-1.2-2.3-1.2-4c0-1.1,0.2-2.1,0.6-2.9c0.4-0.8,1-1.5,1.7-1.9
			c0.8-0.4,1.6-0.7,2.6-0.7c1,0,2.1,0.2,3.1,0.7l-0.7,1.8c-0.4-0.2-0.8-0.4-1.2-0.5C537.9,94.9,537.5,94.8,537.1,94.8z"/>
		<path fill="#FFFFFF" d="M551.5,98.4c0,1.8-0.4,3.1-1.3,4.1c-0.9,0.9-2.1,1.4-3.7,1.4s-2.9-0.5-3.7-1.4c-0.9-0.9-1.3-2.3-1.3-4.1
			s0.4-3.1,1.3-4c0.9-0.9,2.1-1.4,3.8-1.4s2.9,0.5,3.7,1.4C551.1,95.3,551.5,96.6,551.5,98.4z M543.8,98.4c0,1.2,0.2,2.1,0.7,2.7
			c0.5,0.6,1.1,0.9,2,0.9c1.8,0,2.7-1.2,2.7-3.6c0-2.4-0.9-3.6-2.7-3.6c-0.9,0-1.6,0.3-2,0.9C544,96.3,543.8,97.2,543.8,98.4z"/>
		<path fill="#FFFFFF" d="M563.3,103.7h-2.9l-4.6-8h-0.1c0.1,1.4,0.1,2.4,0.1,3v5h-2V93.1h2.8l4.6,7.9h0.1c-0.1-1.4-0.1-2.4-0.1-2.9
			v-5h2V103.7z"/>
		<path fill="#FFFFFF" d="M570.2,103.7H568V95h-2.9v-1.9h8V95h-2.9V103.7z"/>
		<path fill="#FFFFFF" d="M574.9,103.7V93.1h2.2v10.6H574.9z"/>
	</g>
</g>
<g id="street_arrows">
	<g>
		<g>
			<line fill="none" stroke="#FFFFFF" stroke-width="2" stroke-miterlimit="10" x1="644" y1="210" x2="631" y2="210"/>
			<g>
				<polygon fill="#FFFFFF" points="632,205.6 625.1,209.6 632,213.6 				"/>
			</g>
		</g>
	</g>
	<g>
		<g>
			<line fill="none" stroke="#FFFFFF" stroke-width="2" stroke-miterlimit="10" x1="587" y1="99" x2="600" y2="99"/>
			<g>
				<polygon fill="#FFFFFF" points="598,102.8 604.9,98.8 598,94.8 				"/>
			</g>
		</g>
	</g>
	<g>
		<g>
			<line fill="none" stroke="#FFFFFF" stroke-width="2" stroke-miterlimit="10" x1="639" y1="316" x2="652" y2="316"/>
			<g>
				<polygon fill="#FFFFFF" points="651,320.3 657.9,316.3 651,312.3 				"/>
			</g>
		</g>
	</g>
	<g>
		<g>
			<line fill="none" stroke="#FFFFFF" stroke-width="2" stroke-miterlimit="10" x1="599" y1="249" x2="599" y2="262"/>
			<g>
				<polygon fill="#FFFFFF" points="594.6,261 598.6,267.9 602.6,261 				"/>
			</g>
		</g>
	</g>
	<g>
		<g>
			<line fill="none" stroke="#FFFFFF" stroke-width="2" stroke-miterlimit="10" x1="369" y1="475" x2="369" y2="488"/>
			<g>
				<polygon fill="#FFFFFF" points="365.5,487 369.4,493.9 373.4,487 				"/>
			</g>
		</g>
	</g>
	<g>
		<g>
			<line fill="none" stroke="#FFFFFF" stroke-width="2" stroke-miterlimit="10" x1="475" y1="353" x2="475" y2="340"/>
			<g>
				<polygon fill="#FFFFFF" points="479.1,341 475.1,334.1 471.2,341 				"/>
			</g>
		</g>
	</g>
</g>
<g id="water_squiggles">
	<path fill="none" stroke="#FA8A3B" stroke-width="2" stroke-miterlimit="10" d="M812.1,29.9c-0.3,0.1-0.2-0.6,0.2-0.5
		s0.3,0.6,0.4,0.9c0,2.6,2.3,5,4.9,5.2c2.6,0.2,5.2-1.8,5.6-4.4c0.7-0.5,1.2,0.8,1.4,1.7c0.5,2.4,3.8,3.2,5.9,2s3.2-3.6,3.9-5.9
		c1,2.3,2.2,4.8,4.5,5.6c1.8,0.7,4,0.1,5.6-1s2.9-2.7,4.1-4.2c-1.4,2.7,1.3,6.1,4.3,6.1s5.6-2.3,6.9-5"/>
	<path fill="none" stroke="#FA8A3B" stroke-width="2" stroke-miterlimit="10" d="M821.5,42.6c-0.3,0.1-0.2-0.6,0.2-0.5
		c0.3,0.1,0.3,0.6,0.4,0.9c0,2.6,2.3,5,4.9,5.2s5.2-1.8,5.6-4.4c0.7-0.5,1.2,0.8,1.4,1.7c0.5,2.4,3.8,3.2,5.9,2
		c2.1-1.2,3.2-3.6,3.9-5.9c1,2.3,2.2,4.8,4.5,5.6c1.8,0.7,4,0.1,5.6-1c1.6-1.1,2.9-2.7,4.1-4.2c-1.4,2.7,1.3,6.1,4.3,6.1
		c3,0.1,5.6-2.3,6.9-5"/>
	<path fill="none" stroke="#FA8A3B" stroke-width="2" stroke-miterlimit="10" d="M860.2,57.9c-0.3,0.1-0.2-0.6,0.2-0.5
		c0.3,0.1,0.3,0.6,0.4,0.9c0,2.6,2.3,5,4.9,5.2c2.6,0.2,5.2-1.8,5.6-4.4c0.7-0.5,1.2,0.8,1.4,1.7c0.5,2.4,3.8,3.2,5.9,2
		c2.1-1.2,3.2-3.6,3.9-5.9c1,2.3,2.2,4.8,4.5,5.6c1.8,0.7,4,0.1,5.6-1s2.9-2.7,4.1-4.2c-1.4,2.7,1.3,6.1,4.3,6.1s5.6-2.3,6.9-5"/>
	<path fill="none" stroke="#FA8A3B" stroke-width="2" stroke-miterlimit="10" d="M870.2,69.9c-0.3,0.1-0.2-0.6,0.2-0.5
		c0.3,0.1,0.3,0.6,0.4,0.9c0,2.6,2.3,5,4.9,5.2c2.6,0.2,5.2-1.8,5.6-4.4c0.7-0.5,1.2,0.8,1.4,1.7c0.5,2.4,3.8,3.2,5.9,2
		s3.2-3.6,3.9-5.9c1,2.3,2.2,4.8,4.5,5.6c1.8,0.7,4,0.1,5.6-1s2.9-2.7,4.1-4.2c-1.4,2.7,1.3,6.1,4.3,6.1c3,0.1,5.6-2.3,6.9-5"/>
	<path fill="none" stroke="#FA8A3B" stroke-width="2" stroke-miterlimit="10" d="M883.9,209.7c-0.3,0.1-0.2-0.6,0.2-0.5
		c0.3,0.1,0.3,0.6,0.4,0.9c0,2.6,2.3,5,4.9,5.2s5.2-1.8,5.6-4.4c0.7-0.5,1.2,0.8,1.4,1.7c0.5,2.4,3.8,3.2,5.9,2s3.2-3.6,3.9-5.9
		c1,2.3,2.2,4.8,4.5,5.6c1.8,0.7,4,0.1,5.6-1c1.6-1.1,2.9-2.7,4.1-4.2c-1.4,2.7,1.3,6.1,4.3,6.1c3,0.1,5.6-2.3,6.9-5"/>
	<path fill="none" stroke="#FA8A3B" stroke-width="2" stroke-miterlimit="10" d="M894.9,221.7c-0.3,0.1-0.2-0.6,0.2-0.5
		c0.3,0.1,0.3,0.6,0.4,0.9c0,2.6,2.3,5,4.9,5.2s5.2-1.8,5.6-4.4c0.7-0.5,1.2,0.8,1.4,1.7c0.5,2.4,3.8,3.2,5.9,2s3.2-3.6,3.9-5.9
		c1,2.3,2.2,4.8,4.5,5.6c1.8,0.7,4,0.1,5.6-1c1.6-1.1,2.9-2.7,4.1-4.2c-1.4,2.7,1.3,6.1,4.3,6.1c3,0.1,5.6-2.3,6.9-5"/>
</g>
<g id="hotel_bienville">
	<rect x="626.2" y="168.4" fill="#53241A" width="219.9" height="21.1"/>
	<g>
		<path fill="#EE3E80" d="M630.5,185.4l0.2-14.9l4.7,0.1c1.8,0,3,0.4,3.9,1.2c0.8,0.8,1.3,1.8,1.3,3.1c0,1.9-1,2.9-2.8,3
			c1.1,0.2,1.8,0.5,2.3,1.1c0.5,0.5,0.7,1.3,0.7,2.4c0,1.3-0.4,2.3-1.3,3.1c-0.8,0.8-1.9,1.2-3.3,1.1L630.5,185.4z M634.5,182.3
			c0.1,0,0.1,0,0.2,0c0.1,0,0.1,0,0.1,0c0.5,0,0.9-0.1,1.2-0.4c0.3-0.3,0.5-0.6,0.5-1.1c0-0.5-0.1-0.8-0.4-1.1s-0.7-0.4-1.2-0.4
			l-0.3,0L634.5,182.3z M634.6,176.2l0.3,0c0.5,0,0.9-0.1,1.2-0.3c0.3-0.2,0.4-0.5,0.4-0.9c0-0.9-0.5-1.3-1.4-1.3c0,0-0.1,0-0.2,0
			c-0.1,0-0.2,0-0.2,0L634.6,176.2z"/>
		<path fill="#EE3E80" d="M647,185.6l-4,0l0.2-14.9l4,0L647,185.6z"/>
		<path fill="#EE3E80" d="M649.7,185.6l0.2-14.9l7.5,0.1l0,3.6l-3.5,0l0,1.9l3.1,0l0,3.6l-3.1,0l0,2.3l3.5,0l0,3.6L649.7,185.6z"/>
		<path fill="#EE3E80" d="M659.7,185.7l0.2-14.9l3.9,0l2,5.3c0.1,0.3,0.2,0.7,0.4,1.1s0.3,0.9,0.4,1.4l0.4,1.3
			c-0.1-1.3-0.2-2.4-0.3-3.3c-0.1-0.9-0.1-1.7-0.1-2.3l0-3.4l3.9,0l-0.2,14.9l-3.9,0l-2.1-5.5c-0.2-0.6-0.4-1.1-0.6-1.7
			c-0.2-0.5-0.3-1-0.5-1.5c0.1,1.1,0.3,2,0.3,2.8c0.1,0.8,0.1,1.5,0.1,2.1l0,3.8L659.7,185.7z"/>
		<path fill="#EE3E80" d="M679.4,185.9l-4.1,0l-3.2-15l4.2,0.1l0.7,4.3c0.3,1.6,0.5,3.5,0.6,5.5c0.1-0.9,0.2-1.7,0.3-2.5
			c0.1-0.8,0.2-1.5,0.4-2.3l1-4.9l4.4,0.1L679.4,185.9z"/>
		<path fill="#EE3E80" d="M689.2,186.1l-4,0l0.2-14.9l4,0L689.2,186.1z"/>
		<path fill="#EE3E80" d="M699,186.2l-7.1-0.1l0.2-14.9l4,0l-0.1,11.4l3,0L699,186.2z"/>
		<path fill="#EE3E80" d="M707.8,186.3l-7.1-0.1l0.2-14.9l4,0l-0.1,11.4l3,0L707.8,186.3z"/>
		<path fill="#EE3E80" d="M709.5,186.3l0.2-14.9l7.5,0.1l0,3.6l-3.5,0l0,1.9l3.1,0l0,3.6l-3.1,0l0,2.3l3.5,0l0,3.6L709.5,186.3z"/>
		<path fill="#EE3E80" d="M735.7,186.6l-4,0l0.1-6l-1.9,0l-0.1,6l-4,0l0.2-14.9l4,0l-0.1,5.4l1.9,0l0.1-5.4l4,0L735.7,186.6z"/>
		<path fill="#EE3E80" d="M749.4,179.4c0,2.2-0.6,4-1.6,5.3c-1,1.4-2.4,2-4.1,2c-1.5,0-2.7-0.6-3.8-1.6c-1.3-1.3-1.9-3.4-1.9-6
			c0-2.6,0.7-4.5,2.1-5.8c1-1,2.3-1.5,3.7-1.5c1.7,0,3.1,0.7,4.1,2.1C748.9,175.2,749.4,177.1,749.4,179.4z M745.2,179.3
			c0-2.6-0.4-4-1.4-4c-0.5,0-0.9,0.3-1.2,1c-0.3,0.6-0.4,1.6-0.4,2.8c0,1.2,0.1,2.2,0.4,2.9c0.3,0.7,0.6,1,1.1,1
			c0.5,0,0.8-0.3,1.1-1C745.1,181.5,745.2,180.5,745.2,179.3z"/>
		<path fill="#EE3E80" d="M757.8,171.9l4,0l-0.1,10.4c0,0.9-0.2,1.6-0.4,2.1c-0.3,0.6-0.7,1.1-1.4,1.5c-0.9,0.6-1.9,0.9-3.1,0.9
			c-1.4,0-2.5-0.4-3.5-1c-1.2-0.9-1.8-2.2-1.7-4.1l0.1-9.8l4,0l-0.1,9.6c0,0.6,0.1,1.1,0.2,1.4c0.2,0.3,0.4,0.4,0.8,0.4
			c0.4,0,0.7-0.1,0.8-0.4c0.2-0.3,0.2-0.7,0.2-1.4L757.8,171.9z"/>
		<path fill="#EE3E80" d="M764,186.3l0.1-4.6c0.8,1.1,1.6,1.6,2.6,1.7c0.3,0,0.6-0.1,0.9-0.3c0.2-0.2,0.3-0.4,0.3-0.7
			c0-0.4-0.2-0.8-0.7-1.1l-0.7-0.5c-0.4-0.3-0.8-0.6-1.1-1c-0.3-0.3-0.6-0.6-0.7-1c-0.2-0.3-0.3-0.7-0.4-1c-0.1-0.4-0.1-0.7-0.1-1.1
			c0-0.7,0.2-1.4,0.5-2.1c0.2-0.3,0.4-0.7,0.6-0.9c0.2-0.3,0.5-0.5,0.7-0.7c0.8-0.6,1.7-0.9,2.8-0.9c1,0,1.9,0.3,2.9,0.8l-0.1,4.5
			c-0.3-0.5-0.7-0.9-1.1-1.2c-0.4-0.3-0.8-0.5-1.2-0.5c-0.3,0-0.6,0.1-0.8,0.3c-0.2,0.2-0.3,0.4-0.3,0.6c0,0.4,0.3,0.8,0.8,1.2
			l0.6,0.5c0.8,0.6,1.4,1.2,1.8,1.8c0.4,0.6,0.5,1.4,0.5,2.2c0,1.4-0.5,2.6-1.4,3.5c-0.9,0.9-2,1.4-3.4,1.3
			C766.1,187,765.1,186.8,764,186.3z"/>
		<path fill="#EE3E80" d="M774.1,187.1l0.2-14.9l7.5,0.1l0,3.6l-3.5,0l0,1.9l3.1,0l0,3.6l-3.1,0l0,2.3l3.5,0l0,3.6L774.1,187.1z"/>
		<path fill="#EE3E80" d="M800.2,187.4l-4,0l0.1-6l-1.9,0l-0.1,6l-4,0l0.2-14.9l4,0l-0.1,5.4l1.9,0l0.1-5.4l4,0L800.2,187.4z"/>
		<path fill="#EE3E80" d="M813.9,180.1c0,2.2-0.6,4-1.6,5.3c-1,1.4-2.4,2-4.1,2c-1.5,0-2.7-0.6-3.8-1.6c-1.3-1.3-1.9-3.4-1.9-6
			c0-2.6,0.7-4.5,2.1-5.8c1-1,2.3-1.5,3.7-1.5c1.7,0,3.1,0.7,4.1,2.1C813.5,176,814,177.8,813.9,180.1z M809.8,180.1
			c0-2.7-0.4-4-1.4-4c-0.5,0-0.9,0.3-1.2,1c-0.3,0.6-0.4,1.6-0.4,2.8c0,1.2,0.1,2.2,0.4,2.9c0.3,0.7,0.6,1,1.1,1
			c0.5,0,0.8-0.3,1.1-1C809.6,182.2,809.7,181.3,809.8,180.1z"/>
		<path fill="#EE3E80" d="M821.3,187.6l-4,0l0.1-11.4l-2.2,0l0-3.6l8.6,0.1l0,3.6l-2.3,0L821.3,187.6z"/>
		<path fill="#EE3E80" d="M825.3,187.7l0.2-14.9l7.5,0.1l0,3.6l-3.5,0l0,1.9l3.1,0l0,3.6l-3.1,0l0,2.3l3.5,0l0,3.6L825.3,187.7z"/>
		<path fill="#EE3E80" d="M842.3,187.9l-7.1-0.1l0.2-14.9l4,0l-0.1,11.4l3,0L842.3,187.9z"/>
	</g>
</g>
<g id="hotel_arrows">
	<g>
		<g>
			<path fill="#FFFFFF" d="M679.6,120.3c-6.1,12.4-15.8,24.2-28.3,33.7l-0.1,0l0,0l0,0l0.1,0c15.7-0.7,32.3-5,47.8-13.6
				c0,0-2.4-0.3-4.8-0.7c-1.2-0.2-2.4-0.4-3.3-0.6c-0.9-0.2-1.5-0.3-1.5-0.3s0.6-0.6,1.7-1.5c0.6-0.5,1.2-1.1,1.9-1.8
				c0.7-0.7,1.6-1.5,2.5-2.4c0.2-0.2,0.4-0.5,0.7-0.7l0.4-0.4c0.2-0.2,0.4-0.5,0.7-0.7c3.2-3.5,6.3-7.5,8.8-12.4
				c1.2-2.5,2.2-5.1,2.9-8c0.3-1.4,0.5-2.9,0.6-4.4c0.2-1.5,0.1-3,0.1-4.5c-0.4-6-2.5-11.8-5.5-16.8c-2.9-5-6.7-9.3-10.8-13.3
				c-2.1-1.9-4.2-3.8-6.5-5.5c-1.1-0.9-2.3-1.6-3.4-2.4c-1.1-0.8-2.3-1.6-3.4-2.4c-1.2-0.7-2.4-1.5-3.5-2.2
				c-1.2-0.8-2.4-1.4-3.6-2.1c-2.4-1.4-4.9-2.6-7.5-3.9c-5.1-2.4-10.3-4.6-15.6-6.4c-10.6-3.7-21.6-6.1-32.5-7.5
				c-1.4-0.2-2.7-0.3-4.1-0.5c-1.4-0.1-2.7-0.3-4.1-0.4c-2.7-0.2-5.4-0.4-8.1-0.5c-1.3,0-2.7-0.1-4-0.1c-1.3,0-2.7,0-4,0
				c-2.6,0-5.3,0.1-7.9,0.2c-10.5,0.6-20.4,2-29.7,3.8c-9.3,1.7-17.9,3.8-25.8,5.8c-15.8,4-28.8,8.2-37.8,11.1
				c-4.5,1.5-8,2.7-10.4,3.5c-2.4,0.8-3.7,1.3-3.7,1.3l4.3,12c0,0,1.3-0.4,3.6-1.3c2.4-0.8,5.8-2,10.2-3.5c8.8-2.9,21.5-6.9,37-10.9
				c7.7-2,16.1-3.9,25-5.6c8.9-1.7,18.3-3.1,28-3.6c19.3-0.9,40.4,1.4,59.8,8c4.9,1.6,9.6,3.6,14.2,5.8c2.3,1.2,4.6,2.2,6.7,3.5
				c1.1,0.6,2.2,1.2,3.3,1.9c1.1,0.7,2.1,1.3,3.2,2c1.1,0.6,2.1,1.4,3.1,2.1c1,0.7,2,1.4,3,2.2c1.9,1.5,3.7,3,5.5,4.6
				c3.4,3.2,6.4,6.7,8.6,10.4c2.2,3.7,3.5,7.5,3.8,11.1c0,0.9,0.1,1.8,0,2.7c0,0.9-0.2,1.8-0.4,2.6c-0.4,1.7-1,3.5-1.8,5.2
				c-1.7,3.4-4.1,6.5-6.7,9.5c-0.2,0.2-0.4,0.4-0.6,0.7l-0.3,0.3c-0.2,0.2-0.4,0.4-0.6,0.6c-0.8,0.8-1.5,1.5-2.1,2.1
				c-0.7,0.6-1.2,1.2-1.7,1.6c-1,0.9-1.5,1.4-1.5,1.4s-0.1-0.6-0.2-1.4c-0.1-0.9-0.3-2-0.5-3.1C680.1,122.5,679.6,120.3,679.6,120.3
				z"/>
		</g>
	</g>
	<g>
		<g>
			<path fill="#FFFFFF" d="M558.7,169.8c16.6-3.2,30.7-8.6,46.3-10.9l0.1,0l0,0l0,0l-0.1,0c-14.2-7-30.5-11.1-43.8-17
				c1.4,2.7,3,5.3,4.6,8c-3.1-0.2-6.2-0.5-9.3-0.8c-16.7-1.9-33.1-6.4-48.5-13.2l-5.2,11.7c16.6,7.3,34.2,12.2,52.2,14.2
				c3.3,0.4,6.7,0.7,10,0.9C563,165.1,560.9,167.5,558.7,169.8z"/>
		</g>
	</g>
</g>
<g id="logo">
	<g id="logo_halo">
		<path fill="#FFFFFF" d="M512.5,151.2c-1.5-28.4-20.7-76-45.9-99c-25.3-23-52-52.2-88.8-52.2c-61.6,0-98.3,16.5-141.6,30.7
			c-35.2,11.5-96.4,63.7-119.4,115.2c-23,51.4-18.1,72.2-17.6,95.2c0.8,33,28.3,109.8,75,137.4c46.7,27.6,90.3,36.1,126.3,36.1
			c36,0,83.4-33,115.5-47.6c32.1-14.6,84.9-89.8,87.2-108.2C505.6,240.3,514,179.6,512.5,151.2z"/>
		<rect fill="#FFFFFF" width="263.1" height="509.2"/>
		<polyline fill="#FFFFFF" points="258,0 368,0 368,40 258,40 		"/>
	</g>
	<g>
		<path fill="#FA8A3B" stroke="#FA8A3B" stroke-miterlimit="10" d="M468.1,162.6c-1.2-22.2-16.2-59.4-36-77.4
			c-19.8-18-40.8-40.8-69.6-40.8c-48.3,0-77.1,12.9-111,24c-27.6,9-75.6,49.8-93.6,90c-18,40.2-14.2,56.4-13.8,74.4
			c0.6,25.8,22.2,85.8,58.8,107.4c36.6,21.6,70.8,28.2,99,28.2c28.2,0,65.4-25.8,90.6-37.2c25.2-11.4,66.6-70.2,68.4-84.6
			C462.7,232.2,469.3,184.8,468.1,162.6z M440.5,261c-9.6,23.4-44.4,52.8-58.8,61.2c-14.4,8.4-27.6,24-77.4,24
			c-26.5,0-64.8-9-92.4-40.2c-20.8-23.5-39.9-41.6-39.6-80.4c0.6-82.8,61.8-124.2,80.4-138.1c18.6-13.8,56.4-25.2,70.2-27.6
			c13.8-2.4,16.8-6,43.2-6c29.4,0,48,24,60.6,40.8c12.6,16.8,28.2,32.4,31.8,63.6C463.9,205.1,450.1,237.6,440.5,261z"/>
		<path fill="#FA8A3B" stroke="#FA8A3B" stroke-miterlimit="10" d="M428.5,110.3c-14.4-20.4-44.4-48-69.6-48
			c-22.8,0-55.8,7.2-82.8,25.8c-27,18.6-46.8,42-63.6,79.2c-16.8,37.2-15,54.6-15,72c0,17.4,16.2,40.2,31.8,52.8
			c15.6,12.6,19.4,7.5,23.4,12c15,16.8,42,15.6,54.6,19.2c12.6,3.6,11.4,6,30,6c18.6,0,41.4-13.8,54-24c12.6-10.2,26.4-30.6,33-43.2
			c6.6-12.6,14.4-50.4,18-67.2C445.9,178.2,442.9,130.8,428.5,110.3z M417.7,213c-3.6,36-15,66-28.8,73.8c-13.8,7.8-39,27.6-54,27.6
			c-15,0-32.4-6.6-49.8-12.6c-17.4-6-39.6-12.6-46.2-18c-6.6-5.4-19.2-30-19.2-37.2c0-7.2,1.2-19.8,5.4-36.6
			c12.5-50.1,22.8-79.2,81.6-105c9.7-4.3,13.8-7.2,40.2-7.2c26.4,0,48,18,58.2,33.6C415.3,147,421.3,177,417.7,213z"/>
		<path fill="#FA8A3B" stroke="#FA8A3B" stroke-miterlimit="10" d="M397.3,192.6c-3.6-15-17.4-47.4-25.8-54.6
			c-8.4-7.2-16.2-16.2-34.2-16.2c-28.2,0-40.2,2.4-55.2,10.8c-15,8.4-28.8,27-32.4,37.2c-3.6,10.2-16.2,40.2-12,69.6
			c4.2,29.4,10.2,34.8,21,42.6c10.8,7.8,39,19.2,47.4,20.4c8.4,1.2,32.4,2.4,37.2-0.6c4.8-3,42-19.2,45.6-26.4
			c3.6-7.2,10.8-27.6,10.2-39C398.5,225,400.9,207.6,397.3,192.6z M376.3,256.2c-5.4,8.4-24.6,25.2-53.4,25.2
			c-28.8,0-62.4-27.6-62.4-49.2c0-21.6,9-57,18-73.8c9-16.8,36.7-23.6,51-25.2c5.4-0.6,5.4,0,16.2,0c10.8,0,25.2,23.4,30,34.8
			c4.8,11.4,8.4,25.2,11.4,35.4C390.1,213.6,381.7,247.8,376.3,256.2z"/>
		<path fill="#FA8A3B" stroke="#FA8A3B" stroke-miterlimit="10" d="M317.5,143.4c-8.4,1-36.6,5.4-36.6,51.6
			c0,46.2,19.8,55.8,42.6,53.4c22.8-2.4,54-16.8,54-28.2c0-11.4-10.8-34.2-14.4-43.8c-3.6-9.6-4.8-27.5-24.6-31.2
			C328.9,143.4,322.3,142.8,317.5,143.4z"/>
	</g>
	<g>
		<path fill="#53241A" d="M209.5,154.7c6.3-16.1,25-46.7,56.6-46.7c31.6,0,36.7,25.2,36.7,39.9c0,22.8-15.2,48.1-57.2,89l97.9,4.5
			l0.3,16.2c-37.1,1.2-92.5,6.9-125.4,12.6l-1.3-30.3c19.6-16,55-48.5,55-80.3c0-15.2-9.5-22-19.3-22c-9.8,0-20.6,3.9-33.8,24.2
			L209.5,154.7z"/>
		<path fill="#53241A" d="M353.9,127.7c-19.6,0-47.5,22.1-47.5,54.4c0,33.3,21,49.8,39.8,49.8c14.3,0,23.1-5.6,29.3-14.5
			c-4.9,46.1-17,73.1-45.5,73.1c-16.2,0-23-3.7-33.5-11.2l-8.5,9.8c6.4,7.3,22.7,18.3,48.2,18.3c47.7,0,70.4-52.4,70.4-94.5
			C406.8,159.4,391.2,127.7,353.9,127.7z M355.9,214c-9.8,0-17.4-12.3-17.4-32.6c0-20.3,8.5-36.7,18.4-36.7
			c10.8,0,15.7,15.7,15.7,35.9C372.7,195.6,365.7,214,355.9,214z"/>
	</g>
	<g>
		<path fill="#53241A" d="M22.6,446.8l1.8-44.2c0,0,54.1,10.6,78.9,10.6c11.2,0,29.8-3.2,29.5-31c-0.2-12.3-2.6-33.7-2.6-33.7
			l12.6-3.2c0.3,26.7,6,70.8,11.1,95.9c-37.5-11.6-67.6-15-89.1-15c-21.5,0-30,7.5-32.4,22.5L22.6,446.8z"/>
		<path fill="#53241A" d="M131.3,294.4c0,31.9-10.7,43.3-48.3,43.3c-22.2,0-37.6,4.8-37.6,29.6c0,24.9,23.8,30.3,38.1,30.3
			l-6.5-16.9c-17.5,0-22-7.9-22-14.3c0-5.1,2.9-11.3,11.9-11.3c22.8,0,17.5,42.6,40.9,42.6c9.7,0,16.3-7.7,16.3-18.2
			c0-14-10.6-24.7-17.6-28c32.3-7.6,35.6-33.5,33.5-57.7L131.3,294.4z M107.9,369.7c0,2.5-1.4,5.9-5.3,5.9
			c-5.3,0-11.3-7.6-11.3-16.3c0-2.7,1.3-4.5,3.7-4.5C100,354.8,107.9,361.9,107.9,369.7z"/>
		<path fill="#53241A" d="M18,387.4c2.2-35.1,3.7-85.1,2.2-112.4l16.7-0.7c0,26.1,3.8,33.1,25.9,35.7c17.7,2.1,49.5-0.1,49.5-0.1
			l-0.6,16.8c-8-1.9-30.1-2.7-43-2.7c-24.8,0-44.6,7.1-35.8,63.3L18,387.4z"/>
		<g>
			<path fill="#53241A" d="M67.6,298.4c0-7.6-1.1-17.5-4.2-23.9c5,0.5,21.1,1.2,30.8,1.2c10.5,0,19.9-3,19.2-9.9l12.2-0.3
				c-1.3,10.6-2.3,25.5-0.1,39.3l-9.4-0.7c0-7-5.4-14.6-17.8-14.6c-15.3,0-19.3,5.3-19.7,10.1L67.6,298.4z"/>
			<path fill="#53241A" d="M44.2,286.8c0-6.1,3.7-9.7,7.5-9.7c6.4,0,9.1,5.1,9.1,10.9c0,5.9-4.7,8.4-7.3,8.4
				C49.2,296.4,44.2,292.7,44.2,286.8z"/>
		</g>
		<path fill="#53241A" d="M48.3,256.7l-14.7,0.5c0.2-7.7-1.7-19.1-5.7-27.1l17.6,2.1l-1.3-29.9L57,203c0,25.6,5.8,34.8,32.8,35.6
			c45.8,1.4,47.2-14.4,44.6-36.5l8.8-2.7c3.1,13.2,3.8,29.1,1.3,36.8c-6.4,19.7-16.8,19.1-68.5,20.2c-10.4,0.2-12,1.6-12.3,13.1
			l-15.7,1.5L48.3,256.7z"/>
		<path fill="#53241A" d="M68.6,226.2l10.8,1.9c0,0-0.9-9.2,7.3-9.2c6,0,18,3.2,26,3.2c8,0,12.3-6,12.3-12.9c0-7-4-15.6-13.6-18.1
			c8.2,0.5,24.9-2.2,27.9-30.8l-8.3-1c-2.4,10.9-5.3,19.6-25.7,19.6c-20.4,0-53.2-3.2-53.2-3.2l-5,17.2c16.9-0.5,32-0.9,39.3-0.9
			c7.3,0,21.2,1.6,21.2,7.6c0,5.3-11.6,5.1-16.2,5.1c-4.6,0-24.1-2.7-24.1-2.7S68.9,217.8,68.6,226.2z"/>
		<path fill="#53241A" d="M21.4,172.4c0,28.8,0.7,37,0.7,37l12.3,1.2c0-28.3-2.4-46.1,37.1-46.1c19.1,0,47,1.4,47,1.4
			c0-17.9-3.4-47.5-49.1-47.5C23.8,118.3,21.4,143.6,21.4,172.4z M102.4,148.1c0,5.4-28.9,5.3-35.7,5.3c-6.8,0-29.8,0-29.8-6.3
			c0-6.3,16-9,28.1-9C81.9,138,102.4,141.4,102.4,148.1z"/>
		<path fill="#53241A" d="M82.4,45.3l-1.5,51.3c-3,0-6.3,0.1-9.8,0.1c-41.8,0-41-12.9-40.4-35.8l-12.9-5.5
			c1.2,22.5-2.9,58.6-2.9,58.6c20.1-3.1,36.6-4.9,64.9-4.9c33.9,0,48.7,15,53,42.5l8.1-1.1c-5.1-25.4-5.3-63.2-3.7-84.2l-13.5,0.1
			c-1.4,21.6-6.1,27.9-26.9,29.7l-4.9-47.1L82.4,45.3z"/>
	</g>
</g>
<g id="BB">
	<g>
		<path fill="#EE3E80" d="M25.4,34.3H15.2V14h10c4,0,6.6,1.2,6.6,4.7c0,2.4-1.5,3.8-3,4.2c2,0.4,4.3,1.6,4.3,5.2
			C33.2,31.5,31.4,34.3,25.4,34.3z M24.7,16.1h-6.9v6.1h7.1c2.9,0,4.2-1.2,4.2-3.3C29.1,16.8,27.6,16.1,24.7,16.1z M25.3,24.2h-7.4
			v8.1H25c4,0,5.5-1.6,5.5-4.3C30.5,25.3,28.4,24.2,25.3,24.2z"/>
		<path fill="#EE3E80" d="M39.8,31.6V11.2H56l-0.7,2.1H42.5v6.1h10.7v2.1H42.5v7.9h12.7l0.8,2.1H39.8z"/>
		<path fill="#EE3E80" d="M76.3,34.3l-1.9-4.7H64.2l-1.9,4.7h-2.8L67.8,14h3l8.3,20.4H76.3z M70.6,20.2c-0.1-0.3-1.2-3.3-1.3-3.8
			c0,0.4-1.3,3.5-1.3,3.8l-3.1,7.4h8.7L70.6,20.2z"/>
		<path fill="#EE3E80" d="M97.5,17c-1.3-2.6-3.3-3.8-5.6-3.8c-3.9,0-6.8,2.5-6.8,8.1c0,6,3.1,8.4,6.7,8.4c2.6,0,4.8-1.2,5.9-4.2
			l2.6,0.7c-1.3,3.7-4.1,5.6-8.5,5.6c-5.3,0-9.5-3-9.5-10.5c0-7.2,4.4-10.2,9.6-10.2c4.1,0,6.7,1.7,8.2,5.2L97.5,17z"/>
		<path fill="#EE3E80" d="M121.3,34.3V24.2h-12.5v10.2h-2.7V14h2.7v8.1h12.5V14h2.7v20.4H121.3z"/>
		<path fill="#EE3E80" d="M141.2,31.6H131V11.2h10c4,0,6.6,1.2,6.6,4.7c0,2.4-1.5,3.8-3,4.2c2,0.4,4.3,1.6,4.3,5.2
			C149,28.8,147.3,31.6,141.2,31.6z M140.5,13.3h-6.8v6.1h7.1c2.9,0,4.1-1.2,4.1-3.3C144.9,14.1,143.4,13.3,140.5,13.3z M141.1,21.4
			h-7.4v8.1h7.1c4,0,5.5-1.6,5.5-4.3C146.3,22.6,144.2,21.4,141.1,21.4z"/>
		<path fill="#EE3E80" d="M163.4,34.5c-6,0-8.4-2.5-8.4-8.1c0-0.3,0-12.1,0-12.5h2.6c0,2.4,0,12.1,0,12.4c0,3.9,1.6,6,5.8,6
			c4.3,0,5.7-2.3,5.7-6c0-0.3,0-10.6,0-12.4h2.6c0,0.3,0,11.8,0,12.6C171.8,31.4,169.6,34.5,163.4,34.5z"/>
		<path fill="#EE3E80" d="M197.6,31.6V18.1c0-0.4,0-3.2,0-3.6c-0.1,0.3-1.2,3-1.2,3.4l-5.7,13.7h-2.2c0,0-5.8-13.7-5.8-13.7
			c-0.1-0.3-1.2-3.1-1.3-3.4c0,0.3,0,3.3,0,3.6v13.5h-2.6V11.2h3.6l5.8,13.2c0.1,0.4,1.3,3.8,1.3,3.8s1.2-3.4,1.2-3.8l5.7-13.2h3.6
			v20.4H197.6z"/>
		<path fill="#EE3E80" d="M226.7,34.3h-10.2V14h10c4,0,6.6,1.2,6.6,4.7c0,2.4-1.5,3.8-3,4.2c2,0.4,4.3,1.6,4.3,5.2
			C234.5,31.5,232.8,34.3,226.7,34.3z M226,16.1h-6.8v6.1h7.1c2.9,0,4.2-1.2,4.2-3.3C230.4,16.8,228.9,16.1,226,16.1z M226.6,24.2
			h-7.4v8.1h7.1c4,0,5.5-1.6,5.5-4.3C231.8,25.3,229.7,24.2,226.6,24.2z"/>
		<path fill="#EE3E80" d="M241.2,31.6V11.2h16.1l-0.7,2.1h-12.8v6.1h10.7v2.1h-10.7v7.9h12.7l0.8,2.1H241.2z"/>
		<path fill="#EE3E80" d="M277.6,34.3l-5.5-10.1h-6.4v10.1H263V14c0.2,0,10.8,0,10.8,0c4.5,0,6.6,2,6.6,5.2c0,3-1.8,4.7-5.5,4.9
			l5.6,10.3H277.6z M273.4,16.1c0,0-7.5,0-7.7,0v6.1h8c3,0,4.1-1.2,4.1-3C277.8,17.2,276.5,16.1,273.4,16.1z"/>
		<path fill="#EE3E80" d="M301.5,31.6L296,21.5h-6.4v10.1H287V11.2c0.2,0,10.8,0,10.8,0c4.5,0,6.6,2,6.6,5.2c0,3-1.8,4.7-5.5,4.9
			l5.6,10.3H301.5z M297.3,13.3c0,0-7.5,0-7.7,0v6.1h8c3,0,4.1-1.2,4.1-3C301.7,14.5,300.4,13.3,297.3,13.3z"/>
		<path fill="#EE3E80" d="M318.8,27.7v6.6h-2.7v-6.6l-8-13.7h3l4.9,8.5c0.1,0.2,1.4,2.5,1.4,2.8c0.1-0.3,1.3-2.5,1.3-2.6l5.1-8.7h3
			L318.8,27.7z"/>
		<path fill="#EE3E80" d="M330.8,20.7l-0.3-1.2c1.4-0.2,1.8-0.7,1.9-2h-1.7v-3.6h3.7v3.5C334.4,19.2,333.4,20.6,330.8,20.7z"/>
		<path fill="#EE3E80" d="M349.1,31.8c-6.2,0-8.5-2.4-9.3-5.4c0-0.2-0.1-0.5-0.1-0.7l3.1-0.7c0,0.3,0,0.6,0.1,0.9
			c0.7,2.1,2.4,3.8,6.3,3.8c4.4,0,6.1-1.6,6.1-4.2c0-2.1-1.2-3.3-4.5-3.8c-1.5-0.2-2.3-0.3-4.2-0.5c-4-0.4-6.2-1.8-6.2-4.8
			c0-3.1,2.7-5.4,8.1-5.4c4.6,0,7.1,1.5,8.3,3.9c0.1,0.1,0.1,0.2,0.2,0.4l-2.7,0.7c-0.1-0.2-0.1-0.4-0.2-0.5
			c-1.2-1.7-2.8-2.4-5.6-2.4c-3.4,0-5.2,1.3-5.2,3.1c0,1.5,0.6,2.5,4.4,2.9c0.8,0.1,3.2,0.4,4,0.5c4.4,0.6,6.5,2.2,6.5,5.5
			C358.1,29.4,355.5,31.8,349.1,31.8z"/>
	</g>
</g>
<g id="Layer_12">
	<g>
		<path fill="#53241A" d="M24.2,488.2h-7.4v-12.8h7.4v2.2h-4.7v2.8h4.4v2.2h-4.4v3.3h4.7V488.2z"/>
		<path fill="#53241A" d="M38.6,488.2h-3.1l-3-4.9l-3,4.9h-2.9l4.3-6.6l-4-6.2h3l2.8,4.6l2.7-4.6h2.9l-4,6.4L38.6,488.2z"/>
		<path fill="#53241A" d="M52.4,481.8c0,2.1-0.5,3.8-1.6,4.9s-2.6,1.7-4.5,1.7s-3.5-0.6-4.5-1.7s-1.6-2.8-1.6-4.9s0.5-3.8,1.6-4.9
			s2.6-1.7,4.5-1.7s3.5,0.6,4.5,1.7S52.4,479.6,52.4,481.8z M43,481.8c0,1.4,0.3,2.5,0.8,3.2s1.4,1.1,2.4,1.1c2.2,0,3.3-1.4,3.3-4.3
			c0-2.9-1.1-4.3-3.2-4.3c-1.1,0-1.9,0.4-2.5,1.1C43.3,479.3,43,480.3,43,481.8z"/>
		<path fill="#53241A" d="M60.8,488.2h-2.7v-10.6h-3.5v-2.3h9.7v2.3h-3.5V488.2z"/>
		<path fill="#53241A" d="M67.2,488.2v-12.8h2.7v12.8H67.2z"/>
		<path fill="#53241A" d="M79.5,477.4c-1,0-1.8,0.4-2.4,1.2c-0.6,0.8-0.8,1.8-0.8,3.2c0,2.9,1.1,4.3,3.2,4.3c0.9,0,2-0.2,3.3-0.7
			v2.3c-1.1,0.4-2.2,0.7-3.5,0.7c-1.9,0-3.3-0.6-4.3-1.7c-1-1.1-1.5-2.8-1.5-4.9c0-1.3,0.2-2.5,0.7-3.5s1.2-1.8,2.1-2.3
			c0.9-0.5,2-0.8,3.2-0.8c1.2,0,2.5,0.3,3.8,0.9l-0.9,2.2c-0.5-0.2-1-0.4-1.5-0.6S79.9,477.4,79.5,477.4z"/>
		<path fill="#53241A" d="M102.6,481.7c0,2.1-0.6,3.7-1.8,4.9s-2.9,1.7-5.2,1.7H92v-12.8h4c2.1,0,3.7,0.6,4.9,1.7
			S102.6,479.7,102.6,481.7z M99.8,481.7c0-2.8-1.2-4.1-3.7-4.1h-1.5v8.4h1.2C98.5,486,99.8,484.6,99.8,481.7z"/>
		<path fill="#53241A" d="M108.8,483.3v4.9h-2.7v-12.8h3.7c1.7,0,3,0.3,3.9,1c0.8,0.6,1.3,1.6,1.3,2.9c0,0.8-0.2,1.4-0.6,2
			c-0.4,0.6-1,1-1.8,1.4c1.9,2.9,3.2,4.8,3.8,5.6h-3l-3.1-4.9H108.8z M108.8,481.1h0.9c0.9,0,1.5-0.1,1.9-0.4s0.6-0.7,0.6-1.4
			c0-0.6-0.2-1-0.6-1.3s-1.1-0.4-1.9-0.4h-0.8V481.1z"/>
		<path fill="#53241A" d="M119,488.2v-12.8h2.7v12.8H119z"/>
		<path fill="#53241A" d="M137.2,488.2h-3.5l-5.6-9.7h-0.1c0.1,1.7,0.2,2.9,0.2,3.7v6h-2.4v-12.8h3.4l5.6,9.6h0.1
			c-0.1-1.7-0.1-2.9-0.1-3.5v-6.1h2.5V488.2z"/>
		<path fill="#53241A" d="M151.6,488.2h-3.1l-3.4-5.4l-1.2,0.8v4.6h-2.7v-12.8h2.7v5.9l1.1-1.5l3.5-4.4h3l-4.5,5.7L151.6,488.2z"/>
		<path fill="#53241A" d="M162.2,484.6c0,1.2-0.4,2.1-1.3,2.7s-2,1-3.5,1c-1.4,0-2.6-0.3-3.6-0.8v-2.5c0.9,0.4,1.6,0.7,2.2,0.8
			s1.1,0.2,1.6,0.2c0.6,0,1.1-0.1,1.4-0.3s0.5-0.6,0.5-1c0-0.3-0.1-0.5-0.2-0.7c-0.1-0.2-0.3-0.4-0.6-0.6s-0.8-0.5-1.7-0.9
			c-0.8-0.4-1.4-0.7-1.8-1.1s-0.7-0.7-0.9-1.2s-0.4-1-0.4-1.6c0-1.1,0.4-2,1.2-2.7s1.8-1,3.2-1c0.7,0,1.3,0.1,1.9,0.2
			s1.2,0.4,1.9,0.7l-0.9,2.1c-0.7-0.3-1.3-0.5-1.7-0.6s-0.9-0.2-1.3-0.2c-0.5,0-0.9,0.1-1.2,0.4s-0.4,0.6-0.4,0.9
			c0,0.2,0.1,0.5,0.2,0.6c0.1,0.2,0.3,0.4,0.5,0.5c0.2,0.2,0.8,0.5,1.7,0.9c1.2,0.6,2,1.2,2.5,1.7
			C162,483.1,162.2,483.8,162.2,484.6z"/>
		<path fill="#53241A" d="M182.9,488.2h-3.3l-1-1c-1.1,0.8-2.4,1.2-3.8,1.2c-1.4,0-2.6-0.3-3.4-1s-1.3-1.5-1.3-2.7
			c0-0.8,0.2-1.5,0.5-2.1s1-1.1,1.8-1.6c-0.4-0.5-0.8-1-1-1.4c-0.2-0.5-0.3-1-0.3-1.5c0-0.9,0.3-1.6,1-2.2s1.6-0.8,2.7-0.8
			c1.1,0,2,0.3,2.6,0.8s1,1.2,1,2c0,0.7-0.2,1.3-0.6,1.9c-0.4,0.6-1.1,1.1-2,1.6l2.5,2.4c0.4-0.7,0.8-1.6,1.1-2.6h2.8
			c-0.2,0.8-0.5,1.6-0.9,2.3s-0.8,1.4-1.3,2L182.9,488.2z M172.9,484.5c0,0.5,0.2,0.9,0.6,1.2s0.9,0.4,1.5,0.4c0.7,0,1.4-0.2,2-0.5
			l-2.9-2.9c-0.3,0.3-0.6,0.5-0.8,0.8S172.9,484.1,172.9,484.5z M176.1,478.3c0-0.3-0.1-0.6-0.3-0.7s-0.5-0.3-0.8-0.3
			c-0.4,0-0.7,0.1-0.9,0.3s-0.3,0.5-0.3,0.8c0,0.5,0.3,1.1,0.8,1.7c0.5-0.3,0.9-0.6,1.2-0.8C175.9,478.9,176.1,478.6,176.1,478.3z"
			/>
		<path fill="#53241A" d="M196.4,477.4c-1,0-1.8,0.4-2.4,1.2c-0.6,0.8-0.8,1.8-0.8,3.2c0,2.9,1.1,4.3,3.2,4.3c0.9,0,2-0.2,3.3-0.7
			v2.3c-1.1,0.4-2.2,0.7-3.5,0.7c-1.9,0-3.3-0.6-4.3-1.7c-1-1.1-1.5-2.8-1.5-4.9c0-1.3,0.2-2.5,0.7-3.5s1.2-1.8,2.1-2.3
			c0.9-0.5,2-0.8,3.2-0.8c1.2,0,2.5,0.3,3.8,0.9l-0.9,2.2c-0.5-0.2-1-0.4-1.5-0.6S196.9,477.4,196.4,477.4z"/>
		<path fill="#53241A" d="M213.8,488.2H211v-5.5H206v5.5h-2.7v-12.8h2.7v5h5.1v-5h2.7V488.2z"/>
		<path fill="#53241A" d="M229.5,481.8c0,2.1-0.5,3.8-1.6,4.9s-2.6,1.7-4.5,1.7s-3.5-0.6-4.5-1.7s-1.6-2.8-1.6-4.9s0.5-3.8,1.6-4.9
			s2.6-1.7,4.5-1.7s3.5,0.6,4.5,1.7S229.5,479.6,229.5,481.8z M220.1,481.8c0,1.4,0.3,2.5,0.8,3.2s1.4,1.1,2.4,1.1
			c2.2,0,3.3-1.4,3.3-4.3c0-2.9-1.1-4.3-3.2-4.3c-1.1,0-1.9,0.4-2.5,1.1C220.4,479.3,220.1,480.3,220.1,481.8z"/>
		<path fill="#53241A" d="M245.5,488.2h-3.1l-1.7-6.8c-0.1-0.2-0.2-0.7-0.3-1.5c-0.2-0.8-0.2-1.3-0.3-1.5c0,0.3-0.1,0.8-0.3,1.5
			s-0.2,1.2-0.3,1.5l-1.7,6.7h-3.1l-3.3-12.8h2.7l1.6,7c0.3,1.3,0.5,2.4,0.6,3.4c0-0.3,0.1-0.9,0.2-1.6c0.1-0.7,0.2-1.2,0.4-1.6
			l1.9-7.2h2.6l1.9,7.2c0.1,0.3,0.2,0.8,0.3,1.5s0.2,1.2,0.3,1.7c0.1-0.5,0.2-1,0.3-1.7c0.1-0.7,0.2-1.2,0.4-1.7l1.6-7h2.7
			L245.5,488.2z"/>
	</g>
	<g>
	</g>
	<g>
	</g>
	<g>
	</g>
	<g>
	</g>
	<g>
	</g>
	<g>
	</g>
	<g>
	</g>
	<g>
	</g>
	<g>
	</g>
	<g>
	</g>
	<g>
	</g>
	<g>
	</g>
	<g>
	</g>
	<g>
	</g>
	<g>
	</g>
	<g>
	</g>
</g>
</svg>
