<svg id="Layer_8" data-name="Layer 8" xmlns="http://www.w3.org/2000/svg" xmlns:xlink="http://www.w3.org/1999/xlink" viewBox="0 0 633 510"><defs><style>.cls-1,.cls-5,.cls-7{fill:none;}.cls-2{fill:#53241a;}.cls-3{fill:#ee3e80;}.cls-4{clip-path:url(#clip-path);}.cls-10,.cls-5{stroke:#fa8a3b;}.cls-10,.cls-5,.cls-7,.cls-9{stroke-miterlimit:10;}.cls-5,.cls-7{stroke-width:2px;}.cls-6,.cls-9{fill:#fff;}.cls-7,.cls-9{stroke:#fff;}.cls-8{fill:#f2f2f2;}.cls-10{fill:#fa8a3b;}</style><clipPath id="clip-path"><rect class="cls-1" x="-327" y="0.17" width="960" height="510"/></clipPath></defs><title>Latitude Map-solo-01</title><rect class="cls-2" x="-63.96" y="0.17" width="696.96" height="510"/><polyline class="cls-3" points="282 137 313.76 137 327.15 177 282 177 282 137"/><g class="cls-4"><polygon class="cls-5" points="282 89 299.16 89 282 42.34 282 89"/><polygon class="cls-5" points="340.1 218 282 218 282 305 368.21 305 340.1 218"/><rect class="cls-5" x="-63" y="108" width="96" height="92"/><rect class="cls-5" x="157" y="108" width="105" height="92"/><rect class="cls-5" x="51" y="108" width="87" height="92"/><rect class="cls-5" x="51" y="-2" width="87" height="91"/><rect class="cls-5" x="157" y="-2" width="105" height="91"/><rect class="cls-5" x="51" y="218" width="87" height="87"/><polygon class="cls-5" points="282 200 334.25 200 305.01 108 282 108 282 200"/><polygon class="cls-5" points="354.79 200 435.7 200 411.82 108 325.55 108 354.79 200"/><rect class="cls-5" x="157" y="218" width="105" height="87"/><rect class="cls-5" x="157" y="328" width="105" height="95"/><path class="cls-5" d="M653,348c-43-43.57-94.89-98.69-130.74-149C471,127,436.18,40,420.16-2H290.38L319.7,89H427.28l34.46,128.72-14.87.28H360.63l28.11,87H546.87l11.8-.28L617.91,423H653V348Z"/><rect class="cls-5" x="-63" y="-2" width="96" height="91"/><polygon class="cls-5" points="543.7 328 396.07 328 425.94 423 591.21 423 543.7 328"/><polygon class="cls-5" points="439.97 466 460.75 532 653 532 653 466 439.97 466"/><rect class="cls-5" x="-63" y="466" width="96" height="66"/><polygon class="cls-5" points="282 328 282 423 405.4 423 375.53 328 282 328"/><rect class="cls-5" x="-63" y="328" width="96" height="95"/><rect class="cls-5" x="51" y="328" width="87" height="95"/><rect class="cls-5" x="-63" y="218" width="96" height="87"/><polygon class="cls-5" points="419.44 466 282 466 282 532 440.21 532 419.44 466"/><rect class="cls-5" x="157" y="466" width="105" height="66"/><rect class="cls-5" x="51" y="466" width="87" height="66"/></g><path class="cls-6" d="M233.58,438.91a3.61,3.61,0,0,0-3.1,1.5,7,7,0,0,0-1.1,4.19q0,5.59,4.19,5.59a13.26,13.26,0,0,0,4.26-.88v3a11.85,11.85,0,0,1-4.59.86,7,7,0,0,1-5.58-2.21,9.36,9.36,0,0,1-1.93-6.35,10.37,10.37,0,0,1,.95-4.57,6.86,6.86,0,0,1,2.73-3,8.07,8.07,0,0,1,4.17-1,11.24,11.24,0,0,1,4.89,1.18L237.33,440a19.14,19.14,0,0,0-1.89-.78A5.63,5.63,0,0,0,233.58,438.91Z"/><path class="cls-6" d="M252.37,452.91l-1.21-4h-6.09l-1.21,4H240l5.9-16.78h4.33l5.92,16.78h-3.82ZM250.32,446q-1.68-5.41-1.89-6.11t-0.3-1.12q-0.38,1.46-2.16,7.23h4.36Z"/><path class="cls-6" d="M273.57,452.91h-4.5l-7.27-12.64h-0.1q0.22,3.35.22,4.78v7.86h-3.17V436.2h4.47l7.26,12.52h0.08q-0.17-3.26-.17-4.61V436.2h3.19v16.71Z"/><path class="cls-6" d="M288.46,452.91l-1.21-4h-6.09l-1.21,4h-3.82l5.9-16.78h4.33l5.92,16.78h-3.82ZM286.4,446q-1.68-5.41-1.89-6.11t-0.3-1.12q-0.38,1.46-2.16,7.23h4.36Z"/><path class="cls-6" d="M294.83,452.91V436.2h3.54V450h6.78v2.93H294.83Z"/><path class="cls-6" d="M179.9,322.11V311.5h2.25v10.61H179.9Z"/><path class="cls-6" d="M184.92,311.5h3.3a6.36,6.36,0,0,1,3.28.64,2.24,2.24,0,0,1,1,2,2.57,2.57,0,0,1-.45,1.56,1.79,1.79,0,0,1-1.19.73v0.07a2.34,2.34,0,0,1,1.46.84,2.74,2.74,0,0,1,.45,1.64,2.7,2.7,0,0,1-1,2.26,4.53,4.53,0,0,1-2.85.81h-4V311.5Zm2.25,4.2h1.31a2.38,2.38,0,0,0,1.33-.28,1.05,1.05,0,0,0,.41-0.94,0.94,0.94,0,0,0-.45-0.87,2.87,2.87,0,0,0-1.41-.26h-1.18v2.36Zm0,1.79v2.76h1.47a2.18,2.18,0,0,0,1.37-.36,1.31,1.31,0,0,0,.44-1.09q0-1.32-1.89-1.32h-1.39Z"/><path class="cls-6" d="M201.18,322.11h-6.11V311.5h6.11v1.84h-3.86v2.33h3.59v1.84h-3.59v2.74h3.86v1.86Z"/><path class="cls-6" d="M205.84,318v4.07h-2.25V311.5h3.09a5.29,5.29,0,0,1,3.2.79,3.14,3.14,0,0,1,.52,4.06,3.41,3.41,0,0,1-1.46,1.14q2.4,3.58,3.12,4.62h-2.5L207,318h-1.2Zm0-1.83h0.73a2.78,2.78,0,0,0,1.58-.36,1.27,1.27,0,0,0,.51-1.12,1.16,1.16,0,0,0-.52-1.07,3.15,3.15,0,0,0-1.61-.32h-0.68v2.87Z"/><path class="cls-6" d="M219.51,311.5h2.27l-3.61,10.61h-2.45l-3.6-10.61h2.27l2,6.31q0.17,0.56.34,1.3t0.22,1a18.51,18.51,0,0,1,.54-2.34Z"/><path class="cls-6" d="M223.45,322.11V311.5h2.25v10.61h-2.25Z"/><path class="cls-6" d="M228.46,322.11V311.5h2.25v8.75H235v1.86h-6.55Z"/><path class="cls-6" d="M236.94,322.11V311.5h2.25v8.75h4.3v1.86h-6.55Z"/><path class="cls-6" d="M251.53,322.11h-6.11V311.5h6.11v1.84h-3.86v2.33h3.59v1.84h-3.59v2.74h3.86v1.86Z"/><path class="cls-6" d="M43.48,459.45h4.07v2.25H36.94v-3.09a5.29,5.29,0,0,1,.79-3.2,3.14,3.14,0,0,1,4.06-.52,3.4,3.4,0,0,1,1.14,1.46q3.58-2.4,4.62-3.12v2.5l-4.07,2.53v1.2Zm-1.83,0v-0.73a2.78,2.78,0,0,0-.36-1.58,1.27,1.27,0,0,0-1.12-.51,1.16,1.16,0,0,0-1.07.52,3.15,3.15,0,0,0-.32,1.61v0.68h2.87Z"/><path class="cls-6" d="M42.23,442.33a5.76,5.76,0,0,1,4.05,1.31,5.66,5.66,0,0,1,0,7.49,5.78,5.78,0,0,1-4.06,1.31,5.7,5.7,0,0,1-4-1.31,4.9,4.9,0,0,1-1.4-3.76,4.83,4.83,0,0,1,1.41-3.74A5.77,5.77,0,0,1,42.23,442.33Zm0,7.74a4.43,4.43,0,0,0,2.68-.67,2.36,2.36,0,0,0,.9-2q0-2.69-3.58-2.69t-3.59,2.68a2.38,2.38,0,0,0,.9,2A4.41,4.41,0,0,0,42.23,450.07Z"/><path class="cls-6" d="M41.31,437.08l-4.37-2.21v-2.42L43.43,436h4.13v2.24H43.5l-6.55,3.52v-2.44Z"/><path class="cls-6" d="M47.56,425.28L45,426v3.87l2.53,0.77v2.42L36.9,429.36v-2.75l10.65-3.76v2.42Zm-4.41,1.31-3.88,1.2-0.71.19q0.93,0.24,4.59,1.37v-2.77Z"/><path class="cls-6" d="M47.56,421.18H36.94v-2.25H45.7v-4.3h1.86v6.55Z"/><path class="cls-6" d="M144,430.29a2.29,2.29,0,0,0,1,2,4.44,4.44,0,0,0,2.66.7q3.55,0,3.55-2.66a8.42,8.42,0,0,0-.56-2.71h1.89a7.51,7.51,0,0,1,.54,2.92,4.45,4.45,0,0,1-1.4,3.54,6,6,0,0,1-4,1.23,6.59,6.59,0,0,1-2.9-.6,4.36,4.36,0,0,1-1.91-1.73,5.12,5.12,0,0,1-.66-2.65,7.15,7.15,0,0,1,.75-3.11l1.83,0.73a12,12,0,0,0-.49,1.2A3.58,3.58,0,0,0,144,430.29Z"/><path class="cls-6" d="M152.86,416.55v2.24h-4.58V423h4.58v2.25H142.25V423h4.16v-4.2h-4.16v-2.24h10.61Z"/><path class="cls-6" d="M152.86,407.05l-2.53.77v3.87l2.53,0.77v2.42l-10.65-3.75v-2.75l10.65-3.76v2.42Zm-4.41,1.31-3.88,1.2-0.71.19q0.93,0.24,4.59,1.37v-2.77Z"/><path class="cls-6" d="M148.79,400.71h4.07V403H142.25v-3.09a5.29,5.29,0,0,1,.79-3.2,3.14,3.14,0,0,1,4.06-.52,3.4,3.4,0,0,1,1.14,1.46q3.58-2.4,4.62-3.12V397l-4.07,2.53v1.2Zm-1.83,0V400a2.78,2.78,0,0,0-.36-1.58,1.27,1.27,0,0,0-1.12-.51,1.16,1.16,0,0,0-1.07.52,3.15,3.15,0,0,0-.32,1.61v0.68H147Z"/><path class="cls-6" d="M152.86,388.84v2.25h-8.74V394h-1.87v-8h1.87v2.88h8.74Z"/><path class="cls-6" d="M148.79,381.89h4.07v2.25H142.25V381a5.29,5.29,0,0,1,.79-3.2,3.14,3.14,0,0,1,4.06-.52,3.4,3.4,0,0,1,1.14,1.46q3.58-2.4,4.62-3.12v2.5l-4.07,2.53v1.2Zm-1.83,0v-0.73a2.78,2.78,0,0,0-.36-1.58,1.27,1.27,0,0,0-1.12-.51,1.16,1.16,0,0,0-1.07.52,3.15,3.15,0,0,0-.32,1.61v0.68H147Z"/><path class="cls-6" d="M152.86,367.87V374H142.25v-6.11h1.84v3.86h2.33v-3.59h1.84v3.59H151v-3.86h1.86Z"/><path class="cls-6" d="M149.91,359.11a2.74,2.74,0,0,1,2.26,1A4.49,4.49,0,0,1,153,363a6.75,6.75,0,0,1-.64,3h-2.09a12.39,12.39,0,0,0,.68-1.82,5.4,5.4,0,0,0,.2-1.36,1.93,1.93,0,0,0-.28-1.14,1,1,0,0,0-.84-0.4,0.93,0.93,0,0,0-.56.17,2,2,0,0,0-.47.51,13.25,13.25,0,0,0-.72,1.38,6.49,6.49,0,0,1-.88,1.46,3.3,3.3,0,0,1-1,.78,2.8,2.8,0,0,1-1.31.29,2.74,2.74,0,0,1-2.21-1,4,4,0,0,1-.81-2.64,6.23,6.23,0,0,1,.2-1.58,10.92,10.92,0,0,1,.55-1.57l1.75,0.73a10.69,10.69,0,0,0-.49,1.4,4.53,4.53,0,0,0-.14,1.09,1.45,1.45,0,0,0,.3,1,1,1,0,0,0,.78.34,1,1,0,0,0,.52-0.14,1.52,1.52,0,0,0,.43-0.44,13.52,13.52,0,0,0,.74-1.43,5.69,5.69,0,0,1,1.43-2A2.79,2.79,0,0,1,149.91,359.11Z"/><path class="cls-6" d="M272.57,399.79a5.23,5.23,0,0,1,4,1.49,6.09,6.09,0,0,1,1.39,4.31v3H267.37v-3.33a5.61,5.61,0,0,1,1.37-4A5,5,0,0,1,272.57,399.79Zm0.06,2.34q-3.42,0-3.42,3v1.2h6.91v-1Q276.12,402.13,272.63,402.13Z"/><path class="cls-6" d="M278,391.42v6.11H267.37v-6.11h1.84v3.86h2.33v-3.59h1.84v3.59h2.74v-3.86H278Z"/><path class="cls-6" d="M269.09,384.65a2.29,2.29,0,0,0,1,2,4.44,4.44,0,0,0,2.66.7q3.55,0,3.55-2.66a8.43,8.43,0,0,0-.56-2.71h1.89a7.51,7.51,0,0,1,.54,2.92,4.45,4.45,0,0,1-1.4,3.54,6,6,0,0,1-4,1.23,6.59,6.59,0,0,1-2.9-.6,4.35,4.35,0,0,1-1.91-1.73,5.12,5.12,0,0,1-.66-2.65,7.13,7.13,0,0,1,.75-3.11l1.83,0.73a12.15,12.15,0,0,0-.49,1.2A3.56,3.56,0,0,0,269.09,384.65Z"/><path class="cls-6" d="M278,372.67l-2.53.77v3.87l2.53,0.77v2.42l-10.66-3.75V374L278,370.24v2.42ZM273.57,374l-3.88,1.2-0.71.19q0.93,0.24,4.59,1.37V374Z"/><path class="cls-6" d="M278,365.41v2.25h-8.74v2.88h-1.87v-8h1.87v2.88H278Z"/><path class="cls-6" d="M267.37,352h6.87a4,4,0,0,1,2.06.53,3.43,3.43,0,0,1,1.36,1.52,5.44,5.44,0,0,1,.47,2.35,4.5,4.5,0,0,1-1,3.18,3.72,3.72,0,0,1-2.87,1.13h-6.84V358.5h6.5a2.72,2.72,0,0,0,1.8-.49,2,2,0,0,0,.57-1.63,2,2,0,0,0-.58-1.6,2.73,2.73,0,0,0-1.81-.5h-6.48V352Z"/><path class="cls-6" d="M273.91,347.08H278v2.25H267.37v-3.09a5.29,5.29,0,0,1,.79-3.2,3.14,3.14,0,0,1,4.06-.52,3.41,3.41,0,0,1,1.14,1.46q3.58-2.4,4.62-3.12v2.5l-4.07,2.53v1.2Zm-1.83,0v-0.73a2.78,2.78,0,0,0-.36-1.58,1.27,1.27,0,0,0-1.12-.51,1.16,1.16,0,0,0-1.07.52,3.15,3.15,0,0,0-.32,1.61v0.68h2.87Z"/><path class="cls-6" d="M413.41,397.23l0.88,2.72-6.22,6.86,0,0.06q2-.78,2.84-1.06l4.75-1.53,0.62,1.91-10.1,3.26-0.87-2.7,6.15-6.83,0,0q-1.94.74-2.75,1l-4.78,1.54-0.62-1.93Z"/><path class="cls-6" d="M411.67,395.21a1.21,1.21,0,0,1-1,0,1.32,1.32,0,0,1-.59-0.81,1.29,1.29,0,0,1,0-1,1.41,1.41,0,0,1,1.73-.55,1.27,1.27,0,0,1,.6.78,1.3,1.3,0,0,1,0,1A1.21,1.21,0,0,1,411.67,395.21Z"/><path class="cls-6" d="M400.74,381.71a3.24,3.24,0,0,1,2.82.21,4.58,4.58,0,0,1,1.8,2.62l0.3,0.92,3.59-1.16,0.69,2.14-10.1,3.26-1-3.23a4.52,4.52,0,0,1-.11-3A3,3,0,0,1,400.74,381.71ZM403.9,386l-0.23-.71a2.47,2.47,0,0,0-.87-1.35,1.44,1.44,0,0,0-1.29-.12,1.48,1.48,0,0,0-1,.77,2,2,0,0,0,.06,1.41l0.31,1Z"/><path class="cls-6" d="M405.19,371.74l1.88,5.82L397,380.81,395.1,375l1.75-.57L398,378.1l2.22-.71-1.1-3.42,1.75-.57,1.1,3.42,2.61-.84-1.19-3.67Z"/><path class="cls-6" d="M403.13,365.35l0.69,2.14-8.32,2.68,0.88,2.74-1.78.57-2.46-7.63,1.78-.57,0.88,2.74Z"/><path class="cls-6" d="M399.81,355.05l1.88,5.82-10.1,3.26-1.87-5.82,1.75-.57,1.18,3.67,2.22-.71-1.1-3.42,1.75-.57,1.1,3.42,2.6-.84L398,355.62Z"/><path class="cls-6" d="M394.51,351.87l3.88-1.25,0.69,2.14L389,356,388,353.07a5.28,5.28,0,0,1-.23-3.29,3.14,3.14,0,0,1,3.7-1.74,3.41,3.41,0,0,1,1.54,1q2.67-3.38,3.44-4.39l0.77,2.38-3.1,3.66Zm-1.74.56-0.22-.69a2.79,2.79,0,0,0-.82-1.39,1.27,1.27,0,0,0-1.22-.14,1.16,1.16,0,0,0-.86.82,3.15,3.15,0,0,0,.19,1.63l0.21,0.65Z"/><path class="cls-6" d="M391.16,337.83a2.74,2.74,0,0,1,2.47.29,4.49,4.49,0,0,1,1.67,2.48,6.76,6.76,0,0,1,.31,3.06l-2,.64a12.35,12.35,0,0,0,.08-1.94,5.36,5.36,0,0,0-.23-1.36,1.93,1.93,0,0,0-.62-1,1,1,0,0,0-.92-0.12,0.94,0.94,0,0,0-.48.34,2,2,0,0,0-.29.63,13.23,13.23,0,0,0-.26,1.53,6.53,6.53,0,0,1-.39,1.66,3.29,3.29,0,0,1-.69,1,2.79,2.79,0,0,1-1.15.68,2.74,2.74,0,0,1-2.4-.23,4,4,0,0,1-1.58-2.26,6.21,6.21,0,0,1-.3-1.56,10.9,10.9,0,0,1,0-1.67l1.89,0.15a10.64,10.64,0,0,0,0,1.49,4.55,4.55,0,0,0,.2,1.08,1.45,1.45,0,0,0,.58.84,1,1,0,0,0,.84.09,1,1,0,0,0,.45-0.29,1.53,1.53,0,0,0,.27-0.55,13.27,13.27,0,0,0,.27-1.58,5.68,5.68,0,0,1,.73-2.38A2.79,2.79,0,0,1,391.16,337.83Z"/><path class="cls-6" d="M510,69.35l10.49-.87,1.9,3.1-12.11,4.3-1.26-2.05,5.73-2q2.05-.72,3.71-1.21l0,0-10.87.91-1.26-2.06,8-5.54,0,0q-0.7.31-1.87,0.76T505,67.26l-1.24-2,12.11-4.3,1.82,3L510,69.32Z"/><path class="cls-6" d="M512.13,78.84l12.13-4.28,1.37,2.24L513.5,81.08Z"/><path class="cls-6" d="M522.5,88.66a3.48,3.48,0,0,1-3.09.4,5.27,5.27,0,0,1-2.69-2.4,5.44,5.44,0,0,1-.94-3l2-1.23a6.38,6.38,0,0,0,.82,3.11,2.66,2.66,0,0,0,1.1,1.09,1.15,1.15,0,0,0,1.14-.06,1.67,1.67,0,0,0,.49-0.44,1.82,1.82,0,0,0,.27-0.55,9.16,9.16,0,0,0,.19-1.37,5.74,5.74,0,0,1,.57-2.3,3.54,3.54,0,0,1,1.28-1.35,3.72,3.72,0,0,1,2-.58,3.58,3.58,0,0,1,2,.59,5.06,5.06,0,0,1,1.6,1.68,7,7,0,0,1,1.06,3.36l-2.2.25a5.85,5.85,0,0,0-.75-2.45,1.75,1.75,0,0,0-.94-0.8,1.28,1.28,0,0,0-1.11.15,1.52,1.52,0,0,0-.63.72,5.22,5.22,0,0,0-.22,1.63,5.09,5.09,0,0,1-.48,2.12A3.6,3.6,0,0,1,522.5,88.66Z"/><path class="cls-6" d="M527.6,97a3.48,3.48,0,0,1-3.09.4,5.27,5.27,0,0,1-2.69-2.4,5.44,5.44,0,0,1-.94-3l2-1.23a6.38,6.38,0,0,0,.82,3.11,2.67,2.67,0,0,0,1.1,1.09,1.15,1.15,0,0,0,1.14-.06,1.65,1.65,0,0,0,.49-0.44,1.8,1.8,0,0,0,.27-0.55,9,9,0,0,0,.19-1.37,5.74,5.74,0,0,1,.57-2.3,3.54,3.54,0,0,1,1.28-1.35,3.72,3.72,0,0,1,2-.58,3.58,3.58,0,0,1,2,.59,5.06,5.06,0,0,1,1.6,1.68,7,7,0,0,1,1.06,3.36l-2.2.25a5.83,5.83,0,0,0-.75-2.45,1.74,1.74,0,0,0-.94-0.79,1.27,1.27,0,0,0-1.11.15,1.52,1.52,0,0,0-.63.72,5.22,5.22,0,0,0-.22,1.63,5.09,5.09,0,0,1-.48,2.12A3.6,3.6,0,0,1,527.6,97Z"/><path class="cls-6" d="M525.53,100.72l12.13-4.28L539,98.68,526.9,103Z"/><path class="cls-6" d="M535.9,110.54a3.48,3.48,0,0,1-3.09.4,5.27,5.27,0,0,1-2.69-2.4,5.44,5.44,0,0,1-.94-3l2-1.23a6.38,6.38,0,0,0,.82,3.11,2.67,2.67,0,0,0,1.1,1.09,1.15,1.15,0,0,0,1.14-.06,1.68,1.68,0,0,0,.49-0.44,1.87,1.87,0,0,0,.27-0.55,9.09,9.09,0,0,0,.19-1.37,5.73,5.73,0,0,1,.57-2.3,3.53,3.53,0,0,1,1.28-1.35,3.74,3.74,0,0,1,2-.58,3.59,3.59,0,0,1,2,.59,5,5,0,0,1,1.6,1.68,7,7,0,0,1,1.06,3.36l-2.2.25a5.83,5.83,0,0,0-.75-2.44,1.74,1.74,0,0,0-.94-0.8,1.27,1.27,0,0,0-1.11.15,1.52,1.52,0,0,0-.63.72,5.22,5.22,0,0,0-.22,1.63,5.1,5.1,0,0,1-.48,2.12A3.61,3.61,0,0,1,535.9,110.54Z"/><path class="cls-6" d="M541,118.88a3.48,3.48,0,0,1-3.09.4,5.27,5.27,0,0,1-2.69-2.4,5.44,5.44,0,0,1-.94-3l2-1.23a6.38,6.38,0,0,0,.82,3.11,2.68,2.68,0,0,0,1.1,1.09,1.15,1.15,0,0,0,1.14-.06,1.68,1.68,0,0,0,.49-0.44,1.84,1.84,0,0,0,.27-0.55,9.18,9.18,0,0,0,.19-1.37,5.72,5.72,0,0,1,.57-2.3,3.53,3.53,0,0,1,1.28-1.35,3.74,3.74,0,0,1,2-.58,3.59,3.59,0,0,1,2,.59,5,5,0,0,1,1.6,1.68,7,7,0,0,1,1.06,3.36l-2.2.25a5.83,5.83,0,0,0-.75-2.44,1.74,1.74,0,0,0-.94-0.8,1.27,1.27,0,0,0-1.11.15,1.52,1.52,0,0,0-.63.72,5.22,5.22,0,0,0-.22,1.63,5.09,5.09,0,0,1-.48,2.12A3.61,3.61,0,0,1,541,118.88Z"/><path class="cls-6" d="M538.92,122.6l12.13-4.28,1.37,2.24-12.13,4.28Z"/><path class="cls-6" d="M554.82,131.5a4,4,0,0,1-3.54.46,6.2,6.2,0,0,1-3.11-2.81l-0.39-.63-4.3,1.54-1.37-2.24,12.11-4.3,1.52,2.48a4.72,4.72,0,0,1,.86,3.16A3.43,3.43,0,0,1,554.82,131.5Zm-4.92-3.72,0.25,0.41a2.88,2.88,0,0,0,1.51,1.33,2,2,0,0,0,1.72-.23,1.43,1.43,0,0,0,.44-2.24l-0.33-.54Z"/><path class="cls-6" d="M560.39,140.59a4,4,0,0,1-3.54.46,6.21,6.21,0,0,1-3.11-2.81l-0.39-.63-4.3,1.54-1.37-2.24,12.11-4.3,1.52,2.48a4.72,4.72,0,0,1,.86,3.16A3.42,3.42,0,0,1,560.39,140.59Zm-4.92-3.72,0.25,0.41a2.88,2.88,0,0,0,1.51,1.33,2,2,0,0,0,1.72-.23,1.43,1.43,0,0,0,.44-2.24l-0.33-.54Z"/><path class="cls-6" d="M553.25,146l12.13-4.28,1.37,2.24-12.13,4.28Z"/><path class="cls-6" d="M565.08,156.08l-4.65,1.65-1.37-2.24,12.11-4.3,1.61,2.63a4.6,4.6,0,0,1,.85,3.07A3.2,3.2,0,0,1,572,159.1a3.85,3.85,0,0,1-2.36.61,4.18,4.18,0,0,1-2.31-1l-3.38,4.7L562.43,161l3.19-4Zm2.09-.74,0.35,0.57a2.79,2.79,0,0,0,1.33,1.24,1.78,1.78,0,0,0,1.6-.25,1.32,1.32,0,0,0,.69-0.9,1.94,1.94,0,0,0-.37-1.28l-0.33-.54Z"/><path class="cls-6" d="M564.89,165L577,160.73l1.37,2.24-12.13,4.28Z"/><path class="cls-6" d="M572.44,172.41a24.67,24.67,0,0,1,2.57-.46l8.4-.78,1.42,2.32-14.09,1.08-1.5-2.45,10.16-7.5,1.33,2.16-6.23,4.33c-0.21.15-.53,0.36-1,0.63s-0.89.51-1.13,0.63Z"/><path class="cls-6" d="M577.41,185.45l-3.67-6,12.11-4.3,3.67,6-2.11.75-2.3-3.76-2.66.95,2.14,3.5-2.11.74-2.14-3.5-3.12,1.11,2.3,3.76Z"/><path class="cls-6" d="M585,188.57l-4.65,1.65L579,188l12.11-4.3,1.61,2.63a4.6,4.6,0,0,1,.85,3.07,3.2,3.2,0,0,1-1.66,2.22,3.84,3.84,0,0,1-2.36.61,4.17,4.17,0,0,1-2.31-1l-3.38,4.7-1.49-2.44,3.19-4Zm2.09-.74,0.35,0.57a2.79,2.79,0,0,0,1.33,1.24,1.78,1.78,0,0,0,1.6-.25,1.32,1.32,0,0,0,.69-0.9,1.93,1.93,0,0,0-.37-1.28l-0.33-.54Z"/><path class="cls-6" d="M201.53,203.39h3.3a6.36,6.36,0,0,1,3.28.64,2.24,2.24,0,0,1,1,2,2.57,2.57,0,0,1-.45,1.56,1.78,1.78,0,0,1-1.19.73v0.07a2.34,2.34,0,0,1,1.46.84,2.74,2.74,0,0,1,.45,1.64,2.7,2.7,0,0,1-1,2.26,4.53,4.53,0,0,1-2.85.81h-4V203.39Zm2.25,4.2h1.31a2.39,2.39,0,0,0,1.33-.28,1.06,1.06,0,0,0,.41-0.94,0.94,0.94,0,0,0-.45-0.87,2.88,2.88,0,0,0-1.41-.26h-1.18v2.36Zm0,1.79v2.77h1.47a2.18,2.18,0,0,0,1.37-.36,1.31,1.31,0,0,0,.44-1.09q0-1.32-1.89-1.32h-1.39Z"/><path class="cls-6" d="M211.69,214V203.39h2.25V214h-2.25Z"/><path class="cls-6" d="M222.82,214h-6.11V203.39h6.11v1.84H219v2.33h3.59v1.84H219v2.74h3.86V214Z"/><path class="cls-6" d="M234.64,214h-2.86l-4.62-8H227.1q0.14,2.13.14,3v5h-2V203.39h2.84l4.61,7.95h0.05q-0.11-2.07-.11-2.93v-5h2V214Z"/><path class="cls-6" d="M243.7,203.39H246L242.36,214h-2.45l-3.6-10.61h2.27l2,6.31q0.17,0.56.34,1.3t0.22,1a18.51,18.51,0,0,1,.54-2.34Z"/><path class="cls-6" d="M247.64,214V203.39h2.25V214h-2.25Z"/><path class="cls-6" d="M252.65,214V203.39h2.25v8.75h4.3V214h-6.55Z"/><path class="cls-6" d="M261.13,214V203.39h2.25v8.75h4.3V214h-6.55Z"/><path class="cls-6" d="M275.72,214h-6.11V203.39h6.11v1.84h-3.86v2.33h3.59v1.84h-3.59v2.74h3.86V214Z"/><path class="cls-6" d="M210.09,95a2.29,2.29,0,0,0-2,1,4.44,4.44,0,0,0-.7,2.66q0,3.55,2.66,3.55a8.42,8.42,0,0,0,2.71-.56v1.89a7.51,7.51,0,0,1-2.92.54,4.45,4.45,0,0,1-3.54-1.4,6,6,0,0,1-1.23-4,6.59,6.59,0,0,1,.6-2.9,4.36,4.36,0,0,1,1.73-1.91,5.12,5.12,0,0,1,2.65-.66,7.15,7.15,0,0,1,3.11.75l-0.73,1.83a12,12,0,0,0-1.2-.49A3.58,3.58,0,0,0,210.09,95Z"/><path class="cls-6" d="M224.54,98.55a5.76,5.76,0,0,1-1.31,4.05,5.66,5.66,0,0,1-7.49,0,5.78,5.78,0,0,1-1.31-4.06,5.7,5.7,0,0,1,1.31-4,4.9,4.9,0,0,1,3.76-1.4,4.83,4.83,0,0,1,3.74,1.41A5.77,5.77,0,0,1,224.54,98.55Zm-7.74,0a4.43,4.43,0,0,0,.67,2.68,2.36,2.36,0,0,0,2,.9q2.69,0,2.69-3.58T219.51,95a2.38,2.38,0,0,0-2,.9A4.41,4.41,0,0,0,216.8,98.55Z"/><path class="cls-6" d="M236.27,103.87h-2.86l-4.62-8h-0.07q0.14,2.13.14,3v5h-2V93.26h2.84l4.61,7.95h0.05q-0.11-2.07-.11-2.93v-5h2v10.61Z"/><path class="cls-6" d="M243.22,103.87H241V95.14h-2.88V93.26h8v1.87h-2.88v8.74Z"/><path class="cls-6" d="M247.93,103.87V93.26h2.25v10.61h-2.25Z"/><line class="cls-7" x1="317" y1="210" x2="304" y2="210"/><polygon class="cls-6" points="305 205.76 298.09 209.75 305 213.74 305 205.76"/><line class="cls-7" x1="260" y1="99" x2="273" y2="99"/><polygon class="cls-6" points="271 102.93 277.91 98.94 271 94.95 271 102.93"/><line class="cls-7" x1="312" y1="317" x2="325" y2="317"/><polygon class="cls-6" points="324 320.49 330.91 316.5 324 312.51 324 320.49"/><line class="cls-7" x1="272" y1="249" x2="272" y2="262"/><polygon class="cls-6" points="267.58 261 271.57 267.91 275.56 261 267.58 261"/><line class="cls-7" x1="42" y1="475" x2="42" y2="488"/><polygon class="cls-6" points="38.45 487 42.44 493.91 46.43 487 38.45 487"/><line class="cls-7" x1="148" y1="353" x2="148" y2="340"/><polygon class="cls-6" points="152.14 341 148.15 334.09 144.16 341 152.14 341"/><path class="cls-5" d="M485.06,30.08c-0.33.12-.16-0.61,0.17-0.48a0.94,0.94,0,0,1,.35.92,5.27,5.27,0,0,0,10.46.76c0.69-.55,1.21.8,1.39,1.66,0.49,2.36,3.78,3.19,5.88,2s3.2-3.56,3.93-5.87c1,2.27,2.22,4.76,4.54,5.62a6.31,6.31,0,0,0,5.59-1,18.65,18.65,0,0,0,4.06-4.24c-1.39,2.66,1.35,6.09,4.35,6.14s5.59-2.3,6.9-5"/><path class="cls-5" d="M494.55,42.76c-0.33.12-.16-0.61,0.17-0.48a0.94,0.94,0,0,1,.35.92,5.27,5.27,0,0,0,10.46.76c0.69-.55,1.21.8,1.39,1.66,0.49,2.36,3.78,3.19,5.88,2s3.2-3.56,3.93-5.87c1,2.27,2.22,4.76,4.54,5.62a6.31,6.31,0,0,0,5.59-1,18.65,18.65,0,0,0,4.06-4.24c-1.39,2.66,1.35,6.09,4.35,6.14s5.59-2.3,6.9-5"/><path class="cls-5" d="M533.22,58.08c-0.33.12-.16-0.61,0.17-0.48a0.94,0.94,0,0,1,.35.92,5.27,5.27,0,0,0,10.46.76c0.69-.55,1.21.8,1.39,1.66,0.49,2.36,3.78,3.19,5.88,2s3.2-3.56,3.93-5.87c1,2.27,2.22,4.76,4.54,5.62a6.31,6.31,0,0,0,5.59-1,18.65,18.65,0,0,0,4.06-4.24c-1.39,2.66,1.35,6.09,4.35,6.14s5.59-2.3,6.9-5"/><path class="cls-5" d="M543.22,70.08c-0.33.12-.16-0.61,0.17-0.48a0.94,0.94,0,0,1,.35.92,5.27,5.27,0,0,0,10.46.76c0.69-.55,1.21.8,1.39,1.66,0.49,2.36,3.78,3.19,5.88,2s3.2-3.56,3.93-5.87c1,2.27,2.22,4.76,4.54,5.62a6.31,6.31,0,0,0,5.59-1,18.65,18.65,0,0,0,4.06-4.24c-1.39,2.66,1.35,6.09,4.35,6.14s5.59-2.3,6.9-5"/><path class="cls-5" d="M556.9,209.9c-0.33.12-.16-0.61,0.17-0.48a0.94,0.94,0,0,1,.35.92,5.27,5.27,0,0,0,10.46.76c0.69-.55,1.21.8,1.39,1.66,0.49,2.36,3.78,3.19,5.88,2s3.2-3.56,3.93-5.87c1,2.27,2.22,4.76,4.54,5.62a6.31,6.31,0,0,0,5.59-1,18.65,18.65,0,0,0,4.06-4.24c-1.39,2.66,1.35,6.09,4.35,6.14s5.59-2.3,6.9-5"/><path class="cls-5" d="M567.9,221.9c-0.33.12-.16-0.61,0.17-0.48a0.94,0.94,0,0,1,.35.92,5.27,5.27,0,0,0,10.46.76c0.69-.55,1.21.8,1.39,1.66,0.49,2.36,3.78,3.19,5.88,2s3.2-3.56,3.93-5.87c1,2.27,2.22,4.76,4.54,5.62a6.31,6.31,0,0,0,5.59-1,18.65,18.65,0,0,0,4.06-4.24c-1.39,2.66,1.35,6.09,4.35,6.14s5.59-2.3,6.9-5"/><rect class="cls-2" x="299.16" y="168.61" width="219.94" height="21.11"/><path class="cls-8" d="M303.44,185.54l0.18-14.94,4.69,0.06a5.62,5.62,0,0,1,3.89,1.21,4,4,0,0,1,1.25,3.09,2.71,2.71,0,0,1-2.82,3,3.79,3.79,0,0,1,2.32,1.07,3.37,3.37,0,0,1,.71,2.35,4,4,0,0,1-1.29,3.08,4.53,4.53,0,0,1-3.27,1.14Zm4.07-3.19,0.2,0h0.14a1.76,1.76,0,0,0,1.21-.38,1.35,1.35,0,0,0,.46-1.06,1.29,1.29,0,0,0-.44-1.05,1.86,1.86,0,0,0-1.23-.39h-0.32Zm0.07-5.89h0.27a1.78,1.78,0,0,0,1.15-.33,1.15,1.15,0,0,0,.43-0.94,1.21,1.21,0,0,0-1.41-1.31h-0.42Z"/><path class="cls-8" d="M319.91,185.74l-4,0,0.18-14.94,4,0Z"/><path class="cls-8" d="M322.61,185.77l0.18-14.94,7.5,0.09,0,3.51-3.46,0,0,2.18,3.11,0,0,3.38-3.11,0,0,2.28,3.46,0,0,3.59Z"/><path class="cls-8" d="M332.56,185.89l0.18-14.94,3.85,0,2,5.27,0.36,1.07q0.2,0.6.44,1.39l0.4,1.32q-0.2-1.95-.3-3.33t-0.09-2.32l0-3.36,3.85,0L343.08,186l-3.85,0-2-5.52q-0.31-.88-0.56-1.66t-0.43-1.47q0.11,1.58.15,2.75t0,2.05l0,3.81Z"/><path class="cls-8" d="M352.26,186.12l-4.11,0-3.25-15,4.24,0.05,0.68,4.28q0.39,2.45.6,5.48,0.12-1.34.29-2.51t0.4-2.28l1-4.93,4.38,0.05Z"/><path class="cls-8" d="M362,186.24l-4,0,0.18-14.94,4,0Z"/><path class="cls-8" d="M371.77,186.35l-7.07-.08,0.18-14.94,4,0-0.13,11.35,3,0Z"/><path class="cls-8" d="M380.57,186.45l-7.06-.08,0.18-14.94,4,0-0.13,11.35,3,0Z"/><path class="cls-8" d="M382.29,186.47l0.18-14.94,7.5,0.09,0,3.51-3.46,0,0,2.18,3.11,0,0,3.38-3.11,0,0,2.28,3.46,0,0,3.59Z"/><path class="cls-8" d="M408.46,186.78l-4,0,0.07-6-1.93,0-0.07,6-4,0,0.18-14.94,4,0-0.06,5.28,1.93,0,0.06-5.28,4,0Z"/><path class="cls-8" d="M422.17,179.52a9.22,9.22,0,0,1-1.62,5.54,4.78,4.78,0,0,1-4.06,2.08,5.07,5.07,0,0,1-3.76-1.68q-2-2.09-1.91-6.24a8.28,8.28,0,0,1,2.14-6,5,5,0,0,1,3.67-1.51,4.82,4.82,0,0,1,4.09,2.16A9.48,9.48,0,0,1,422.17,179.52Zm-4.19,0q0-4.05-1.38-4.07a1.34,1.34,0,0,0-1.15,1.05,7.82,7.82,0,0,0-.45,2.9,8.63,8.63,0,0,0,.36,2.93,1.1,1.1,0,0,0,2.19,0A8,8,0,0,0,418,179.5Z"/><path class="cls-8" d="M430.54,172.1l4,0-0.12,10.57a4.78,4.78,0,0,1-.44,2.14,4.16,4.16,0,0,1-1.37,1.54,5.13,5.13,0,0,1-3.12.89,5.73,5.73,0,0,1-3.46-1.07,4.84,4.84,0,0,1-1.73-4.2l0.12-10,4,0-0.11,9.64a2.94,2.94,0,0,0,.22,1.39,1,1,0,0,0,1.6,0,3.12,3.12,0,0,0,.24-1.4Z"/><path class="cls-8" d="M436.77,186.75l0.06-4.69a3.29,3.29,0,0,0,2.55,1.66,1.28,1.28,0,0,0,.86-0.27,0.86,0.86,0,0,0,.34-0.69,1.56,1.56,0,0,0-.7-1.18l-0.65-.52a9,9,0,0,1-1.11-1,5,5,0,0,1-.74-1A4.17,4.17,0,0,1,437,178a4.81,4.81,0,0,1-.12-1.16,5.6,5.6,0,0,1,.51-2.18,5.52,5.52,0,0,1,.57-1,4.25,4.25,0,0,1,3.51-1.71,6.24,6.24,0,0,1,2.89.8l-0.05,4.57a4.27,4.27,0,0,0-1.11-1.22,2.16,2.16,0,0,0-1.23-.46,1.09,1.09,0,0,0-.77.26,0.79,0.79,0,0,0-.32.63,1.59,1.59,0,0,0,.81,1.2l0.63,0.48a6.24,6.24,0,0,1,1.81,1.91,4.42,4.42,0,0,1,.54,2.27,5.11,5.11,0,0,1-1.39,3.62,4.47,4.47,0,0,1-3.42,1.39A8.48,8.48,0,0,1,436.77,186.75Z"/><path class="cls-8" d="M446.78,187.24L447,172.3l7.5,0.09,0,3.51-3.46,0,0,2.18,3.11,0,0,3.38-3.11,0,0,2.28,3.46,0,0,3.59Z"/><path class="cls-8" d="M473,187.55l-4,0,0.07-6-1.93,0-0.07,6-4,0,0.18-14.94,4,0-0.06,5.28,1.93,0,0.06-5.28,4,0Z"/><path class="cls-8" d="M486.66,180.28a9.22,9.22,0,0,1-1.62,5.54A4.78,4.78,0,0,1,481,187.9a5.07,5.07,0,0,1-3.76-1.68q-2-2.09-1.91-6.24a8.28,8.28,0,0,1,2.14-6,5,5,0,0,1,3.67-1.51,4.82,4.82,0,0,1,4.09,2.16A9.48,9.48,0,0,1,486.66,180.28Zm-4.19,0q0-4.05-1.38-4.07a1.34,1.34,0,0,0-1.15,1.05,7.82,7.82,0,0,0-.45,2.9,8.63,8.63,0,0,0,.36,2.93,1.1,1.1,0,0,0,2.19,0A8,8,0,0,0,482.47,180.26Z"/><path class="cls-8" d="M494,187.79l-4,0,0.13-11.36-2.22,0,0-3.58,8.57,0.1,0,3.58-2.31,0Z"/><path class="cls-8" d="M498,187.84l0.18-14.94,7.5,0.09,0,3.51-3.46,0,0,2.18,3.11,0,0,3.38-3.11,0,0,2.28,3.46,0,0,3.59Z"/><path class="cls-8" d="M515,188l-7.07-.08L508.11,173l4,0L512,184.42l3,0Z"/><path class="cls-6" d="M352.62,120.5l-0.8,1.6c-0.53,1-1.29,2.46-2.31,4.16a92,92,0,0,1-8.62,12.18c-1.78,2.14-3.69,4.2-5.56,6.11s-3.72,3.61-5.37,5-3.07,2.58-4.08,3.37l-1.6,1.24-0.08,0h0l0,0,0.05,0,2-.12c1.3-.08,3.16-0.22,5.4-0.49s4.86-.65,7.7-1.17,5.84-1.23,8.86-2.08a111.58,111.58,0,0,0,16.49-6c2.23-1,4.06-2,5.35-2.62l2-1.08s-2.44-.28-4.83-0.68c-1.2-.2-2.38-0.41-3.26-0.58l-1.47-.29c2.58-2.27,5.06-4.6,7.47-7.18a58.77,58.77,0,0,0,7.82-10.35,36.55,36.55,0,0,0,4.67-13.16l-12.63-1.71a23.85,23.85,0,0,1-3.08,8.49,46.21,46.21,0,0,1-6.12,8.05c-2,2.15-4.23,4.25-6.5,6.24L354,128c-0.12-.85-0.3-2-0.49-3.09C353.11,122.68,352.62,120.5,352.62,120.5Z"/><g id="logo_halo" data-name="logo halo"><ellipse class="cls-9" cx="415" cy="75.5" rx="68" ry="57.5"/></g><path class="cls-10" d="M469.77,68.27c-0.3-5.56-4.06-14.88-9-19.39s-10.22-10.22-17.44-10.22c-12.11,0-19.31,3.24-27.82,6-6.92,2.26-18.94,12.48-23.45,22.55s-3.56,14.13-3.46,18.64c0.15,6.47,5.56,21.5,14.73,26.91a48.3,48.3,0,0,0,24.81,7.07c7.07,0,16.39-6.46,22.7-9.32S467.52,92.93,468,89.32,470.07,73.84,469.77,68.27Zm-6.92,24.66c-2.41,5.86-11.13,13.23-14.73,15.34s-6.92,6-19.39,6c-6.63,0-16.24-2.26-23.15-10.07-5.21-5.89-10-10.42-9.92-20.15,0.15-20.75,15.49-31.12,20.15-34.58s14.13-6.31,17.59-6.92,4.21-1.5,10.83-1.5c7.37,0,12,6,15.18,10.22s7.07,8.12,8,15.94C468.72,78.92,465.26,87.07,462.86,92.93Z"/><path class="cls-10" d="M459.85,55.19c-3.61-5.11-11.13-12-17.44-12a38.59,38.59,0,0,0-20.75,6.47c-6.77,4.66-11.73,10.52-15.94,19.85S402,83.16,402,87.52s4.06,10.07,8,13.23,4.86,1.89,5.86,3c3.76,4.21,10.52,3.91,13.68,4.81s2.86,1.5,7.52,1.5,10.37-3.46,13.53-6,6.61-7.67,8.27-10.82,3.61-12.63,4.51-16.84S463.46,60.31,459.85,55.19ZM457.14,80.9c-0.9,9-3.76,16.54-7.22,18.49s-9.77,6.92-13.53,6.92-8.12-1.65-12.48-3.16S414,100,412.34,98.64s-4.81-7.52-4.81-9.32a39.92,39.92,0,0,1,1.35-9.17c3.14-12.56,5.71-19.85,20.45-26.31,2.44-1.07,3.46-1.8,10.07-1.8s12,4.51,14.58,8.42S458,71.88,457.14,80.9Z"/><path class="cls-10" d="M452,75.79c-0.9-3.76-4.36-11.88-6.46-13.68s-4.06-4.06-8.57-4.06c-7.07,0-10.07.6-13.83,2.71A21.07,21.07,0,0,0,415,70.08c-0.9,2.56-4.06,10.07-3,17.44s2.56,8.72,5.26,10.67a43.5,43.5,0,0,0,11.88,5.11c2.11,0.3,8.12.6,9.32-.15s10.52-4.81,11.43-6.62,2.71-6.92,2.56-9.77S452.93,79.55,452,75.79Zm-5.26,15.94c-1.35,2.11-6.16,6.31-13.38,6.31s-15.64-6.92-15.64-12.33,2.26-14.28,4.51-18.49,9.19-5.92,12.78-6.31a34.26,34.26,0,0,1,4.06,0c2.71,0,6.31,5.86,7.52,8.72a85.69,85.69,0,0,1,2.86,8.87C450.23,81.05,448.12,89.62,446.77,91.73Z"/><path class="cls-10" d="M432,63.46c-2.09.26-9.17,1.35-9.17,12.93s5,14,10.67,13.38,13.53-4.21,13.53-7.07-2.71-8.57-3.61-11-1.21-6.89-6.16-7.82A18.22,18.22,0,0,0,432,63.46Z"/><path class="cls-2" d="M405,66.31c1.57-4,6.27-11.69,14.18-11.69s9.19,6.3,9.19,10c0,5.7-3.81,12.05-14.32,22.3L438.56,88l0.08,4.06a269.27,269.27,0,0,0-31.42,3.15l-0.32-7.6c4.9-4,13.79-12.15,13.79-20.12,0-3.81-2.37-5.5-4.83-5.5s-5.17,1-8.47,6.06Z"/><path class="cls-2" d="M441.15,59.53c-4.9,0-11.89,5.52-11.89,13.64,0,8.33,5.26,12.48,10,12.48A8.22,8.22,0,0,0,446.57,82c-1.24,11.55-4.25,18.32-11.39,18.32-4.07,0-5.75-.94-8.38-2.81L424.69,100c1.61,1.82,5.68,4.57,12.08,4.57,12,0,17.65-13.13,17.65-23.67C454.41,67.48,450.51,59.53,441.15,59.53Zm0.52,21.64c-2.46,0-4.36-3.09-4.36-8.17s2.12-9.2,4.62-9.2c2.71,0,3.94,3.93,3.94,9C445.86,76.55,444.12,81.17,441.67,81.17Z"/><path class="cls-2" d="M368.54,117.57l0.35-8.68S379.52,111,384.4,111c2.21,0,5.86-.63,5.79-6.09,0-2.41-.5-6.62-0.5-6.62l2.48-.64a123.83,123.83,0,0,0,2.17,18.83,60,60,0,0,0-17.49-2.94c-4.21,0-5.89,1.47-6.35,4.42Z"/><path class="cls-2" d="M389.89,87.64c0,6.27-2.09,8.5-9.48,8.5-4.37,0-7.38.94-7.38,5.82s4.68,6,7.49,6l-1.27-3.31c-3.45,0-4.32-1.56-4.32-2.8a2.12,2.12,0,0,1,2.34-2.22c4.48,0,3.45,8.36,8,8.36,1.91,0,3.2-1.5,3.2-3.58a6.51,6.51,0,0,0-3.47-5.5c6.35-1.49,7-6.58,6.58-11.32Zm-4.59,14.78a1.06,1.06,0,0,1-1,1.15c-1,0-2.22-1.49-2.22-3.19a0.75,0.75,0,0,1,.73-0.89A3.17,3.17,0,0,1,385.3,102.43Z"/><path class="cls-2" d="M367.64,105.91c0.44-6.89.74-16.72,0.44-22.08l3.28-.13c0,5.13.75,6.5,5.09,7a70.34,70.34,0,0,0,9.72,0L386.05,94a54.61,54.61,0,0,0-8.44-.53c-4.87,0-8.77,1.39-7,12.43Z"/><path class="cls-2" d="M377.39,88.43a11.81,11.81,0,0,0-.83-4.69c1,0.11,4.15.23,6,.23,2.05,0,3.91-.59,3.78-2l2.39-.05a29,29,0,0,0,0,7.73l-1.84-.13c0-1.37-1.07-2.88-3.49-2.88-3,0-3.78,1-3.87,2Z"/><path class="cls-2" d="M372.78,86.15a1.69,1.69,0,0,1,1.48-1.9c1.25,0,1.79,1,1.79,2.15A1.56,1.56,0,0,1,374.63,88,1.88,1.88,0,0,1,372.78,86.15Z"/><path class="cls-2" d="M373.59,80.24l-2.89.1A12.67,12.67,0,0,0,369.58,75L373,75.43l-0.25-5.87,2.52,0.13c0,5,1.14,6.83,6.43,7,9,0.27,9.27-2.82,8.77-7.17l1.74-.54c0.6,2.59.75,5.72,0.26,7.24-1.25,3.87-3.3,3.75-13.45,4-2,0-2.36.31-2.41,2.57l-3.09.29Z"/><path class="cls-2" d="M377.57,74.24l2.13,0.38s-0.17-1.82,1.44-1.82c1.17,0,3.53.63,5.1,0.63a2.35,2.35,0,0,0,2.41-2.54A3.58,3.58,0,0,0,386,67.35c1.61,0.1,4.89-.43,5.49-6.05l-1.64-.2c-0.47,2.14-1,3.85-5.05,3.85s-10.45-.64-10.45-0.64l-1,3.38c3.31-.09,6.29-0.17,7.73-0.17s4.17,0.31,4.17,1.5-2.28,1-3.18,1-4.73-.53-4.73-0.53A44.2,44.2,0,0,1,377.57,74.24Z"/><path class="cls-2" d="M368.31,63.68c0,5.65.13,7.26,0.13,7.26l2.41,0.23c0-5.55-.47-9.06,7.29-9.06,3.75,0,9.24.27,9.24,0.27,0-3.51-.67-9.33-9.64-9.33S368.31,58,368.31,63.68Zm15.92-4.78c0,1.07-5.68,1-7,1s-5.86,0-5.86-1.24,3.15-1.77,5.52-1.77C380.18,56.93,384.23,57.6,384.23,58.9Z"/><path class="cls-2" d="M380.28,38.71L380,48.79h-1.92c-8.2,0-8.05-2.54-7.93-7l-2.54-1.09A90.05,90.05,0,0,1,367,52.17a74.89,74.89,0,0,1,12.74-1c6.66,0,9.56,2.94,10.4,8.35l1.59-.22A72.31,72.31,0,0,1,391,42.8l-2.66,0c-0.28,4.24-1.2,5.49-5.28,5.84l-1-9.24Z"/></svg>