<?xml version="1.0" encoding="iso-8859-1"?>
<!-- Generator: Adobe Illustrator 18.0.0, SVG Export Plug-In . SVG Version: 6.00 Build 0)  -->
<!DOCTYPE svg PUBLIC "-//W3C//DTD SVG 1.1//EN" "http://www.w3.org/Graphics/SVG/1.1/DTD/svg11.dtd">
<svg version="1.1" xmlns="http://www.w3.org/2000/svg" xmlns:xlink="http://www.w3.org/1999/xlink" x="0px" y="0px"
	 viewBox="0 0 320 148.323" style="enable-background:new 0 0 320 148.323;" xml:space="preserve">
<g id="bkgd" style="display:none;">
	
		<rect x="-14.39" y="-0.065" style="display:inline;fill:#53241B;stroke:#53241B;stroke-miterlimit:10;" width="348.905" height="148.387"/>
</g>
<g id="Layer_1">
	<g>
		<path style="fill:#F7941E;" d="M97.44,38.37c-0.328-6.072-4.431-16.247-9.847-21.17C82.177,12.277,76.433,6.04,68.556,6.04
			c-13.215,0-21.076,3.537-30.361,6.565c-7.549,2.462-20.678,13.621-25.602,24.617C7.669,48.217,8.703,52.65,8.818,57.572
			c0.164,7.057,6.073,23.469,16.083,29.377c10.011,5.908,19.365,7.713,27.079,7.713s17.888-7.056,24.781-10.175
			c6.893-3.119,18.217-19.201,18.709-23.14C95.963,57.408,97.769,44.443,97.44,38.37z M89.891,65.286
			c-2.626,6.4-12.145,14.441-16.083,16.74c-3.939,2.297-7.549,6.564-21.171,6.564c-7.234,0-17.724-2.462-25.274-10.995
			c-5.691-6.434-10.909-11.371-10.832-21.992c0.164-22.648,16.904-33.972,21.992-37.746c5.088-3.774,15.427-6.893,19.201-7.549
			c3.775-0.657,4.595-1.641,11.816-1.641c8.042,0,13.129,6.565,16.575,11.159c3.446,4.596,7.714,8.862,8.698,17.396
			C96.287,49.989,92.516,58.885,89.891,65.286z"/>
		<path style="fill:#F7941E;" d="M86.608,24.092c-3.939-5.579-12.144-13.129-19.037-13.129c-6.237,0-15.263,1.969-22.648,7.057
			c-7.385,5.087-12.801,11.487-17.396,21.663c-4.595,10.175-4.103,14.935-4.103,19.694s4.431,10.995,8.698,14.441
			c4.267,3.446,5.307,2.059,6.4,3.283c4.103,4.595,11.488,4.267,14.934,5.251c3.446,0.985,3.118,1.641,8.206,1.641
			c5.087,0,11.324-3.775,14.77-6.565s7.221-8.37,9.026-11.816c1.805-3.446,3.939-13.786,4.923-18.381
			C91.368,42.638,90.547,29.672,86.608,24.092z M83.654,52.156c-0.985,9.847-4.103,18.053-7.878,20.186
			c-3.774,2.134-10.667,7.55-14.77,7.55c-4.102,0-8.862-1.805-13.621-3.446c-4.76-1.641-10.832-3.446-12.637-4.923
			c-1.805-1.477-5.252-8.205-5.252-10.175c0-1.969,0.328-5.416,1.477-10.011c3.428-13.712,6.237-21.663,22.32-28.72
			c2.663-1.168,3.774-1.968,10.996-1.968s13.129,4.922,15.919,9.19C82.998,34.104,84.639,42.309,83.654,52.156z"/>
		<path style="fill:#F7941E;" d="M78.074,46.577c-0.985-4.103-4.759-12.965-7.057-14.935c-2.298-1.969-4.431-4.431-9.355-4.431
			c-7.714,0-10.996,0.657-15.099,2.954s-7.878,7.385-8.862,10.175c-0.985,2.791-4.431,10.996-3.282,19.038
			c1.149,8.041,2.79,9.518,5.744,11.652c2.954,2.134,10.668,5.252,12.965,5.58c2.298,0.328,8.862,0.656,10.175-0.164
			c1.313-0.82,11.488-5.251,12.473-7.221c0.985-1.969,2.954-7.55,2.79-10.668C78.403,55.439,79.059,50.68,78.074,46.577z
			 M72.33,63.972c-1.477,2.298-6.728,6.893-14.606,6.893s-17.068-7.549-17.068-13.457s2.462-15.592,4.923-20.186
			c2.462-4.596,10.035-6.458,13.95-6.893c1.477-0.164,1.477,0,4.431,0c2.954,0,6.893,6.4,8.206,9.518
			c1.313,3.119,2.298,6.893,3.118,9.683C76.106,52.32,73.807,61.675,72.33,63.972z"/>
		<path style="fill:#F7941E;" d="M56.247,33.119c-2.286,0.286-10.011,1.477-10.011,14.114c0,12.637,5.416,15.264,11.652,14.607
			c6.237-0.657,14.77-4.596,14.77-7.714c0-3.118-2.954-9.354-3.939-11.98s-1.318-7.52-6.729-8.534
			C59.365,33.119,57.56,32.954,56.247,33.119z"/>
	</g>
	<path style="fill:#53241B;" d="M84.065,56.587c-9.847,8.616-17.56,16.166-23.551,37.336c2.708-0.739,5.416-2.051,5.416-2.051
		c2.544-8.37,8.124-24.617,19.12-33.233C84.967,58.721,84.065,56.587,84.065,56.587z"/>
	<g>
		<path style="fill:#FFFFFF;" d="M97.355,77.676l17.338,0.701c0,0-4.176,21.212-4.176,30.968c0,4.409,1.264,11.709,12.16,11.559
			c4.811-0.067,13.229-1.003,13.229-1.003l1.27,4.945c-10.49,0.134-27.794,2.338-37.615,4.342c4.543-14.698,5.88-26.523,5.88-34.942
			c0-8.417-2.94-11.759-8.819-12.693L97.355,77.676z"/>
		<path style="fill:#FFFFFF;" d="M157.127,120.309c-12.528,0-16.97-4.18-16.97-18.93c0-8.724-1.87-14.75-11.625-14.75
			s-11.893,9.354-11.893,14.966l6.614-2.539c0-6.881,3.106-8.619,5.597-8.619c2.004,0,4.425,1.136,4.425,4.676
			c0,8.953-16.703,6.884-16.703,16.065c0,3.807,3.007,6.384,7.149,6.384c5.479,0,9.684-4.146,10.989-6.923
			c2.979,12.684,13.135,13.986,22.617,13.144L157.127,120.309z M127.597,111.148c-0.968,0-2.305-0.535-2.305-2.071
			c0-2.071,2.973-4.443,6.38-4.443c1.073,0,1.775,0.517,1.775,1.453C133.447,108.055,130.653,111.148,127.597,111.148z"/>
		<path style="fill:#FFFFFF;" d="M120.637,75.872c13.763,0.868,33.405,1.47,44.096,0.868l0.266,6.548
			c-10.244,0-12.982,1.49-13.997,10.171c-0.813,6.956,0.05,19.418,0.05,19.418l-6.582-0.233c0.752-3.157,1.049-11.795,1.049-16.857
			c0-9.723-2.785-17.51-24.832-14.052L120.637,75.872z"/>
		<g>
			<path style="fill:#FFFFFF;" d="M155.555,95.351c2.995,0.006,6.853-0.434,9.367-1.655c-0.215,1.959-0.464,8.285-0.464,12.084
				c0,4.102,1.172,7.816,3.899,7.548l0.1,4.777c-4.176-0.501-9.988-0.902-15.433-0.034l0.267-3.675c2.739,0,5.746-2.128,5.746-6.972
				c0-6.006-2.071-7.555-3.975-7.722L155.555,95.351z"/>
			<path style="fill:#FFFFFF;" d="M160.121,86.144c2.396,0,3.802,1.464,3.802,2.955c0,2.496-1.985,3.577-4.291,3.577
				c-2.304,0-3.275-1.833-3.275-2.848C156.357,88.098,157.8,86.144,160.121,86.144z"/>
		</g>
		<path style="fill:#FFFFFF;" d="M171.921,87.747l-0.2-5.762c3.006,0.075,7.491-0.676,10.623-2.23l-0.827,6.89l11.726-0.501
			l-0.251,5.036c-10.058,0-13.642,2.273-13.955,12.853c-0.533,17.952,5.635,18.509,14.326,17.512l1.075,3.472
			c-5.176,1.203-11.425,1.496-14.453,0.519c-7.732-2.494-7.487-6.586-7.913-26.865c-0.087-4.092-0.615-4.71-5.125-4.81l-0.588-6.164
			L171.921,87.747z"/>
		<path style="fill:#FFFFFF;" d="M183.897,95.715l-0.754,4.246c0,0,3.625-0.335,3.625,2.872c0,2.34-1.268,7.053-1.268,10.193
			c0,3.141,2.338,4.811,5.077,4.811c2.74,0,6.123-1.565,7.082-5.346c-0.2,3.208,0.854,9.771,12.093,10.958l0.401-3.274
			c-4.275-0.935-7.683-2.07-7.683-10.088c0-8.017,1.269-20.882,1.269-20.882l-6.749-1.975c0.183,6.618,0.335,12.561,0.335,15.433
			c0,2.873-0.625,8.328-2.99,8.328c-2.088,0-2.005-4.551-2.005-6.355c0-1.803,1.052-9.455,1.052-9.455
			S187.171,95.849,183.897,95.715z"/>
		<path style="fill:#FFFFFF;" d="M204.986,77.209c-11.291,0-14.499,0.266-14.499,0.266l-0.467,4.811
			c11.091,0,18.106-0.936,18.106,14.565c0,7.483-0.535,18.447-0.535,18.447c7.015,0,18.641-1.343,18.641-19.249
			C226.232,78.143,216.276,77.209,204.986,77.209z M214.539,109.001c-2.138,0-2.07-11.35-2.07-14.021c0-2.672,0-11.7,2.471-11.7
			c2.472,0,3.541,6.288,3.541,11.032C218.481,100.926,217.145,109.001,214.539,109.001z"/>
		<path style="fill:#FFFFFF;" d="M254.868,101.126l-20.122-0.575c-0.015-1.193-0.021-2.463-0.021-3.834
			c0-16.381,5.072-16.08,14.06-15.846l2.175-5.065c-8.819,0.466-22.983-1.137-22.983-1.137c1.203,7.883,1.938,14.364,1.938,25.456
			c0,13.311-5.869,19.088-16.676,20.781l0.441,3.169c9.955-2.004,24.805-2.07,33.022-1.469l-0.033-5.308
			c-8.467-0.561-10.957-2.394-11.669-10.55l18.465-1.914L254.868,101.126z"/>
	</g>
	<g>
		<path style="fill:#EE3E80;" d="M247.495,89.852c1.854-4.761,7.415-13.83,16.785-13.83c9.371,0,10.879,7.456,10.879,11.815
			c0,6.749-4.515,14.264-16.942,26.391l29.013,1.329l0.1,4.81c-10.999,0.347-27.405,2.04-37.18,3.733l-0.382-8.991
			c5.794-4.753,16.316-14.384,16.316-23.805c0-4.51-2.806-6.515-5.712-6.515c-2.906,0-6.112,1.159-10.022,7.166L247.495,89.852z"/>
		<path style="fill:#EE3E80;" d="M290.3,81.826c-5.8,0-14.072,6.538-14.072,16.136c0,9.862,6.221,14.768,11.792,14.768
			c4.241,0,6.839-1.657,8.692-4.312c-1.464,13.671-5.035,21.679-13.475,21.679c-4.811,0-6.803-1.107-9.916-3.323l-2.505,2.906
			c1.903,2.154,6.727,5.412,14.292,5.412c14.153,0,20.883-15.533,20.883-28.012C305.993,91.231,301.368,81.826,290.3,81.826z
			 M290.91,107.432c-2.906,0-5.161-3.657-5.161-9.67c0-6.013,2.505-10.891,5.461-10.891c3.207,0,4.66,4.657,4.66,10.64
			C295.87,101.971,293.816,107.432,290.91,107.432z"/>
	</g>
	<path style="fill:#F7941E;" d="M146.21,136.562c-0.027-0.083-0.107-0.129-0.193-0.133c-5.485,0.262-37.508-2.492-37.819-2.518
		c-11.212-0.828-34.591-8.669-34.824-8.747c-2.836-0.974-6.25-1.467-10.146-1.467h-0.139c-0.054,0-0.106,0.023-0.143,0.063
		c-0.037,0.04-0.055,0.093-0.05,0.147c0.208,2.393,0.45,3.953,0.519,4.371c-0.493,0.381-1.188,0.574-2.067,0.574
		c-1.386,0-2.819-0.486-3.223-0.633c-0.101-1.274-0.185-2.597-0.253-4.04c-0.003-0.053-0.027-0.102-0.067-0.138
		c-0.04-0.034-0.093-0.048-0.146-0.045c-8.587,0.879-16.107,3.43-16.203,3.464c-8.407,4-23.829,7.592-23.984,7.627
		c-0.066,0.017-0.12,0.066-0.14,0.132c-0.021,0.065-0.005,0.138,0.041,0.188c1.96,2.166,27.869,6.397,28.977,6.576
		c6.31,0.839,14.928,1.264,25.614,1.264c0,0,0,0,0.002,0c18.186,0,36.309-1.25,36.505-1.264c8.93-1.275,29.356-2.569,29.555-2.582
		c5.575-0.164,7.419-1.163,7.984-1.973C146.33,136.965,146.223,136.602,146.21,136.562z"/>
	<path style="fill:#FFFFFF;" d="M84.392,55.663l-0.506,0.315c-0.315,0.196-7.803,4.941-14.873,16.277
		c-6.452,10.347-13.67,28.342-11.637,55.444c-0.505-0.245-0.814-0.455-0.858-0.487c-0.234-0.163-0.555-0.111-0.72,0.124
		c-0.164,0.232-0.11,0.554,0.123,0.718c0.032,0.023,2.184,1.514,5.113,1.514c0.09,0,0.183-0.006,0.274-0.009
		c0.013,0,0.026,0,0.039,0l0,0c0.024,0,0.044-0.004,0.068-0.004c0.114-0.005,0.228-0.013,0.345-0.022
		c0.208-0.015,0.408-0.038,0.597-0.073c1.117-0.178,2.307-0.594,3.512-1.398c0.238-0.158,0.301-0.479,0.143-0.716
		c-0.159-0.237-0.479-0.301-0.716-0.143c-0.412,0.275-0.821,0.498-1.224,0.682c-0.304-1.992-1.597-11.692-0.064-24.002
		c1.58-12.693,6.578-30.812,21.414-45.044l0.261-0.25L84.392,55.663z M72.683,68.692l1.932,1.712
		c-0.111,0.172-0.226,0.344-0.335,0.518l-2.392-1.129C72.154,69.416,72.419,69.052,72.683,68.692z M69.857,72.856
		c0.477-0.768,0.958-1.493,1.438-2.201l2.444,1.153c-2.019,3.327-3.69,6.701-5.068,10.038l-3.305-0.487
		C66.819,78.092,68.359,75.263,69.857,72.856z M58.199,112.96l4.091-0.226c-0.017,0.539-0.029,1.067-0.037,1.586l-4.086-0.756
		C58.175,113.36,58.188,113.162,58.199,112.96z M61.874,128.502c-0.009,0.001-0.018,0.002-0.026,0.003
		c-0.158,0.016-0.325,0.024-0.501,0.024l0,0c-1.165,0-2.373-0.359-2.918-0.545c-0.369-4.738-0.448-9.189-0.301-13.376l4.114,0.762
		c-0.032,6.74,0.629,11.518,0.821,12.761C62.748,128.326,62.35,128.45,61.874,128.502z M62.982,103.757
		c-0.349,2.799-0.552,5.465-0.654,7.941l-4.073,0.225c0.228-3.78,0.646-7.325,1.208-10.644h3.863
		C63.195,102.124,63.082,102.952,62.982,103.757z M63.49,100.246h-3.846c0.106-0.588,0.217-1.166,0.333-1.739l3.659,0.883
		C63.586,99.678,63.536,99.962,63.49,100.246z M63.819,98.373l-3.634-0.879c1.102-5.172,2.552-9.736,4.158-13.717l3.038,1.396
		C65.72,89.779,64.585,94.254,63.819,98.373z M64.735,82.821c0.069-0.163,0.138-0.319,0.207-0.48l3.328,0.49
		c-0.181,0.458-0.36,0.914-0.531,1.368L64.735,82.821z M75.183,69.525l-1.882-1.667c4.762-6.26,9.186-9.645,10.636-10.666
		l0.509,1.155C80.793,61.888,77.74,65.66,75.183,69.525z"/>
	<g>
		<path style="fill:#FFFFFF;" d="M63.531,83.565c0,0-0.895-1.362-3.696,3.191c0,0-0.237,0.778,0.31,1.984l-5.056,5.525l-3.23-2.996
			c0,0-0.933-1.168-2.956-0.778l1.517-3.696l-3.307-1.012l-2.84,2.179l-1.751-1.323c0,0-1.401-1.633-3.735,0.663l-6.38,5.095
			c0,0-3.191,2.336-3.191,3.774c0,0,4.319,4.163,8.092,5.72c0,0-0.506,1.866,0.856,2.412l1.44-2.567l-0.778-1.208
			c0,0-3.735-4.318-5.447-5.29l5.252-2.802c0,0,0.583,6.147,1.44,7.742l0.116,0.585l3.969,0.272c0,0,3.929-3.152,5.719-5.331
			c0,0,3.463,3.697,5.058,3.931c0,0,5.467-7.084,6.527-10.254L63.531,83.565z"/>
		<path style="fill:#FFFFFF;" d="M46.763,86.561c0,0-1.673-5.175-1.362-7.548c0,0,4.435-2.218,8.17-1.713
			c0,0,2.256,0.467-0.817,3.191c0,0,0.739,4.707,0.156,6.07c0,0-2.335,0.544-4.319,0.622C46.607,87.261,46.763,86.561,46.763,86.561
			z"/>
		<path style="fill:#FFFFFF;" d="M46.446,115.657l-7.922,8.223c0,0-1.851-0.817-2.109,0.345c0,0,0.172,6.242,0.99,8.222
			c0,0,0.862,0.776,2.885-6.888l9.816-7.189L46.446,115.657z"/>
		<path style="fill:#FFFFFF;" d="M37.492,114.456c0,0,3.978,10.238,6.285,15.71c0,0-1.851,2.152-0.516,2.928
			c0,0,7.233,3.616,7.362,2.022c0,0,0.516-0.43-4.865-4.693l-3.66-15.284L37.492,114.456z"/>
		<path style="fill:#FFFFFF;" d="M84.257,88.254c0,0,4.972-0.064,4.114-3.809c0,0-1.854,0.839-1.692-0.679
			c0,0,2.196-4.778-3.681-4.746c0,0-5.425-2.18-4.843,2.946c0,0,0.032,1.423,0.839,2.015c0,0-1.615,2.498,1.549,4.822
			c0,0,1.604,0.323,2.917-0.355L84.257,88.254z"/>
		<path style="fill:#FFFFFF;" d="M95.074,96.068c0,0-4.9-4.849-7.045-5.871c0,0-0.924-0.629-2.965,0.278
			c-0.214-0.313-0.538-1.147-0.742-2.543l-2.163,0.226l0.168,0.479c0.004,0.621-0.081,2.381-1.137,3.041c0,0-1.03-0.568-2.868,0.807
			l-4.107,2.81l-6.212-4.134c0,0,0.852-1.937,0.529-3.068c0,0-0.387-2.001-1.259-2.163c0,0-1.684,4.144-0.743,6.102
			c0.988,2.056,7.265,5.821,7.265,5.821s4.337-1.349,6.554-3.302c2.217-1.953,6.877-0.936,6.877-0.936s2.744,2.066,4.618,3.002
			l-3.474,4.682c0,0,0.471,2.777,4.216,1.872c0,0,0.485-1.614-1.098-1.937c0,0-0.71-0.235-0.872-0.473
			C90.618,100.761,94.202,97.877,95.074,96.068z"/>
		<path style="fill:#FFFFFF;" d="M87.776,92.484c0,0-0.743,5.484-2.518,7.763l-1.55,0.342c0,0-4.618-1.97-4.004-7.33L87.776,92.484z
			"/>
		<path style="fill:#FFFFFF;" d="M79.473,94.107c0,0-1.98,2.305-0.135,3.378c0,0,1.383,0.738,2.802,0.349l-0.794-4.406
			L79.473,94.107z"/>
		<path style="fill:#FFFFFF;" d="M79.102,113.973c0,0-5.597,14.447-6.345,16.562l-3.658,2.424c0,0-1.102,0.792,0,1.145
			c0,0,4.539-0.309,6.477-2.116c0,0-0.176-1.277-0.617-1.763c0,0,2.6-5.155,4.319-7.138c0,0,2.157-2.346,2.102-4.924
			c0,0,0.101-4.11,0.278-4.77C81.834,112.732,79.102,113.973,79.102,113.973z"/>
		<path style="fill:#FFFFFF;" d="M87.694,115.881l-3.382,14.992c0,0,2.152,2.498,2.883,3.959c0,0,0.076,0.999-1.73,0
			c0,0-4.192-2.1-3.77-3.293l0.925-1.743l0.077-8.033c0,0-0.346-3.997,2.366-6.343L87.694,115.881z"/>
	</g>
	<g>
		<path style="fill:#EE3E80;" d="M89.699,102.697c-1.489-2.496-3.977-3.073-4.083-3.096c-0.053-0.013-0.109-0.001-0.153,0.031
			c-0.96,0.676-2.218,0.763-2.231,0.763c-0.035,0.002-0.068,0.015-0.097,0.034c-3.802,2.582-7.331,13.714-7.479,14.185
			c-0.021,0.07-0.004,0.142,0.046,0.194c0.05,0.051,0.124,0.071,0.192,0.051l2.287-0.648l0.56,1.755
			c0.016,0.053,0.054,0.095,0.104,0.117c0.049,0.022,0.106,0.023,0.156,0.003l2.163-0.914l1.274,1.437
			c0.074,0.083,0.216,0.083,0.29,0l1.195-1.348l0.976,1.542c0.028,0.044,0.073,0.075,0.124,0.087c0.051,0.01,0.105-0.001,0.149-0.03
			l1.362-0.929l1.782,1.576c0.036,0.031,0.082,0.048,0.128,0.048c0.02,0,0.04-0.004,0.059-0.009c0.065-0.022,0.114-0.076,0.13-0.14
			l1.496-6.381C91.101,107.606,90.956,104.804,89.699,102.697z"/>
		<path style="fill:#EE3E80;" d="M80.815,98.103c0,0-3.603-0.612-1.8-3.334c0,0,0.78-0.583,2.846,0.095c0,0,2.622-2.883,4.287-1.22
			c0,0,0.803,0.809,1.286,0.995l-0.525,1.896C86.909,96.536,82.521,98.259,80.815,98.103z"/>
		<path style="fill:#EE3E80;" d="M50.257,119.949c5.192-4.183,4.878-6.672,4.85-6.82c-0.991-2.457-9.88-12.26-10.257-12.677
			c-0.04-0.043-0.1-0.068-0.158-0.063c-0.281,0.021-0.582,0.031-0.896,0.031c-1.847,0-3.655-0.361-3.673-0.364
			c-0.087-0.019-0.177,0.028-0.214,0.108c-3.883,8.363-4.38,15.489-4.417,16.122l-0.127,1.028c0.042,0.026-0.056,0.412,0.333,0.483
			c0.081,0.014,0.167-0.018,0.229-0.07l1.102-0.934l0.937,1.188c0.055,0.05,0.128,0.078,0.207,0.081c0.007,0,0.013,0,0.02,0
			c0.085-0.005,0.164-0.041,0.216-0.099l0.997-1.07l0.965,0.958c0.056,0.056,0.136,0.083,0.221,0.088
			c0.085-0.001,0.164-0.033,0.219-0.089l0.931-0.956l0.873,0.768c0.08,0.07,0.199,0.093,0.306,0.06
			c0.106-0.035,0.181-0.119,0.191-0.219l0.111-1.135c0.004-0.04-0.004-0.078-0.019-0.113l0.704-5.638l2.402,3.319l-1.441,1.129
			c-0.017,0.01-0.036,0.018-0.05,0.032l-0.035,0.035l-0.092,0.073c-0.021,0.016-0.033,0.038-0.045,0.059l-0.382,0.37
			c-0.063,0.061-0.09,0.152-0.069,0.238c0.02,0.087,0.085,0.156,0.168,0.181l1.26,0.374l0.026,1.424
			c0.002,0.071,0.033,0.138,0.086,0.184c0.052,0.046,0.124,0.067,0.19,0.058l1.18-0.164l-0.085,1.14
			c-0.005,0.071,0.019,0.141,0.066,0.191c0.048,0.051,0.113,0.075,0.183,0.077l1.46-0.039l-0.168,1.495
			c-0.012,0.099,0.037,0.195,0.122,0.244c0.037,0.022,0.078,0.033,0.12,0.033c0.053,0,0.105-0.016,0.148-0.051L50.257,119.949z"/>
	</g>
	<g>
		<path style="fill:#EE3E80;" d="M120.036,70.296h-4.056v-8.134h3.993c1.595,0,2.63,0.487,2.63,1.881
			c0,0.951-0.581,1.532-1.183,1.669c0.792,0.179,1.733,0.655,1.733,2.059C123.154,69.155,122.466,70.296,120.036,70.296z
			 M119.763,62.996h-2.737v2.429h2.83c1.141,0,1.658-0.495,1.658-1.298C121.515,63.292,120.925,62.996,119.763,62.996z
			 M119.994,66.229h-2.968v3.221h2.853c1.616,0,2.196-0.623,2.196-1.7C122.075,66.704,121.262,66.229,119.994,66.229z"/>
		<path style="fill:#EE3E80;" d="M125.824,69.206v-8.134h6.434l-0.296,0.845h-5.092v2.441h4.289v0.824h-4.289v3.169h5.081
			l0.338,0.855H125.824z"/>
		<path style="fill:#EE3E80;" d="M140.394,70.296l-0.75-1.86h-4.11l-0.75,1.86h-1.12l3.328-8.134h1.194l3.327,8.134H140.394z
			 M138.091,64.665c-0.021-0.116-0.497-1.331-0.508-1.5c-0.01,0.169-0.506,1.384-0.517,1.5l-1.226,2.968h3.487L138.091,64.665z"/>
		<path style="fill:#EE3E80;" d="M148.833,63.376c-0.518-1.025-1.31-1.522-2.229-1.522c-1.542,0-2.704,1.014-2.704,3.244
			c0,2.397,1.236,3.338,2.672,3.338c1.025,0,1.902-0.464,2.356-1.668l1.056,0.263c-0.517,1.479-1.648,2.25-3.391,2.25
			c-2.113,0-3.803-1.215-3.803-4.204c0-2.863,1.753-4.077,3.824-4.077c1.638,0,2.693,0.665,3.285,2.07L148.833,63.376z"/>
		<path style="fill:#EE3E80;" d="M158.339,70.296V66.24h-4.976v4.056h-1.067v-8.134h1.067v3.233h4.976v-3.233h1.066v8.134H158.339z"
			/>
		<path style="fill:#EE3E80;" d="M166.292,69.206h-4.056v-8.134h3.993c1.594,0,2.63,0.487,2.63,1.88c0,0.951-0.581,1.533-1.183,1.67
			c0.791,0.179,1.732,0.654,1.732,2.059C169.409,68.065,168.722,69.206,166.292,69.206z M166.018,61.908h-2.736v2.429h2.831
			c1.14,0,1.657-0.496,1.657-1.299C167.771,62.203,167.18,61.908,166.018,61.908z M166.249,65.14h-2.967v3.221h2.851
			c1.616,0,2.198-0.623,2.198-1.7C168.332,65.615,167.518,65.14,166.249,65.14z"/>
		<path style="fill:#EE3E80;" d="M175.186,70.359c-2.408,0-3.359-1.015-3.359-3.222c0-0.138,0-4.838,0-4.975h1.056
			c0,0.973,0,4.838,0,4.965c0,1.575,0.635,2.378,2.304,2.378c1.711,0,2.291-0.909,2.291-2.399c0-0.126,0-4.225,0-4.944h1.057
			c0,0.138,0,4.722,0,5.039C178.534,69.113,177.647,70.359,175.186,70.359z"/>
		<path style="fill:#EE3E80;" d="M188.823,69.206v-5.409c0-0.158,0.01-1.278,0.01-1.436c-0.022,0.126-0.476,1.183-0.497,1.373
			l-2.272,5.472h-0.886c0,0-2.304-5.472-2.304-5.483c-0.032-0.138-0.495-1.224-0.507-1.362c0,0.138,0,1.299,0,1.436v5.409h-1.024
			v-8.134h1.447l2.324,5.272c0.021,0.159,0.518,1.532,0.518,1.532s0.475-1.373,0.496-1.532l2.281-5.272h1.437v8.134H188.823z"/>
		<path style="fill:#EE3E80;" d="M200.44,70.296h-4.055v-8.134h3.992c1.596,0,2.631,0.487,2.631,1.881
			c0,0.951-0.581,1.532-1.183,1.669c0.792,0.179,1.732,0.655,1.732,2.059C203.557,69.155,202.871,70.296,200.44,70.296z
			 M200.166,62.996h-2.736v2.429h2.832c1.14,0,1.658-0.495,1.658-1.298C201.92,63.292,201.329,62.996,200.166,62.996z
			 M200.398,66.229h-2.968v3.221h2.852c1.616,0,2.197-0.623,2.197-1.7C202.479,66.704,201.667,66.229,200.398,66.229z"/>
		<path style="fill:#EE3E80;" d="M206.229,69.206v-8.134h6.433l-0.296,0.845h-5.092v2.441h4.289v0.824h-4.289v3.169h5.081
			l0.338,0.855H206.229z"/>
		<path style="fill:#EE3E80;" d="M220.774,70.296l-2.198-4.045h-2.555v4.045h-1.056v-8.134c0.094,0,4.321,0,4.33,0
			c1.785,0,2.653,0.783,2.653,2.071c0,1.183-0.708,1.859-2.208,1.965l2.239,4.098H220.774z M219.085,62.996c0,0-3.001,0-3.064,0
			v2.451h3.201c1.194,0,1.626-0.497,1.626-1.215C220.848,63.461,220.331,62.996,219.085,62.996z"/>
		<path style="fill:#EE3E80;" d="M230.344,69.206l-2.197-4.045h-2.556v4.045h-1.056v-8.134c0.093,0,4.32,0,4.33,0
			c1.785,0,2.652,0.782,2.652,2.07c0,1.184-0.708,1.86-2.208,1.965l2.239,4.098H230.344z M228.655,61.908c0,0-3,0-3.064,0v2.45h3.2
			c1.193,0,1.627-0.497,1.627-1.215C230.418,62.371,229.901,61.908,228.655,61.908z"/>
		<path style="fill:#EE3E80;" d="M237.239,67.655v2.641h-1.088v-2.651l-3.19-5.483h1.215l1.975,3.413
			c0.032,0.074,0.549,1.004,0.57,1.108c0.032-0.104,0.518-0.992,0.539-1.055l2.017-3.466h1.183L237.239,67.655z"/>
		<path style="fill:#EE3E80;" d="M242.038,64.855l-0.127-0.486c0.54-0.084,0.729-0.285,0.74-0.803h-0.666v-1.447h1.468v1.406
			C243.453,64.264,243.052,64.792,242.038,64.855z"/>
		<path style="fill:#EE3E80;" d="M249.336,69.269c-2.46,0-3.401-0.971-3.696-2.143c-0.011-0.095-0.022-0.19-0.022-0.296l1.225-0.263
			c0,0.137,0.011,0.253,0.032,0.36c0.264,0.834,0.951,1.51,2.524,1.51c1.765,0,2.419-0.655,2.419-1.659
			c0-0.855-0.476-1.331-1.817-1.52c-0.581-0.086-0.93-0.106-1.659-0.19c-1.605-0.18-2.461-0.708-2.461-1.923
			c0-1.245,1.098-2.143,3.222-2.143c1.849,0,2.82,0.612,3.295,1.563c0.021,0.054,0.053,0.095,0.064,0.169l-1.078,0.285
			c-0.021-0.063-0.053-0.169-0.074-0.211c-0.464-0.665-1.12-0.962-2.249-0.962c-1.353,0-2.07,0.508-2.07,1.237
			c0,0.601,0.243,0.992,1.753,1.162c0.326,0.042,1.277,0.148,1.594,0.189c1.743,0.234,2.599,0.889,2.599,2.208
			C252.939,68.32,251.893,69.269,249.336,69.269z"/>
	</g>
	<path style="fill:#FFFFFF;" d="M91.445,54.25c12.569-10.578,25.828,0.225,25.828,0.225c-5.814-11.404-12.08-12.758-12.08-12.758
		C94.257,38.222,88.14,49.87,86.872,52.607l-0.138-0.39c0,0-1.299-14.507-9.484-15.692c0,0-9.483-2.145-17.782,2.822
		c0,0,12.136-2.484,21.677,11.516c0,0-10.33-7.565-21.677,14.338c0,0,12.532-11.742,24.95-7.733c0,0,8.75,12.645,6.435,24.499
		c0,0,13.237-13.188-0.682-23.546c17.546,2.916,18.269,14.529,18.269,14.529c3.272-4.593,0.614-11.699,0.614-11.699
		C106.564,54.581,96.297,54.093,91.445,54.25z"/>
</g>
</svg>
