<svg height="50" viewBox="0 0 200 50" width="200" xmlns="http://www.w3.org/2000/svg"><g fill="none" fill-rule="evenodd"><path d="m5.1277704 0h189.7444596c1.783037 0 2.42961.18565122 3.081461.53426541.651852.34861418 1.163429.86019133 1.512044 1.51204318.348614.65185185.534265 1.29842433.534265 3.08146181v39.7444592c0 1.7830375-.185651 2.42961-.534265 3.0814618-.348615.6518519-.860192 1.163429-1.512044 1.5120432-.651851.3486142-1.298424.5342654-3.081461.5342654h-189.7444596c-1.78303748 0-2.42960996-.1856512-3.08146181-.5342654s-1.163429-.8601913-1.51204318-1.5120432c-.34861419-.6518518-.53426541-1.2984243-.53426541-3.0814618v-39.7444592c0-1.78303748.18565122-2.42960996.53426541-3.08146181.34861418-.65185185.86019133-1.163429 1.51204318-1.51204318.65185185-.34861419 1.29842433-.53426541 3.08146181-.53426541z"/><g fill="#fff" fill-rule="nonzero" transform="translate(13 13)"><path d="m120 24h54v-24h-54zm14.978475-7.603887c-2.27175 0-4.1193-1.4697936-4.72095-3.5376499h-.514275v3.3807066h-2.054475v-9.20371067h3.465975c.5403 0 1.015425.07590128 1.42545.22800623.4098.15150017.75255.35871671 1.0272.62104484.275025.26202574.48.56835242.614775.91739247.135075.34949365.202875.72257414.202875 1.11750272 0 .59806281-.132675 1.12022431-.398475 1.56648451-.26535.4462602-.640275.7620367-1.125 1.0292032-.155775.0926842-.332625.176977-.57915.2420676.4743 1.0103035 1.43235 1.6761785 2.65605 1.6761785zm10.418475-.1496102h-6.503925v-9.20809542h6.2046v1.82231112h-4.1496v1.7947931h3.124275v1.7666704h-3.124275v1.9882506h4.448925zm6.102525-6.87866698c0 .31411337.166725.56805003.498975.76256598.332325.1942135.7893.3562975 1.37085.4854204.341625.0834612.67635.1963303 1.003875.3395902.32805.1436379.620925.3305939.879825.5618509.258075.2309546.46575.51566.6234.8530578.15645.3370955.234975.7460854.234975 1.2264407 0 .4159451-.092475.8001386-.277125 1.1512199-.184875.3517616-.43575.6561983-.754575.9152757-.31845.2590773-.69255.4603216-1.12185.6034303-.429375.1429575-.893025.214474-1.3917.214474-.461775 0-.881475-.0439985-1.26015-.1317689-.378375-.0877703-.720075-.2029074-1.0248-.3466208-.3045-.1428819-.57915-.3070827-.8238-.4921488-.24495-.1844613-.4548-.3741389-.6306-.56805l1.3437-1.4566393c.119775.1299545.261075.2617989.4221.3957601.1614.1337345.3414.2561291.540225.3668814.198675.111584.4155.2012443.651.2703416.23505.0697022.4869.1045533.754725.1045533.15675 0 .3138-.0232089.47085-.0697022.15675-.0458885.30015-.1128691.4293-.2009418s.2334-.1939111.312-.3190273c.077925-.1245114.1173-.2655033.1173-.4225222 0-.3419337-.1656-.607815-.498675-.797417-.332625-.189602-.858375-.3765581-1.57875-.5615485-.35115-.0835368-.6759-.203739-.97635-.3606823-.299925-.1571701-.558225-.3468477-.775275-.5688816-.217125-.2218071-.38565-.4757438-.5055-.7626416-.12-.2859905-.1803-.60501784-.1803-.95677945 0-.38789788.06945-.7528137.2079-1.09535224.1383-.34200936.34845-.6445561.62985-.9084718.2817-.26315972.6327-.47113225 1.0524-.62346401.420525-.15293654.916275-.22914022 1.489275-.22914022.47085 0 .8862.04868569 1.2459.14590585.36015.09729577.667275.21258407.921075.34631849.254025.13403683.4614.27313877.623325.41632306.161325.14310869.2838.25658262.367125.3392122l-1.204875 1.33152316c-.10215-.08315877-.21945-.17312145-.353175-.27041721-.133725-.09699337-.2838-.18695604-.450225-.27041721-.1656-.08315878-.34845-.15263415-.54645-.20797254-.1992-.05533838-.4092-.08323437-.6306-.08323437-.147675 0-.29325.02298206-.436275.06947538-.1434.04619092-.272625.10886239-.387825.18688044-.1152.07892524-.207675.17160947-.276825.2777503-.069375.10644323-.10425.21931237-.10425.33959019zm16.046325-2.32942844-3.234825 5.34272442v3.865371h-2.115375v-3.8518388l-3.2349-5.35625662h2.363925l2.0049 3.47906072 1.948875-3.47906072zm-36.4527 4.21894702c.391275 0 .698925-.1150615.922425-.3449578.223575-.2298206.33525-.5197423.33525-.8692359 0-.37738967-.111675-.67645886-.33525-.8974344-.2235-.22067314-.53115-.33089632-.922425-.33089632h-1.25985v2.44252442z"/><path d="m.17 19v-13.14h6.678c1.6200081 0 2.8079962.29399706 3.564.882s1.134 1.37999502 1.134 2.376c0 .82800414-.2879971 1.5089973-.864 2.043s-1.3559951.8849992-2.34 1.053c1.0560053.1080005 1.9109967.4199974 2.565.936s.981 1.277995.981 2.286c0 1.1880059-.4469955 2.078997-1.341 2.673s-2.1509919.891-3.771.891zm5.598-10.494h-2.232v2.79h2.16c.9000045 0 1.54199808-.1289987 1.926-.387s.576-.6089978.576-1.053c0-.46800234-.1799982-.80999892-.54-1.026s-.9899955-.324-1.89-.324zm.108 4.932h-2.34v2.898h2.466c.97200486 0 1.61999838-.1469985 1.944-.441s.486-.6629978.486-1.107c0-.4560023-.20099799-.7949989-.603-1.017s-1.0529955-.333-1.953-.333zm12.334 5.742c-.9120046 0-1.7159965-.1289987-2.412-.387s-1.2749977-.6149977-1.737-1.071-.8069989-1.0049968-1.035-1.647-.342-1.3409962-.342-2.097c0-.7440037.1229988-1.4399968.369-2.088s.6029977-1.2059977 1.071-1.674c.4680023-.46800234 1.0469966-.83399868 1.737-1.098s1.4729956-.396 2.349-.396c.9000045 0 1.6979965.13499865 2.394.405s1.2749977.63899766 1.737 1.107c.4620023.4680023.8099988 1.0229968 1.044 1.665s.351 1.3289963.351 2.061-.1229988 1.4189968-.369 2.061-.6029977 1.1939977-1.071 1.656-1.0469966.8279987-1.737 1.098c-.6900035.2700013-1.4729956.405-2.349.405zm0-2.556c.7680038 0 1.3199983-.2399976 1.656-.72s.504-1.1279959.504-1.944c0-.8400042-.1649984-1.5059975-.495-1.998s-.8849961-.738-1.665-.738c-.7440037 0-1.2899983.2489975-1.638.747s-.522 1.1609959-.522 1.989c-.0120001.8280041.1469984 1.4789976.477 1.953.3300017.4740024.890996.711 1.683.711zm12.01 2.556c-.9120046 0-1.7159965-.1289987-2.412-.387s-1.2749977-.6149977-1.737-1.071-.8069989-1.0049968-1.035-1.647-.342-1.3409962-.342-2.097c0-.7440037.1229988-1.4399968.369-2.088s.6029977-1.2059977 1.071-1.674c.4680023-.46800234 1.0469966-.83399868 1.737-1.098.6900035-.26400132 1.4729956-.396 2.349-.396.9000045 0 1.6979965.13499865 2.394.405s1.2749977.63899766 1.737 1.107c.4620023.4680023.8099988 1.0229968 1.044 1.665s.351 1.3289963.351 2.061-.1229988 1.4189968-.369 2.061-.6029977 1.1939977-1.071 1.656-1.0469965.8279987-1.737 1.098c-.6900034.2700013-1.4729956.405-2.349.405zm0-2.556c.7680038 0 1.3199983-.2399976 1.656-.72s.504-1.1279959.504-1.944c0-.8400042-.1649983-1.5059975-.495-1.998s-.8849961-.738-1.665-.738c-.7440037 0-1.2899983.2489975-1.638.747s-.522 1.1609959-.522 1.989c-.0120001.8280041.1469983 1.4789976.477 1.953.3300016.4740024.890996.711 1.683.711zm10.03-11.952v9.144l3.546-4.896h3.744l-3.366 4.41 3.51 5.67h-3.762l-2.556-4.356-1.116 1.422v2.934h-3.258v-14.328zm15.344 5.508v8.82h-3.276v-13.14h4.14l4.338 8.748.342 1.026-.072-1.314v-8.46h3.276v13.14h-3.96l-4.518-9.162-.414-1.08zm15.538 9c-.9120046 0-1.7159965-.1289987-2.412-.387s-1.2749977-.6149977-1.737-1.071-.8069989-1.0049968-1.035-1.647-.342-1.3409962-.342-2.097c0-.7440037.1229988-1.4399968.369-2.088s.6029977-1.2059977 1.071-1.674c.4680023-.46800234 1.0469965-.83399868 1.737-1.098.6900034-.26400132 1.4729956-.396 2.349-.396.9000045 0 1.6979965.13499865 2.394.405s1.2749977.63899766 1.737 1.107c.4620023.4680023.8099988 1.0229968 1.044 1.665s.351 1.3289963.351 2.061-.1229988 1.4189968-.369 2.061-.6029977 1.1939977-1.071 1.656-1.0469966.8279987-1.737 1.098c-.6900035.2700013-1.4729956.405-2.349.405zm0-2.556c.7680038 0 1.3199983-.2399976 1.656-.72s.504-1.1279959.504-1.944c0-.8400042-.1649984-1.5059975-.495-1.998-.3300017-.4920025-.8849961-.738-1.665-.738-.7440037 0-1.2899983.2489975-1.638.747s-.522 1.1609959-.522 1.989c-.0120001.8280041.1469983 1.4789976.477 1.953.3300016.4740024.890996.711 1.683.711zm13.72-4.14-1.602 6.516h-4.086l-2.196-10.08h3.33l1.35 7.2.108.936.18-.954 1.8-7.182h2.61l1.71 7.182.144.954.126-.954 1.548-7.182h3.312l-2.484 10.08h-4.068l-1.458-6.516-.18-.99z"/></g></g></svg>